<svg width="25" height="25" viewBox="0 0 25 25" fill="none" xmlns="http://www.w3.org/2000/svg">
<circle cx="12.3234" cy="12.3234" r="11.8234" stroke="white"/>
<path d="M12.5 7C13.6935 7 14.8381 7.49668 15.682 8.38078C16.5259 9.26488 17 10.464 17 11.7143C17 13.666 15.58 15.711 12.8 17.8952C12.7135 17.9632 12.6082 18 12.5 18C12.3918 18 12.2865 17.9632 12.2 17.8952C9.42 15.711 8 13.666 8 11.7143C8 10.464 8.47411 9.26488 9.31802 8.38078C10.1619 7.49668 11.3065 7 12.5 7ZM12.5 10.1429C12.1022 10.1429 11.7206 10.3084 11.4393 10.6031C11.158 10.8978 11 11.2975 11 11.7143C11 12.1311 11.158 12.5308 11.4393 12.8255C11.7206 13.1202 12.1022 13.2857 12.5 13.2857C12.8978 13.2857 13.2794 13.1202 13.5607 12.8255C13.842 12.5308 14 12.1311 14 11.7143C14 11.2975 13.842 10.8978 13.5607 10.6031C13.2794 10.3084 12.8978 10.1429 12.5 10.1429Z" fill="white"/>
</svg>
