<svg width="25" height="25" viewBox="0 0 25 25" fill="none" xmlns="http://www.w3.org/2000/svg">
<path d="M16.5599 7.70215H7.31742C6.682 7.70215 6.16789 8.22204 6.16789 8.85746L6.16211 15.7894C6.16211 16.4248 6.682 16.9447 7.31742 16.9447H16.5599C17.1954 16.9447 17.7153 16.4248 17.7153 15.7894V8.85746C17.7153 8.22204 17.1954 7.70215 16.5599 7.70215ZM16.3289 10.1572L12.2448 12.7104C12.06 12.826 11.8174 12.826 11.6325 12.7104L7.54849 10.1572C7.49056 10.1247 7.43984 10.0807 7.39939 10.0281C7.35893 9.97537 7.32959 9.91503 7.31314 9.85067C7.29668 9.78632 7.29345 9.71929 7.30365 9.65365C7.31385 9.58802 7.33726 9.52513 7.37246 9.4688C7.40767 9.41247 7.45394 9.36387 7.50847 9.32594C7.563 9.28801 7.62466 9.26154 7.68972 9.24813C7.75478 9.23472 7.82188 9.23466 7.88697 9.24793C7.95205 9.26121 8.01377 9.28755 8.06838 9.32537L11.9387 11.7458L15.809 9.32537C15.8636 9.28755 15.9253 9.26121 15.9904 9.24793C16.0555 9.23466 16.1226 9.23472 16.1877 9.24813C16.2527 9.26154 16.3144 9.28801 16.3689 9.32594C16.4234 9.36387 16.4697 9.41247 16.5049 9.4688C16.5401 9.52513 16.5635 9.58802 16.5737 9.65365C16.5839 9.71929 16.5807 9.78632 16.5642 9.85067C16.5478 9.91503 16.5184 9.97537 16.478 10.0281C16.4375 10.0807 16.3868 10.1247 16.3289 10.1572Z" fill="white"/>
<circle cx="12.3234" cy="12.3234" r="11.8234" stroke="white"/>
</svg>
