<svg width="134" height="66" viewBox="0 0 134 66" fill="none" xmlns="http://www.w3.org/2000/svg">
<path d="M125.5 32.4164C123.879 31.8267 122.552 30.6474 121.815 29.0258L114.886 14.7267C113.265 11.3362 109.727 9.12499 105.894 9.12499H90.563V6.17672C90.563 3.08103 88.057 0.722412 85.1087 0.722412H36.6096C35.2829 0.722412 34.251 1.75431 34.251 3.08103C34.251 4.40775 35.2829 5.43965 36.6096 5.43965H84.9613C85.4035 5.43965 85.8458 5.88189 85.8458 6.32413V52.9069H46.3389C45.307 48.4844 41.3268 45.0939 36.4622 45.0939C31.5975 45.0939 27.6174 48.4844 26.5855 52.9069H21.5734C21.1312 52.9069 20.6889 52.4646 20.6889 52.0224V46.2732C20.6889 44.9465 19.657 43.9146 18.3303 43.9146C17.0036 43.9146 15.9717 44.9465 15.9717 46.2732V52.0224C15.9717 55.1181 18.4777 57.4767 21.426 57.4767H26.7329C27.7648 61.8991 31.7449 65.2896 36.6096 65.2896C41.4742 65.2896 45.4544 61.8991 46.4863 57.4767H88.3518H98.2285C99.2604 61.8991 103.241 65.2896 108.105 65.2896C112.97 65.2896 116.95 61.8991 117.982 57.4767H126.679C130.217 57.4767 133.166 54.5284 133.166 50.9905V42.8827C132.871 38.1655 129.922 34.0379 125.5 32.4164ZM36.6096 60.7198C33.5139 60.7198 31.1553 58.2137 31.1553 55.2655C31.1553 52.3172 33.6613 49.8112 36.6096 49.8112C39.7053 49.8112 42.0639 52.3172 42.0639 55.2655C42.0639 58.2137 39.7053 60.7198 36.6096 60.7198ZM107.958 60.7198C104.862 60.7198 102.504 58.2137 102.504 55.2655C102.504 52.1698 105.01 49.8112 107.958 49.8112C111.054 49.8112 113.412 52.3172 113.412 55.2655C113.412 58.2137 110.906 60.7198 107.958 60.7198ZM128.301 50.9905C128.301 52.0224 127.416 52.9069 126.385 52.9069H117.687C116.655 48.4844 112.675 45.0939 107.81 45.0939C103.093 45.0939 98.9656 48.4844 97.9337 52.9069H90.2682V32.2689H111.496C112.822 32.2689 113.854 31.237 113.854 29.9103C113.854 28.5836 112.822 27.5517 111.496 27.5517H90.563V13.5474H105.894C107.958 13.5474 109.874 14.7267 110.759 16.4957L117.687 30.7948C119.014 33.4482 121.225 35.3646 124.026 36.3965C126.679 37.281 128.448 39.787 128.448 42.5879V50.9905H128.301Z" fill="#4D4D4D"/>
<path d="M27.175 15.906H47.3707C48.6974 15.906 49.7293 14.8741 49.7293 13.5474C49.7293 12.2207 48.6974 11.1888 47.3707 11.1888H27.175C25.8483 11.1888 24.8164 12.2207 24.8164 13.5474C24.8164 14.8741 25.9957 15.906 27.175 15.906Z" fill="#4D4D4D"/>
<path d="M14.7925 15.906H19.8045C21.1312 15.906 22.1631 14.8741 22.1631 13.5474C22.1631 12.2207 21.1312 11.1888 19.8045 11.1888H14.7925C13.4657 11.1888 12.4338 12.2207 12.4338 13.5474C12.4338 14.8741 13.6131 15.906 14.7925 15.906Z" fill="#4D4D4D"/>
<path d="M27.175 26.3724H60.3431C61.6698 26.3724 62.7017 25.3405 62.7017 24.0138C62.7017 22.6871 61.6698 21.6552 60.3431 21.6552H27.175C25.8483 21.6552 24.8164 22.6871 24.8164 24.0138C24.9638 25.3405 25.9957 26.3724 27.175 26.3724Z" fill="#4D4D4D"/>
<path d="M14.7925 26.3724H19.8045C21.1312 26.3724 22.1631 25.3405 22.1631 24.0138C22.1631 22.6871 21.1312 21.6552 19.8045 21.6552H14.7925C13.4657 21.6552 12.4338 22.6871 12.4338 24.0138C12.5813 25.3405 13.6131 26.3724 14.7925 26.3724Z" fill="#4D4D4D"/>
<path d="M39.4105 34.3327C39.4105 33.006 38.3786 31.9741 37.0519 31.9741H14.7925C13.4657 31.9741 12.4338 33.006 12.4338 34.3327C12.4338 35.6595 13.4657 36.6914 14.7925 36.6914H37.0519C38.3786 36.6914 39.4105 35.6595 39.4105 34.3327Z" fill="#4D4D4D"/>
<path d="M7.42176 32.1215H2.55711C1.23038 32.1215 0.198486 33.1534 0.198486 34.4801C0.198486 35.8069 1.23038 36.8388 2.55711 36.8388H7.56917C8.89589 36.8388 9.92779 35.8069 9.92779 34.4801C9.78038 33.1534 8.74848 32.1215 7.42176 32.1215Z" fill="#4D4D4D"/>
</svg>
