<svg width="114" height="91" viewBox="0 0 114 91" fill="none" xmlns="http://www.w3.org/2000/svg">
<g filter="url(#filter0_f_86_1476)">
<circle cx="77.4685" cy="54.9983" r="25.7737" fill="#393939"/>
</g>
<path d="M58.4583 5.14923C56.8834 5.15679 55.7494 5.90221 54.8495 6.57068C53.828 7.34174 52.9325 8.09843 52.1133 8.84588H35.4367C34.2221 8.84588 33.2227 9.85117 33.2227 11.0676V24.3793C33.2227 25.5958 34.2221 26.5953 35.4367 26.5953H60.5454C61.76 26.5953 62.7652 25.5958 62.7652 24.3793V19.9402H64.9778C65.5674 20.0171 68.2368 18.9888 69.3438 18.6632C69.7881 18.5297 70.2072 18.4609 70.1458 18.4609C70.1443 18.8716 70.4771 19.205 70.8872 19.2034H76.7908C77.2009 19.205 77.5337 18.8716 77.5322 18.4609V6.63135C77.5345 6.22008 77.2015 5.88583 76.7908 5.8874H70.8872C70.4925 5.8862 70.1666 6.19606 70.1472 6.59091L59.1607 5.19401C58.9172 5.16262 58.6833 5.14815 58.4583 5.14923ZM58.4857 6.63713C58.6399 6.63602 58.8022 6.64298 58.9761 6.65736L70.1458 8.08315V16.9802C69.715 16.9802 69.3987 17.0993 68.9198 17.2432C67.4212 17.7231 65.3188 18.4376 64.9778 18.4609H59.0684C58.6465 18.4609 58.3328 18.1467 58.3328 17.7242C58.3328 17.3017 58.6465 16.9802 59.0684 16.9802H63.5008C63.9088 16.9819 64.2408 16.6521 64.2422 16.2435C64.2438 15.8328 63.911 15.4994 63.5008 15.501H62.7652V11.0676C62.7652 9.85117 61.76 8.84588 60.5454 8.84588H54.3605C54.7959 8.48371 55.2493 8.11831 55.738 7.74945C56.7539 7.02941 57.4066 6.64488 58.4857 6.63713ZM71.6228 7.36808H76.0552V17.7242H71.6228V7.36808ZM35.4367 10.3251H36.9166C36.9166 11.5579 35.9313 12.546 34.7011 12.5483V11.0676C34.7011 10.6451 35.0148 10.3251 35.4367 10.3251ZM38.3935 10.3251C45.5874 10.3289 51.0422 10.3251 57.5914 10.3251C57.5914 12.3588 59.2562 14.0275 61.2868 14.0275V15.501H59.0684C57.8538 15.501 56.8558 16.5078 56.8558 17.7242C56.8558 18.9406 57.8538 19.9402 59.0684 19.9402H61.2868V21.4194C59.2562 21.4194 57.5914 23.0882 57.5914 25.1218H38.3935C38.3935 23.0897 36.7296 21.4218 34.7011 21.4194V14.0275C36.7296 14.0252 38.3935 12.3573 38.3935 10.3251ZM59.0684 10.3251H60.5454C60.9673 10.3251 61.2868 10.6451 61.2868 11.0676V12.5483C60.0545 12.5483 59.0684 11.5593 59.0684 10.3251ZM47.991 13.2865C45.5527 13.2865 43.5587 15.2821 43.5587 17.7242C43.5587 20.1663 45.5527 22.1619 47.991 22.1619C50.4295 22.1619 52.4234 20.1663 52.4234 17.7242C52.4234 15.2821 50.4295 13.2865 47.991 13.2865ZM47.991 14.7657C49.6312 14.7657 50.945 16.0816 50.945 17.7242C50.945 19.3668 49.6312 20.6827 47.991 20.6827C46.3509 20.6827 45.0356 19.3668 45.0356 17.7242C45.0356 16.0816 46.3509 14.7657 47.991 14.7657ZM73.8397 14.7657C73.4319 14.7657 73.1012 15.0954 73.1012 15.5039C73.1012 15.9124 73.4319 16.2435 73.8397 16.2435C74.2476 16.2435 74.5782 15.9124 74.5782 15.5039C74.5782 15.0954 74.2476 14.7657 73.8397 14.7657ZM34.7011 22.8986C35.9313 22.901 36.9166 23.8891 36.9166 25.1218H35.4367C35.0148 25.1218 34.7011 24.8019 34.7011 24.3793V22.8986ZM61.2868 22.8986V24.3793C61.2868 24.8019 60.9673 25.1218 60.5454 25.1218H59.0684C59.0684 23.8876 60.0545 22.8986 61.2868 22.8986Z" fill="white"/>
<path d="M24.9409 54.5432C22.354 54.5493 19.6481 54.5449 17.6195 54.5432C16.1322 54.4672 13.1079 56.6781 11.7274 56.762H10.9918C10.9902 56.353 10.6574 56.0229 10.249 56.0253H4.33962C3.93403 56.0269 3.60563 56.3558 3.60401 56.762V68.5931C3.60245 69.0015 3.93177 69.3339 4.33962 69.3356H10.249C10.6597 69.3379 10.9934 69.0043 10.9918 68.5931H11.7274C15.2406 68.7677 18.486 69.3156 22.0692 69.3356C23.3185 69.3356 24.7473 68.6494 26.4194 67.709C28.0914 66.7685 29.9394 65.5308 31.6681 64.2969C33.8756 62.7251 36.0325 61.0623 38.1227 59.355C39.0284 58.5745 39.6485 57.445 39.2189 56.112C38.9931 55.3899 38.3937 54.9003 37.7737 54.7093C37.1536 54.5183 36.5052 54.5538 35.8986 54.7252L27.5199 57.0741C27.4889 55.6797 26.3424 54.5398 24.9409 54.5432ZM24.9409 58.2398H19.1152C18.7074 58.2382 18.3754 58.5681 18.3738 58.9766C18.3722 59.3873 18.7051 59.7207 19.1152 59.7191H24.9409C25.7296 59.7191 26.4315 59.3504 26.9069 58.7859L36.2967 56.151C37.0264 55.9504 37.6732 56.0888 37.8069 56.554C37.9849 57.1967 37.7976 57.6783 37.1578 58.2333C37.1466 58.2447 34.207 60.6683 30.8071 63.095C29.1038 64.3108 27.2882 65.5237 25.6939 66.4205C24.0995 67.3171 22.6663 67.8563 22.0692 67.8563C18.4828 67.7554 15.0295 67.3044 11.7274 67.1196H10.9918V58.2413H11.7274C13.3467 58.2606 16.403 56.0713 17.6195 56.0224C19.6561 56.0243 22.3568 56.0285 24.9409 56.0224C25.5658 56.0209 26.0487 56.5047 26.0487 57.1304C26.0426 57.8397 25.4684 58.2462 24.9409 58.2398ZM5.08244 57.4988H9.51339V67.8563H5.08244V57.4988ZM7.29647 58.9809C6.88861 58.9809 6.55798 59.312 6.55798 59.7205C6.55798 60.129 6.88861 60.4601 7.29647 60.4601C7.70433 60.4601 8.03496 60.129 8.03496 59.7205C8.03496 59.312 7.70433 58.9809 7.29647 58.9809Z" fill="white"/>
<path d="M36.8001 45.7774C36.8159 45.6659 36.8274 45.5528 36.8274 45.4371C36.8274 44.4363 36.2055 43.5776 35.3177 43.2061C35.323 43.141 35.3279 43.0757 35.3279 43.0094C35.3279 41.6684 34.2121 40.5816 32.8354 40.5816C32.6112 40.5816 32.3952 40.6132 32.1884 40.6671C31.7676 39.9058 30.9421 39.3882 29.9924 39.3882C29.0216 39.3882 28.1824 39.9301 27.771 40.7192C27.5463 40.6328 27.3029 40.5816 27.0464 40.5816C26.2016 40.5816 25.4856 41.0999 25.2023 41.8258C25.1679 41.8241 25.1356 41.8158 25.1007 41.8158C24.0085 41.8158 23.1229 42.6785 23.1229 43.7425C23.1229 43.7949 23.1345 43.844 23.1386 43.8952C22.253 44.3272 21.6436 45.217 21.6436 46.2471C21.6436 46.7918 21.8134 47.2976 22.1043 47.7173C22.2283 48.7574 22.9097 49.6294 23.8491 50.0479C23.9286 49.9228 24.0128 49.8163 24.1003 49.7261C23.2488 49.3818 22.6177 48.6126 22.5056 47.6718L22.4944 47.5764L22.4394 47.4969C22.1831 47.1273 22.0477 46.695 22.0477 46.2471C22.0477 45.3962 22.535 44.6299 23.3196 44.2473L23.5628 44.1287L23.5415 43.8645C23.539 43.8368 23.5355 43.8095 23.5318 43.7822C23.5298 43.769 23.5272 43.7557 23.5268 43.7425C23.5268 42.9003 24.228 42.2144 25.0916 42.2096L25.1011 42.2108C25.1275 42.2144 25.154 42.2177 25.1815 42.2191L25.4754 42.2339L25.58 41.9658C25.8151 41.3642 26.3906 40.9752 27.0464 40.9752C27.2387 40.9752 27.4325 41.0123 27.6225 41.0855L27.9649 41.2173L28.1316 40.8977C28.4903 40.2096 29.2035 39.7821 29.9926 39.7821C30.762 39.7821 31.4672 40.1929 31.8325 40.8541L31.9842 41.1286L32.2934 41.0475C32.4763 40.9997 32.6589 40.9754 32.8356 40.9754C33.9871 40.9754 34.924 41.888 34.924 43.0096C34.924 43.0625 34.9196 43.1178 34.915 43.1748L34.8919 43.4564L35.1584 43.5678C35.9268 43.8896 36.4233 44.6234 36.4233 45.4371C36.4233 45.5212 36.4159 45.612 36.3998 45.7226L36.3663 45.9545L36.5598 46.094C36.9122 46.3483 37.1146 46.7347 37.1146 47.1539C37.1146 47.5951 36.8893 48.0061 36.512 48.2528L36.3815 48.3382L36.3443 48.4873C36.0492 49.6802 34.9635 50.5133 33.7043 50.5133C33.671 50.5133 33.6382 50.5087 33.605 50.5075C33.6985 50.5942 33.8006 50.6349 33.9331 50.6349C33.944 50.6349 33.9557 50.6344 33.967 50.6341L35.0951 50.5858C35.9079 50.1898 36.5194 49.4605 36.7374 48.5796C37.208 48.2712 37.5183 47.7482 37.5183 47.1538C37.5183 46.5878 37.2338 46.0901 36.8001 45.7774ZM32.3075 48.9665C34.2146 47.6238 34.4949 46.6322 34.268 45.7499C33.1094 47.3972 30.6396 46.8163 29.3991 48.1058C29.3959 48.1063 29.3931 48.1058 29.3899 48.1063C29.1169 47.0512 28.1392 46.7148 27.2145 46.1334C26.7275 45.8272 26.4164 45.0883 25.9091 44.8704C25.9091 44.8704 25.006 47.3331 26.8635 48.6399C26.0208 49.9969 24.9028 49.1089 24.1805 50.2735C24.6749 50.4918 25.1974 50.6176 25.7581 50.6176C26.5838 50.6176 27.4922 50.3449 28.5147 49.6955L28.636 49.6931C28.4387 50.209 28.1441 50.7037 27.8379 51.215C27.3459 52.0366 26.8371 52.886 26.7251 53.8868C26.6887 54.2111 26.9291 54.5025 27.2618 54.5378C27.2842 54.5403 27.3063 54.5414 27.3285 54.5414C27.6335 54.5414 27.8964 54.3175 27.9303 54.0148C28.0144 53.264 28.4371 52.558 28.8847 51.8103C29.2871 51.1385 29.6968 50.4485 29.9198 49.6603C29.9889 49.6486 30.0559 49.6431 30.1216 49.6431C31.2921 49.6431 31.9232 51.3847 33.0559 51.3847C33.3309 51.3847 33.6353 51.282 33.9844 51.0274C33.9666 51.028 33.9495 51.0284 33.9326 51.0284C33.0019 51.0284 32.9409 49.9127 32.3075 48.9665ZM32.2415 45.713C32.1579 45.7851 32.1502 45.9095 32.2241 45.9908C32.2643 46.0348 32.3197 46.0571 32.3754 46.0571C32.4232 46.0571 32.471 46.041 32.5093 46.0075C32.8728 45.6941 33.0811 45.2455 33.0811 44.7766C33.0811 44.0681 32.6204 43.4516 31.9427 43.2276C31.8863 42.6319 31.3705 42.1641 30.7446 42.1641C30.4186 42.1641 30.1115 42.2902 29.8804 42.5194C29.8021 42.5969 29.8032 42.7216 29.8827 42.7977C29.9538 42.8658 30.0616 42.8689 30.1397 42.8146C30.1494 42.8079 30.16 42.8039 30.1685 42.7957C30.3233 42.6422 30.528 42.5579 30.7447 42.5579C31.1853 42.5579 31.5438 42.9073 31.5446 43.3394C31.5244 43.4427 31.5912 43.5434 31.6962 43.5679C32.2735 43.7023 32.677 44.1993 32.677 44.7768C32.677 45.1261 32.5238 45.4606 32.2567 45.6985C32.2516 45.7032 32.247 45.7085 32.2415 45.713Z" fill="white"/>
<path fill-rule="evenodd" clip-rule="evenodd" d="M51.2235 5.13729C46.6152 2.81389 41.4078 1.50537 35.8947 1.50537C17.0647 1.50537 1.80005 16.7701 1.80005 35.6C1.80005 42.2634 3.71158 48.4803 7.01619 53.7324L5.89308 53.818C2.6614 48.5075 0.800049 42.2711 0.800049 35.6C0.800049 16.2178 16.5125 0.505371 35.8947 0.505371C41.1964 0.505371 46.2234 1.68097 50.7295 3.7857C50.8857 4.21123 51.0509 4.6632 51.2235 5.13729Z" fill="white"/>
<path fill-rule="evenodd" clip-rule="evenodd" d="M35.2204 69.1418C36.5084 69.1355 37.809 69.0583 39.1182 68.9071C58.3724 66.6825 72.1776 49.2706 69.9531 30.0164C69.7871 28.5796 69.5365 27.1731 69.2069 25.8014L68.3888 26.707C68.634 27.8263 68.8253 28.9685 68.9597 30.1312C71.1208 48.8367 57.709 65.7525 39.0035 67.9137C37.5639 68.08 36.135 68.1541 34.7226 68.1406C34.8844 68.468 35.0505 68.802 35.2204 69.1418Z" fill="white"/>
<defs>
<filter id="filter0_f_86_1476" x="41.6948" y="19.2246" width="71.5474" height="71.5474" filterUnits="userSpaceOnUse" color-interpolation-filters="sRGB">
<feFlood flood-opacity="0" result="BackgroundImageFix"/>
<feBlend mode="normal" in="SourceGraphic" in2="BackgroundImageFix" result="shape"/>
<feGaussianBlur stdDeviation="5" result="effect1_foregroundBlur_86_1476"/>
</filter>
</defs>
</svg>
