<svg width="361" height="19" viewBox="0 0 361 19" fill="none" xmlns="http://www.w3.org/2000/svg">
<path d="M13.9773 13.8303L14.3842 14.2329L13.9765 13.8303H13.9773ZM4.28127 12.1987L4.68739 11.7961L4.2805 12.1987H4.28127ZM1.10772 4.1829L0.701606 3.78105L1.10849 4.18366L1.10772 4.1829ZM10.2899 11.566L10.6414 11.2232L9.8269 10.418L9.47771 10.7608L10.2899 11.566ZM11.8175 11.0794L13.2873 11.8657L13.8373 10.8683L12.3682 10.0827L11.8175 11.0794ZM13.5696 13.4277L12.4774 14.497L13.2904 15.3015L14.3826 14.2329L13.5696 13.4277ZM11.8113 14.8406C10.6961 14.9435 7.81171 14.8519 4.68739 11.7961L3.87362 12.6005C7.28253 15.9356 10.5276 16.0991 11.919 15.9712L11.8106 14.8406H11.8113ZM4.68739 11.7961C1.70997 8.88248 1.21617 6.4328 1.15464 5.36953L0.00244086 5.43385C0.0793567 6.77183 0.690838 9.48715 3.87362 12.6005L4.68739 11.7961ZM5.74498 7.11919L5.96573 6.90276L5.1535 6.0983L4.93275 6.31398L5.74575 7.11844L5.74498 7.11919ZM6.1411 4.15187L5.17196 2.87746L4.2482 3.55856L5.21734 4.83221L6.1411 4.15187ZM1.90995 2.59972L0.702375 3.7803L1.51614 4.58551L2.72295 3.40493L1.90995 2.59972ZM5.33886 6.71659C4.93121 6.31398 4.93121 6.31398 4.93121 6.3155H4.92967L4.92736 6.31852C4.89105 6.35499 4.85834 6.39478 4.82968 6.43734C4.78815 6.49788 4.74277 6.57734 4.70431 6.67799C4.61065 6.93781 4.58732 7.21713 4.63662 7.4885C4.73969 8.14311 5.19811 9.00811 6.37184 10.1569L7.18561 9.35168C6.08648 8.27706 5.82497 7.62321 5.77651 7.31444C5.75344 7.16763 5.77728 7.09498 5.78421 7.07833C5.78805 7.06773 5.78959 7.06698 5.78421 7.07379C5.77742 7.08428 5.7697 7.09416 5.76113 7.1033L5.75344 7.11087C5.75095 7.11322 5.74839 7.11549 5.74575 7.11768L5.33809 6.71659H5.33886ZM6.37184 10.1569C7.54635 11.3057 8.43011 11.7537 9.0962 11.8536C9.43694 11.905 9.71153 11.8642 9.91997 11.7877C10.0365 11.7453 10.1456 11.685 10.243 11.6091C10.2563 11.5983 10.2691 11.5869 10.2815 11.5751L10.2869 11.5706L10.2892 11.5683L10.2899 11.5668C10.2899 11.5668 10.2907 11.566 9.88382 11.1634C9.47617 10.7608 9.47847 10.76 9.47847 10.76L9.48001 10.7585L9.48155 10.757L9.48617 10.7532L9.49386 10.7457C9.5031 10.7375 9.51287 10.7299 9.52308 10.723C9.53078 10.7177 9.52847 10.7199 9.5177 10.7245C9.49847 10.7313 9.42309 10.7547 9.27157 10.732C8.95314 10.6836 8.28397 10.4263 7.18561 9.35168L6.37184 10.1569ZM5.17196 2.8767C4.38741 1.84749 2.84602 1.68402 1.90995 2.59972L2.72295 3.40493C3.13215 3.0046 3.85823 3.04622 4.2482 3.55856L5.17119 2.8767H5.17196ZM1.15541 5.37028C1.14003 5.10844 1.26232 4.83449 1.51614 4.58626L0.701606 3.78105C0.288568 4.18517 -0.0367862 4.75729 0.00244086 5.43385L1.15541 5.37028ZM12.4774 14.497C12.2667 14.7044 12.039 14.8209 11.8121 14.8413L11.919 15.9712C12.4843 15.919 12.9466 15.639 13.2912 15.3022L12.4774 14.497ZM5.96573 6.90276C6.72335 6.16187 6.7795 4.99114 6.14186 4.15263L5.21811 4.83297C5.52808 5.24087 5.48193 5.77591 5.15273 6.09906L5.96573 6.90276ZM13.2881 11.8665C13.9165 12.2025 14.0142 12.994 13.5704 13.4284L14.3842 14.2329C15.4148 13.2241 15.0972 11.5418 13.8381 10.869L13.2881 11.8665ZM10.6414 11.2239C10.9368 10.9349 11.4121 10.8637 11.8183 11.0802L12.369 10.0835C11.5352 9.63699 10.5015 9.76034 9.82767 10.4187L10.6414 11.2239Z" fill="white"/>
<path d="M178.558 3.25H166.442C165.232 3.25 164.25 4.23152 164.25 5.44229V14.096C164.25 15.3068 165.232 16.2883 166.442 16.2883H178.558C179.768 16.2883 180.75 15.3068 180.75 14.096V5.44229C180.75 4.23152 179.768 3.25 178.558 3.25Z" stroke="white" stroke-width="1.5" stroke-linecap="round" stroke-linejoin="round"/>
<path d="M167.309 6.30774L172.501 10.3461L177.693 6.30774" stroke="white" stroke-width="1.5" stroke-linecap="round" stroke-linejoin="round"/>
<path d="M353 1C354.857 1 356.637 1.73713 357.95 3.04922C359.263 4.36131 360 6.14088 360 7.99646C360 10.9529 357.922 14.1749 353.818 17.6968C353.59 17.8927 353.299 18.0003 352.999 18C352.698 17.9997 352.407 17.8916 352.179 17.6954L351.908 17.46C347.987 14.0299 346 10.8869 346 7.99646C346 6.14088 346.737 4.36131 348.05 3.04922C349.363 1.73713 351.143 1 353 1ZM353 2.07638C351.429 2.07638 349.923 2.7001 348.812 3.81033C347.701 4.92056 347.077 6.42636 347.077 7.99646C347.077 10.5094 348.906 13.4049 352.615 16.6484L352.883 16.8802C352.916 16.9082 352.957 16.9235 353 16.9235C353.043 16.9235 353.084 16.9082 353.117 16.8802C357.005 13.542 358.923 10.569 358.923 7.99646C358.923 7.21902 358.77 6.4492 358.472 5.73094C358.175 5.01269 357.738 4.36006 357.188 3.81033C356.638 3.2606 355.985 2.82453 355.267 2.52702C354.548 2.22951 353.778 2.07638 353 2.07638ZM353 5.30551C353.714 5.30551 354.399 5.58902 354.904 6.09367C355.409 6.59832 355.692 7.28278 355.692 7.99646C355.692 8.71014 355.409 9.3946 354.904 9.89925C354.399 10.4039 353.714 10.6874 353 10.6874C352.286 10.6874 351.601 10.4039 351.096 9.89925C350.591 9.3946 350.308 8.71014 350.308 7.99646C350.308 7.28278 350.591 6.59832 351.096 6.09367C351.601 5.58902 352.286 5.30551 353 5.30551ZM353 6.38189C352.572 6.38189 352.161 6.552 351.858 6.85479C351.555 7.15758 351.385 7.56825 351.385 7.99646C351.385 8.42467 351.555 8.83534 351.858 9.13813C352.161 9.44092 352.572 9.61103 353 9.61103C353.428 9.61103 353.839 9.44092 354.142 9.13813C354.445 8.83534 354.615 8.42467 354.615 7.99646C354.615 7.56825 354.445 7.15758 354.142 6.85479C353.839 6.552 353.428 6.38189 353 6.38189Z" fill="white" stroke="white" stroke-width="0.2"/>
</svg>
