<svg width="148" height="123" viewBox="0 0 148 123" fill="none" xmlns="http://www.w3.org/2000/svg">
<path fill-rule="evenodd" clip-rule="evenodd" d="M121.521 79.568V111.181C121.521 111.713 121.255 111.979 120.723 111.979C120.191 111.979 119.925 111.713 119.925 111.181V76.6691C119.925 75.7028 120.312 75.0016 121.085 74.5654C121.333 74.4009 121.612 74.2901 121.906 74.2402C122.199 74.1903 122.5 74.2023 122.788 74.2756C123.393 74.4234 123.923 74.7886 124.276 75.3017L146.246 106.625V75.0016C146.246 74.468 146.487 74.2037 146.969 74.2037C147.503 74.2037 147.767 74.4603 147.767 75.0016V109.729C147.767 110.55 147.381 111.203 146.608 111.687C146.076 111.977 145.455 112.054 144.868 111.902C144.569 111.839 144.286 111.715 144.037 111.538C143.787 111.362 143.576 111.137 143.416 110.876L121.521 79.568ZM99.6226 78.9164L92.7345 97.695H106.439L99.6226 78.9164ZM103.537 75.8661L115.502 108.783L115.574 108.857C115.635 109.118 115.659 109.387 115.646 109.655C115.65 109.956 115.595 110.255 115.483 110.535C115.371 110.814 115.205 111.069 114.994 111.284C114.782 111.511 114.523 111.69 114.235 111.809C113.948 111.928 113.638 111.984 113.327 111.974C112.821 111.982 112.327 111.829 111.913 111.538C111.51 111.259 111.216 110.849 111.08 110.378L107.019 99.2112H92.1547L87.7371 111.471C87.6994 111.63 87.6052 111.77 87.472 111.864C87.3389 111.958 87.176 112.001 87.0137 111.984C86.4801 111.984 86.2159 111.728 86.2159 111.186C86.2127 111.147 86.2173 111.108 86.2297 111.07C86.242 111.033 86.2617 110.998 86.2877 110.968V110.897L99.048 76.0226C99.1374 75.5014 99.4228 75.0342 99.8458 74.7168C100.257 74.3847 100.769 74.2035 101.298 74.2037C101.797 74.1928 102.284 74.3591 102.673 74.6732C103.049 74.9735 103.347 75.3597 103.543 75.7994L103.537 75.8661ZM81.0671 111.979C81.0799 113.462 80.7837 114.932 80.1974 116.294C79.072 118.928 76.9661 121.021 74.3253 122.13C72.97 122.711 71.5102 123.007 70.0359 123C69.5058 123 69.2398 122.734 69.2381 122.202C69.2364 121.67 69.5023 121.404 70.0359 121.404C70.9103 121.404 71.7661 121.152 72.5013 120.678C73.3097 120.16 73.991 119.467 74.4946 118.649C75.083 117.711 75.5364 116.694 75.8414 115.63C76.1893 114.441 76.3622 113.208 76.3545 111.969V76.5972C76.3489 76.2814 76.407 75.9677 76.5254 75.6747C76.6437 75.3818 76.8198 75.1158 77.0431 74.8924C77.2665 74.669 77.5326 74.4929 77.8255 74.3746C78.1184 74.2563 78.4322 74.1982 78.748 74.2037C79.059 74.1939 79.3685 74.2503 79.656 74.3693C79.9435 74.4883 80.2024 74.6671 80.4155 74.8938C80.8497 75.3529 81.0841 75.9655 81.0671 76.5972V111.979ZM44.8951 79.568V111.181C44.8951 111.713 44.6292 111.979 44.0973 111.979C43.5654 111.979 43.2994 111.713 43.2994 111.181V76.6691C43.2994 75.7028 43.6859 75.0016 44.459 74.5654C44.7074 74.4008 44.9875 74.29 45.2813 74.2401C45.5751 74.1902 45.8761 74.2022 46.165 74.2756C46.7691 74.4241 47.2976 74.7893 47.6503 75.3017L69.6178 106.625V75.0016C69.6178 74.468 69.8615 74.2037 70.3438 74.2037C70.8748 74.2037 71.1416 74.4603 71.1416 75.0016V109.729C71.1416 110.55 70.7551 111.203 69.9821 111.687C69.4497 111.977 68.8271 112.054 68.2402 111.902C67.9415 111.839 67.659 111.715 67.4098 111.538C67.1606 111.362 66.9499 111.137 66.7907 110.876L44.8951 79.568ZM33.4381 76.5972C33.4303 76.2812 33.4876 75.9669 33.6063 75.6739C33.725 75.3809 33.9026 75.1154 34.1282 74.8938C34.3382 74.673 34.5915 74.4978 34.8722 74.3791C35.1529 74.2604 35.455 74.2007 35.7597 74.2037C36.0754 74.1985 36.3888 74.2569 36.6814 74.3754C36.9741 74.4938 37.2398 74.67 37.4629 74.8933C37.686 75.1167 37.8619 75.3826 37.98 75.6754C38.0982 75.9681 38.1562 76.2816 38.1507 76.5972V109.66C38.1535 109.964 38.094 110.266 37.9758 110.546C37.8575 110.826 37.683 111.079 37.4632 111.289C37.2416 111.515 36.9761 111.692 36.6831 111.811C36.3901 111.93 36.0758 111.987 35.7597 111.979C35.1513 111.967 34.5712 111.719 34.1409 111.289C33.7106 110.859 33.4633 110.279 33.4509 109.67L33.4381 76.5972ZM9.80311 110.383C11.7213 110.387 13.6119 109.927 15.3136 109.042C17.0644 108.138 18.6075 106.879 19.8441 105.345C21.1626 103.706 22.1923 101.855 22.8892 99.8705C23.653 97.7056 24.0332 95.4241 24.0128 93.1286C24.0211 90.8321 23.6368 88.5511 22.8764 86.3842C22.1957 84.3815 21.1646 82.5157 19.8312 80.8737C18.5812 79.3532 17.0412 78.0966 15.3007 77.177C13.6057 76.2703 11.7126 75.797 9.79029 75.7994H4.71337V110.383H9.80311ZM0.000750794 76.5972C-0.00730622 76.2814 0.0495564 75.9672 0.167817 75.6742C0.286077 75.3812 0.463216 75.1156 0.688274 74.8938C0.898544 74.6733 1.15185 74.4982 1.43249 74.3795C1.71314 74.2608 2.01516 74.201 2.31987 74.2037H9.79029V74.2756C12.3192 74.2589 14.8242 74.7655 17.1478 75.7635C19.3876 76.7166 21.429 78.081 23.1662 79.786C24.8957 81.4974 26.2751 83.5295 27.2273 85.7685C28.2069 88.0982 28.7115 90.6 28.7115 93.1273C28.7115 95.6546 28.2069 98.1565 27.2273 100.486C26.2757 102.726 24.8962 104.758 23.1662 106.469C21.4289 108.176 19.3877 109.542 17.1478 110.499C14.8236 111.495 12.3189 112.001 9.79029 111.984H2.3096C1.70076 111.973 1.11997 111.726 0.689374 111.296C0.258781 110.865 0.0119372 110.284 0.000750794 109.675V76.5972Z" fill="#F1F1F1"/>
<path fill-rule="evenodd" clip-rule="evenodd" d="M49.0947 3.68896L94.0122 49.0194C92.4062 52.7546 86.9548 54.7993 82.8861 55.6125L49.0947 22.3137V3.68896Z" fill="#FEFEFE"/>
<path fill-rule="evenodd" clip-rule="evenodd" d="M49.0947 39.5991L66.5497 56.7282H49.0947V39.5991Z" fill="#FEFEFE"/>
<path fill-rule="evenodd" clip-rule="evenodd" d="M101.154 38.0472L66.9727 3.89926C78.7093 0.805398 107.367 7.26761 101.154 38.0472Z" fill="#FEFEFE"/>
<path fill-rule="evenodd" clip-rule="evenodd" d="M45.5 0.5L63.0635 0L82.7965 19.7099L96.9882 33.8837C96.8138 37.8421 94.2124 42.6266 90.2489 45.2202L45.5 0.5Z" fill="#F1F1F1"/>
<path fill-rule="evenodd" clip-rule="evenodd" d="M52.8604 26.0254L86.4995 58.9995C81.1584 59.7101 75.6154 60.5094 69.6252 59.7603L52.8655 43.3033L52.8604 26.0254Z" fill="#F1F1F1"/>
</svg>
