<svg width="25" height="25" viewBox="0 0 25 25" fill="none" xmlns="http://www.w3.org/2000/svg">
<circle cx="12.3234" cy="12.3234" r="11.8234" stroke="white"/>
<path d="M18.3142 16.4089L16.5768 18.1325C16.3203 18.3955 15.9804 18.4846 15.6493 18.485C14.1852 18.4411 12.8012 17.7219 11.6649 16.9834C9.79976 15.6265 8.0884 13.944 7.01431 11.9108C6.60236 11.0582 6.119 9.97034 6.16518 9.01868C6.1693 8.66069 6.26577 8.30934 6.5179 8.07858L8.25535 6.342C8.61613 6.03512 8.96504 6.14122 9.19592 6.49868L10.5937 9.14926C10.7408 9.46326 10.6564 9.79971 10.4369 10.0241L9.79682 10.6639C9.7573 10.718 9.73214 10.7796 9.7315 10.8467C9.97696 11.7968 10.7206 12.6726 11.3775 13.2753C12.0344 13.878 12.7405 14.6945 13.6571 14.8878C13.7704 14.9194 13.9092 14.9305 13.9902 14.8551L14.7348 14.0978C14.9915 13.9033 15.3622 13.8082 15.6362 13.9673H15.6493L18.1705 15.4558C18.5407 15.6878 18.5792 16.1361 18.3142 16.4089Z" fill="white"/>
</svg>
