<svg width="28" height="27" viewBox="0 0 28 27" fill="none" xmlns="http://www.w3.org/2000/svg">
<path fill-rule="evenodd" clip-rule="evenodd" d="M10.7749 20.8772C9.12475 20.8772 7.84961 22.1523 7.84961 23.8025C7.84961 25.3777 9.12475 26.7278 10.7749 26.7278C12.3501 26.7278 13.6252 25.3777 13.6252 23.8025C13.6252 22.1523 12.3501 20.8772 10.7749 20.8772ZM10.7749 25.4527C9.79982 25.4527 9.04974 24.7026 9.04974 23.8025C9.04974 22.8274 9.79982 22.0773 10.7749 22.0773C11.675 22.0773 12.4251 22.8274 12.4251 23.8025C12.4251 24.7026 11.675 25.4527 10.7749 25.4527Z" fill="#4D4D4D" stroke="#4D4D4D" stroke-width="0.2"/>
<path fill-rule="evenodd" clip-rule="evenodd" d="M26.6017 4.97543H6.12446C5.5994 2.42516 3.42417 1 0.948896 1C0.123806 1 0.123806 2.20013 0.948896 2.20013C2.89911 2.20013 4.54929 3.47527 4.92433 5.42548L6.94955 17.2018C7.24958 18.927 8.74975 20.2021 10.4749 20.2021H22.7013C23.5264 20.2021 23.5264 18.927 22.7013 18.927H10.4749C9.34981 19.002 8.2997 18.1769 8.14968 17.0517L7.99966 16.2267H21.5011C23.1513 16.2267 24.6515 15.1015 25.0265 13.4514L27.2018 5.87553C27.2768 5.42548 26.9767 5.05044 26.6017 4.97543ZM23.9014 13.2263C23.6014 14.2764 22.6263 15.0265 21.5011 15.0265H7.77464C7.24958 11.8762 6.72452 9.02587 6.27448 6.17556H25.7766C25.1765 8.50082 24.5765 10.601 23.9014 13.2263Z" fill="#4D4D4D" stroke="#4D4D4D" stroke-width="0.2"/>
<path fill-rule="evenodd" clip-rule="evenodd" d="M19.2509 20.8772C17.6758 20.8772 16.4006 22.1523 16.4006 23.8025C16.4006 25.3777 17.6758 26.7278 19.2509 26.7278C20.9011 26.7278 22.1763 25.3777 22.1763 23.8025C22.1763 22.1523 20.9011 20.8772 19.2509 20.8772ZM19.2509 25.4527C18.3508 25.4527 17.6008 24.7026 17.6008 23.8025C17.6008 22.8274 18.3508 22.0773 19.2509 22.0773C20.2261 22.0773 20.9761 22.8274 20.9761 23.8025C20.9761 24.7026 20.2261 25.4527 19.2509 25.4527Z" fill="#4D4D4D" stroke="#4D4D4D" stroke-width="0.2"/>
</svg>
