<svg width="59" height="31" viewBox="0 0 59 31" fill="none" xmlns="http://www.w3.org/2000/svg">
<path d="M56.622 29.6645C56.3378 29.6651 56.0627 29.5639 55.8466 29.3793L39.5399 15.5089L35.2987 20.2426C35.0913 20.4747 34.8018 20.617 34.4913 20.6393C34.1809 20.6617 33.8739 20.5624 33.6353 20.3625L22.4027 10.9274L19.0471 15.2357C18.855 15.4829 18.5738 15.6452 18.2636 15.6877C17.9534 15.7303 17.6389 15.6498 17.3873 15.4634L0.507753 2.94121C0.37717 2.84913 0.266321 2.73185 0.181727 2.5963C0.0971325 2.46074 0.0405009 2.30964 0.0151631 2.15187C-0.0101747 1.99411 -0.00370691 1.83287 0.0341859 1.67764C0.0720788 1.52241 0.140632 1.37633 0.235812 1.24798C0.330992 1.11963 0.450878 1.01162 0.588417 0.930288C0.725956 0.848956 0.87837 0.79595 1.0367 0.774389C1.19502 0.752827 1.35606 0.763145 1.51034 0.804735C1.66462 0.846326 1.80902 0.918349 1.93506 1.01657L17.8739 12.8341L21.2654 8.47426C21.3643 8.34693 21.4878 8.24086 21.6287 8.16241C21.7695 8.08395 21.9248 8.03472 22.0851 8.01767C22.2452 8.00157 22.407 8.01755 22.5609 8.06467C22.7148 8.11179 22.8578 8.18911 22.9815 8.2921L34.2825 17.7787L38.5285 13.0402C38.7371 12.8074 39.0284 12.6654 39.3402 12.6443C39.6521 12.6233 39.9598 12.7249 40.1978 12.9275L57.3962 27.5529C57.5831 27.7118 57.7168 27.9242 57.7792 28.1615C57.8415 28.3988 57.8296 28.6495 57.7449 28.8797C57.6602 29.11 57.5069 29.3087 57.3057 29.4491C57.1044 29.5894 56.865 29.6646 56.6196 29.6645H56.622Z" fill="#575757"/>
<path d="M57.1805 30.3561H49.1032C48.7854 30.3561 48.4805 30.2298 48.2558 30.0051C48.031 29.7803 47.9048 29.4755 47.9048 29.1577C47.9048 28.8398 48.031 28.535 48.2558 28.3103C48.4805 28.0855 48.7854 27.9593 49.1032 27.9593H55.8071L54.9682 21.8234C54.947 21.6674 54.9568 21.5087 54.997 21.3564C55.0371 21.2042 55.1069 21.0613 55.2022 20.936C55.2976 20.8107 55.4167 20.7054 55.5528 20.6262C55.6889 20.5469 55.8392 20.4952 55.9952 20.474C56.1513 20.4529 56.31 20.4626 56.4622 20.5028C56.6145 20.5429 56.7573 20.6127 56.8826 20.7081C57.1357 20.9007 57.3019 21.1859 57.3446 21.5011L58.3633 28.9959C58.3864 29.1654 58.3729 29.3379 58.3238 29.5017C58.2747 29.6656 58.1911 29.817 58.0786 29.9459C57.9661 30.0747 57.8273 30.178 57.6716 30.2488C57.5158 30.3195 57.3467 30.3561 57.1757 30.3561H57.1805Z" fill="#575757"/>
</svg>
