<svg width="114" height="102" viewBox="0 0 114 102" fill="none" xmlns="http://www.w3.org/2000/svg">
<g filter="url(#filter0_f_86_1426)">
<circle cx="77.3313" cy="65.9983" r="25.7737" fill="#393939"/>
</g>
<path d="M12.3731 12.9411C12.184 12.9411 12.0027 12.866 11.869 12.7323C11.7353 12.5986 11.6602 12.4173 11.6602 12.2282C11.6602 12.0391 11.7353 11.8578 11.869 11.7241C12.0027 11.5904 12.184 11.5153 12.3731 11.5153C12.6886 11.4975 12.9953 11.4041 13.267 11.2427C13.5388 11.0814 13.7677 10.857 13.9344 10.5885C14.033 10.4258 14.103 10.2473 14.1411 10.0609C14.1752 9.87182 14.2829 9.70401 14.4407 9.59438C14.5985 9.48474 14.7933 9.44227 14.9824 9.4763C15.1715 9.51034 15.3393 9.61809 15.4489 9.77586C15.5586 9.93362 15.601 10.1285 15.567 10.3176C15.5037 10.674 15.373 11.0152 15.182 11.3228C14.8935 11.7933 14.4948 12.1865 14.0203 12.4685C13.5458 12.7504 13.0098 12.9126 12.4586 12.9411H12.3731Z" fill="white"/>
<path d="M15.2822 10.9378C14.4893 10.9356 13.7168 10.6864 13.0721 10.2249C12.9958 10.1706 12.9309 10.1018 12.8812 10.0224C12.8315 9.94303 12.7979 9.85465 12.7824 9.76229C12.7668 9.66994 12.7696 9.57543 12.7906 9.48416C12.8115 9.39288 12.8503 9.30663 12.9046 9.23033C12.9589 9.15403 13.0277 9.08916 13.107 9.03945C13.1864 8.98974 13.2748 8.95614 13.3671 8.94058C13.4595 8.92503 13.554 8.92781 13.6453 8.94878C13.7366 8.96975 13.8228 9.00849 13.8991 9.06279C14.1661 9.24878 14.468 9.37877 14.7865 9.44494C15.1051 9.5111 15.4338 9.51207 15.7527 9.44777C16.0622 9.39098 16.3567 9.27117 16.6179 9.09579C16.8791 8.92041 17.1015 8.69321 17.2713 8.42828C17.3192 8.3442 17.3838 8.27077 17.4611 8.21246C17.5383 8.15415 17.6267 8.11219 17.7207 8.08913C17.8147 8.06607 17.9124 8.0624 18.0079 8.07833C18.1034 8.09427 18.1946 8.12949 18.276 8.18183C18.3575 8.23418 18.4274 8.30256 18.4815 8.3828C18.5357 8.46304 18.5729 8.55347 18.5909 8.64858C18.609 8.74368 18.6075 8.84146 18.5865 8.93596C18.5656 9.03046 18.5256 9.1197 18.469 9.19825C18.1226 9.72712 17.6498 10.1612 17.0934 10.4613C16.5369 10.7613 15.9144 10.9177 15.2822 10.9164V10.9378Z" fill="white"/>
<path d="M7.99575 12.6202C7.85356 12.6205 7.71453 12.5783 7.59651 12.499C6.9677 12.0681 6.47983 11.4614 6.19387 10.7547C5.9079 10.0481 5.83653 9.27283 5.98866 8.52585C6.1408 7.77888 6.50969 7.0933 7.04925 6.55479C7.58881 6.01628 8.2751 5.64872 9.02237 5.49804C9.11462 5.47938 9.20965 5.47917 9.30198 5.49742C9.39431 5.51568 9.48211 5.55204 9.56032 5.6044C9.63853 5.65676 9.7056 5.72408 9.75765 5.8025C9.80971 5.88091 9.84573 5.96885 9.86362 6.06125C9.89921 6.24651 9.85991 6.43832 9.75434 6.59467C9.64878 6.75102 9.48555 6.85915 9.30041 6.89538C8.82878 7.0039 8.39787 7.24463 8.0582 7.58935C7.71853 7.93407 7.48418 8.36849 7.38263 8.84167C7.29736 9.31358 7.34791 9.8 7.5284 10.2443C7.70889 10.6886 8.0119 11.0724 8.40212 11.3512C8.5581 11.458 8.66526 11.6224 8.70002 11.8083C8.73478 11.9941 8.6943 12.1862 8.58748 12.3421C8.51818 12.4323 8.42831 12.5046 8.32537 12.553C8.22243 12.6014 8.10941 12.6244 7.99575 12.6202Z" fill="white"/>
<path d="M7.51111 7.82928C7.41215 7.82995 7.31414 7.81001 7.22331 7.77074C7.13248 7.73146 7.05083 7.6737 6.98354 7.60115C6.51075 7.05023 6.19505 6.38216 6.0696 5.6671C5.94415 4.95205 6.01359 4.21641 6.27061 3.53745C6.64502 2.70406 7.22462 1.9792 7.95523 1.43061C8.68584 0.882032 9.54361 0.527643 10.4484 0.400569C12.1272 0.184934 13.833 0.350641 15.4389 0.88536L16.7792 1.29886C17.8108 1.65343 18.8662 1.93455 19.9374 2.14011C21.3352 2.43983 22.793 2.26419 24.0796 1.64106C24.161 1.59425 24.2509 1.56394 24.3441 1.55186C24.4372 1.53979 24.5319 1.54618 24.6225 1.57067C24.7132 1.59517 24.7982 1.63729 24.8726 1.69462C24.9471 1.75196 25.0095 1.8234 25.0563 1.90485C25.1031 1.9863 25.1334 2.07617 25.1455 2.16934C25.1576 2.26251 25.1512 2.35714 25.1267 2.44784C25.1022 2.53853 25.0601 2.62351 25.0027 2.69793C24.9454 2.77235 24.8739 2.83475 24.7925 2.88156C23.2241 3.67836 21.4296 3.91242 19.7093 3.54458C18.5789 3.32352 17.4643 3.02821 16.3728 2.66055C15.8975 2.50371 15.4531 2.36825 15.0396 2.25418C13.6338 1.78431 12.1414 1.63093 10.6694 1.80504C10.0064 1.8946 9.37601 2.14731 8.83475 2.5405C8.29349 2.93369 7.85827 3.45507 7.56814 4.05789C7.40682 4.48962 7.36406 4.95667 7.4443 5.41052C7.52454 5.86437 7.72485 6.28844 8.02441 6.63869C8.15079 6.77876 8.21649 6.9632 8.20714 7.15162C8.19778 7.34003 8.11413 7.51706 7.97451 7.64392C7.84742 7.75953 7.68286 7.82535 7.51111 7.82928Z" fill="white"/>
<path d="M19.759 10.2246C19.3356 10.2265 18.9145 10.1616 18.5113 10.0321C18.0221 9.88037 17.5774 9.61139 17.2158 9.24857C16.8542 8.88576 16.5868 8.4401 16.4367 7.95036C16.3838 7.76884 16.4051 7.57373 16.496 7.40794C16.5869 7.24215 16.74 7.11927 16.9215 7.06633C17.1021 7.01311 17.2964 7.03346 17.462 7.12295C17.6276 7.21243 17.7511 7.36379 17.8055 7.54399C17.8912 7.81267 18.0413 8.05637 18.2425 8.25391C18.4438 8.45146 18.6903 8.59688 18.9605 8.67755C19.9443 9.0055 21.2276 8.67755 22.4681 7.72935C22.9172 7.39428 23.3307 7.01642 23.7728 6.63144C24.2148 6.24646 24.614 5.88287 25.0703 5.53353C27.3228 3.83799 30.0961 2.98082 32.9125 3.10958C33.1016 3.11998 33.2788 3.20506 33.4051 3.34612C33.5315 3.48717 33.5966 3.67264 33.5862 3.86172C33.5758 4.0508 33.4907 4.228 33.3497 4.35435C33.2086 4.48069 33.0232 4.54583 32.8341 4.53543C30.3491 4.41247 27.9003 5.16982 25.9187 6.67422C25.5052 6.98791 25.1131 7.33724 24.6996 7.70084C24.2861 8.06443 23.7941 8.50645 23.2737 8.87717C22.2792 9.69555 21.0457 10.1685 19.759 10.2246Z" fill="white"/>
<path d="M25.9977 15.8929C25.8555 15.8932 25.7165 15.851 25.5985 15.7717C24.9697 15.3408 24.4818 14.7341 24.1958 14.0274C23.9099 13.3208 23.8385 12.5455 23.9906 11.7986C24.1427 11.0516 24.5116 10.366 25.0512 9.82749C25.5908 9.28898 26.2771 8.92142 27.0243 8.77074C27.1166 8.75208 27.2116 8.75188 27.3039 8.77013C27.3963 8.78838 27.4841 8.82474 27.5623 8.8771C27.6405 8.92946 27.7076 8.99679 27.7596 9.0752C27.8117 9.15361 27.8477 9.24155 27.8656 9.33396C27.9012 9.51922 27.8619 9.71103 27.7563 9.86738C27.6507 10.0237 27.4875 10.1319 27.3024 10.1681C26.8307 10.2766 26.3998 10.5173 26.0602 10.8621C25.7205 11.2068 25.4861 11.6412 25.3846 12.1144C25.2993 12.5863 25.3499 13.0727 25.5304 13.517C25.7108 13.9613 26.0138 14.3451 26.4041 14.6239C26.5601 14.7307 26.6672 14.8951 26.702 15.081C26.7367 15.2668 26.6963 15.4589 26.5894 15.6149C26.5201 15.705 26.4303 15.7773 26.3273 15.8257C26.2244 15.8741 26.1114 15.8971 25.9977 15.8929Z" fill="white"/>
<path d="M28.9001 12.3462C28.4767 12.3481 28.0556 12.2831 27.6525 12.1537C27.1632 12.0019 26.7185 11.733 26.3569 11.3702C25.9954 11.0073 25.7279 10.5617 25.5778 10.0719C25.5249 9.89043 25.5462 9.69531 25.6371 9.52952C25.7281 9.36374 25.8811 9.24085 26.0626 9.18791C26.2432 9.13469 26.4375 9.15504 26.6031 9.24453C26.7687 9.33401 26.8922 9.48537 26.9467 9.66557C27.0324 9.93425 27.1824 10.178 27.3836 10.3755C27.5849 10.573 27.8314 10.7185 28.1016 10.7991C29.0854 11.1271 30.3687 10.7991 31.6092 9.85093C32.0584 9.51586 32.4719 9.13801 32.9139 8.75303C33.3559 8.36804 33.7551 8.00445 34.2114 7.65512C36.464 5.95957 39.2372 5.1024 42.0536 5.23116C42.2427 5.24156 42.4199 5.32664 42.5462 5.4677C42.6726 5.60875 42.7377 5.79422 42.7273 5.9833C42.7169 6.17238 42.6318 6.34958 42.4908 6.47593C42.3497 6.60228 42.1643 6.66742 41.9752 6.65702C39.4902 6.53405 37.0415 7.2914 35.0598 8.7958C34.6463 9.10949 34.2542 9.45882 33.8407 9.82242C33.4272 10.186 32.9353 10.628 32.4148 10.9988C31.4203 11.8171 30.1868 12.29 28.9001 12.3462Z" fill="white"/>
<path d="M80.8858 45.6136L64.6742 32.6129C64.4303 32.4165 64.0948 32.3756 63.8084 32.5131C63.5253 32.6489 63.3453 32.9353 63.3453 33.2512V44.5466L48.4658 32.6129C48.222 32.4165 47.8865 32.3756 47.6001 32.5131C47.3169 32.6489 47.1369 32.9353 47.1369 33.2512V44.5466L32.2542 32.6129C32.007 32.4149 31.6715 32.3772 31.3884 32.5131C31.1053 32.6489 30.9236 32.9353 30.9236 33.2512V45.8608H29.6602L27.5196 25.1339V19.892C27.5196 19.4403 27.153 19.0737 26.7013 19.0737H20.2713C19.8197 19.0737 19.4531 19.4403 19.4531 19.892V25.1339L17.3125 45.8608H15.7954L13.6597 25.2042V19.964C13.6597 19.5123 13.2931 19.1457 12.8414 19.1457H6.41304C5.96136 19.1457 5.59477 19.5123 5.59477 19.964V25.2042L3.46071 45.8608H1.37247C0.920786 45.8608 0.554199 46.2273 0.554199 46.679V69.6791V75.5379C0.554199 75.9896 0.920786 76.3562 1.37247 76.3562H80.3736C80.8253 76.3562 81.1919 75.9896 81.1919 75.5379V69.6791V46.2503C81.1919 46.0031 81.0789 45.7675 80.8858 45.6136ZM21.088 20.7119H25.8814V24.3614H21.088V20.7119ZM21.0078 25.998H25.96L28.004 45.7888H18.9637L21.0078 25.998ZM64.9802 34.9564L79.5553 46.6447V68.8608H64.9802V46.2503V34.9564ZM48.7702 34.9564L63.342 46.6447V68.8608H48.7702V46.2503V34.9564ZM32.5585 34.9564L47.1353 46.6447V68.8608H32.5585V46.679V34.9564ZM7.23132 20.7839H12.0231V24.4318H7.23132V20.7839ZM7.15113 26.0683H12.1033L14.149 45.8608H5.10708L7.15113 26.0683ZM2.19075 47.4973H4.20043H15.0573H30.922V68.8608H18.8344V54.9665C18.8344 54.5148 18.4679 54.1482 18.0162 54.1482H7.58809C7.1364 54.1482 6.76981 54.5148 6.76981 54.9665V68.8608H2.19075V47.4973ZM8.40636 68.8608V55.7848H11.9839V68.8608H8.40636ZM13.6204 55.7848H17.1979V68.8608H13.6204V55.7848ZM79.5553 74.7197H2.19075V70.4974H7.58809H18.0162H31.7403H47.9536H64.1619H79.5553V74.7197Z" fill="white"/>
<path d="M37.8451 61.4779H41.8481C42.2998 61.4779 42.6664 61.1113 42.6664 60.6596V50.1579C42.6664 49.7062 42.2998 49.3396 41.8481 49.3396H37.8451C37.3934 49.3396 37.0269 49.7062 37.0269 50.1579V60.6596C37.0269 61.1113 37.3918 61.4779 37.8451 61.4779ZM38.6634 50.9761H41.0299V59.8413H38.6634V50.9761Z" fill="white"/>
<path d="M54.0541 61.4779H58.0588C58.5104 61.4779 58.877 61.1113 58.877 60.6596V50.1579C58.877 49.7062 58.5104 49.3396 58.0588 49.3396H54.0541C53.6024 49.3396 53.2358 49.7062 53.2358 50.1579V60.6596C53.2358 61.1113 53.6024 61.4779 54.0541 61.4779ZM54.8724 50.9761H57.2405V59.8413H54.8724V50.9761Z" fill="white"/>
<path d="M70.2646 61.4779H74.2692C74.7209 61.4779 75.0875 61.1113 75.0875 60.6596V50.1579C75.0875 49.7062 74.7209 49.3396 74.2692 49.3396H70.2646C69.8129 49.3396 69.4463 49.7062 69.4463 50.1579V60.6596C69.4463 61.1113 69.8129 61.4779 70.2646 61.4779ZM71.0828 50.9761H73.4509V59.8413H71.0828V50.9761Z" fill="white"/>
<defs>
<filter id="filter0_f_86_1426" x="41.5576" y="30.2246" width="71.5474" height="71.5474" filterUnits="userSpaceOnUse" color-interpolation-filters="sRGB">
<feFlood flood-opacity="0" result="BackgroundImageFix"/>
<feBlend mode="normal" in="SourceGraphic" in2="BackgroundImageFix" result="shape"/>
<feGaussianBlur stdDeviation="5" result="effect1_foregroundBlur_86_1426"/>
</filter>
</defs>
</svg>
