<svg width="85" height="85" viewBox="0 0 85 85" fill="none" xmlns="http://www.w3.org/2000/svg">
<path fill-rule="evenodd" clip-rule="evenodd" d="M43.8877 41.5993C43.3704 41.5993 42.8934 41.765 42.507 42.0464L33.3982 36.8965L32.478 38.4872L41.5743 43.6288C41.5625 43.7185 41.5584 43.8103 41.5584 43.9034C41.5584 45.1756 42.6019 46.2068 43.8884 46.2068C45.1749 46.2068 46.219 45.1756 46.219 43.9034C46.219 43.5911 46.1553 43.294 46.0432 43.0228L59.7724 30.1807C57.6342 28.0505 56.0361 26.59 53.2623 25.213C50.9974 24.0901 48.5275 23.3704 45.9705 23.1116L45.8299 24.4756C48.2236 24.7186 50.5293 25.3897 52.6419 26.438C54.3999 27.3096 56.0271 28.4442 57.4618 29.8116L55.3209 31.8159C54.1818 30.749 52.8988 29.8493 51.5126 29.1399C49.9955 28.3634 48.36 27.8163 46.6587 27.5267L46.4247 28.8811C47.9868 29.1475 49.4865 29.6487 50.8769 30.3594C52.1184 30.9962 53.2748 31.8035 54.3106 32.7635L52.1032 34.8293C51.5326 34.3158 50.9157 33.8584 50.2627 33.4606C49.4485 32.9655 48.5712 32.5636 47.6516 32.265L47.2217 33.5708C48.0332 33.8331 48.8094 34.1898 49.5357 34.6315C50.0862 34.9656 50.6069 35.3491 51.0895 35.777L44.713 41.7485C44.4561 41.6513 44.1778 41.5993 43.8877 41.5993Z" fill="#4D4D4D"/>
<path fill-rule="evenodd" clip-rule="evenodd" d="M42.9923 84.0159C19.8585 84.0159 0.984375 65.2074 0.984375 42.008C0.984375 18.8741 19.8585 0 42.9923 0C66.1917 0 85.0003 18.8741 85.0003 42.008C85.0003 65.2074 66.1917 84.0159 42.9923 84.0159ZM42.9923 2.6214C21.3002 2.6214 3.60578 20.3159 3.60578 42.008C3.60578 63.7656 21.3002 81.3945 42.9923 81.3945C64.75 81.3945 82.3789 63.7656 82.3789 42.008C82.4444 20.3159 64.75 2.6214 42.9923 2.6214Z" fill="#4D4D4D"/>
<path fill-rule="evenodd" clip-rule="evenodd" d="M42.9922 78.8385C22.7419 78.8385 6.22705 62.3237 6.22705 42.0078C6.22705 21.7575 22.7419 5.24268 42.9922 5.24268C63.3081 5.24268 79.8229 21.7575 79.8229 42.0078C79.8229 62.3237 63.3081 78.8385 42.9922 78.8385ZM42.9922 7.86408C24.1837 7.86408 8.84845 23.1993 8.84845 42.0078C8.84845 60.8819 24.1837 76.2171 42.9922 76.2171C61.8663 76.2171 77.2015 60.8819 77.2015 42.0078C77.2015 23.1993 61.8663 7.86408 42.9922 7.86408Z" fill="#4D4D4D"/>
<path fill-rule="evenodd" clip-rule="evenodd" d="M42.9928 17.2359C42.2719 17.2359 41.6821 16.7116 41.6821 15.9252V11.3377C41.6821 9.63384 44.3035 9.63384 44.3035 11.3377V15.9252C44.3035 16.6461 43.7137 17.2359 42.9928 17.2359Z" fill="#4D4D4D"/>
<path fill-rule="evenodd" clip-rule="evenodd" d="M56.0339 20.7745C55.0509 20.7745 54.3956 19.6604 54.9198 18.8085L57.2136 14.8108C58.0655 13.3035 60.3592 14.6142 59.5073 16.1215L57.2136 20.1192C56.9514 20.5124 56.4927 20.7745 56.0339 20.7745Z" fill="#4D4D4D"/>
<path fill-rule="evenodd" clip-rule="evenodd" d="M65.603 30.277C64.2923 30.277 63.768 28.5075 64.9477 27.8522L68.9453 25.5584C70.3871 24.7065 71.7633 26.9347 70.256 27.8522C69.4696 28.3109 66.2584 30.277 65.603 30.277Z" fill="#4D4D4D"/>
<path fill-rule="evenodd" clip-rule="evenodd" d="M73.6627 43.3182H69.0753C67.3714 43.3182 67.3714 40.6968 69.0753 40.6968H73.6627C75.4322 40.6968 75.4322 43.3182 73.6627 43.3182Z" fill="#4D4D4D"/>
<path fill-rule="evenodd" clip-rule="evenodd" d="M69.6003 58.6539C68.8794 58.6539 65.7337 56.6879 64.9473 56.2291C63.44 55.3116 64.7507 53.0834 66.258 53.9354L70.2556 56.2291C71.4353 56.8845 70.911 58.6539 69.6003 58.6539Z" fill="#4D4D4D"/>
<path fill-rule="evenodd" clip-rule="evenodd" d="M58.3278 69.9256C57.9346 69.9256 57.4759 69.6635 57.2137 69.2703L54.92 65.2726C54.068 63.7653 56.2962 62.4546 57.2137 63.9619L59.5075 67.9596C60.0317 68.8771 59.3764 69.9256 58.3278 69.9256Z" fill="#4D4D4D"/>
<path fill-rule="evenodd" clip-rule="evenodd" d="M42.9928 74.0546C42.2719 74.0546 41.6821 73.4648 41.6821 72.7439V68.0909C41.6821 66.387 44.3035 66.387 44.3035 68.0909V72.7439C44.3035 73.4648 43.7137 74.0546 42.9928 74.0546Z" fill="#4D4D4D"/>
<path fill-rule="evenodd" clip-rule="evenodd" d="M27.657 69.9256C26.674 69.9256 26.0186 68.8115 26.5429 67.9596L28.8366 63.9619C29.6886 62.4546 31.9823 63.7653 31.1303 65.2726L28.8366 69.2703C28.5745 69.6635 28.1157 69.9256 27.657 69.9256Z" fill="#4D4D4D"/>
<path fill-rule="evenodd" clip-rule="evenodd" d="M16.4507 58.6539C15.14 58.6539 14.6157 56.8845 15.7953 56.2291L19.793 53.9354C21.2347 53.0834 22.611 55.3116 21.1037 56.2291C20.3173 56.6879 17.106 58.6539 16.4507 58.6539Z" fill="#4D4D4D"/>
<path fill-rule="evenodd" clip-rule="evenodd" d="M16.9103 43.3182H12.3229C10.6189 43.3182 10.6189 40.6968 12.3229 40.6968H16.9103C18.6798 40.6968 18.6798 43.3182 16.9103 43.3182Z" fill="#4D4D4D"/>
<path fill-rule="evenodd" clip-rule="evenodd" d="M20.4479 30.2774C19.7271 30.2774 16.5814 28.3114 15.795 27.8526C14.2876 27.0007 15.5983 24.7069 17.1057 25.5589L21.1033 27.8526C22.2174 28.508 21.7586 30.2774 20.4479 30.2774Z" fill="#4D4D4D"/>
<path fill-rule="evenodd" clip-rule="evenodd" d="M29.9518 20.7745C29.4931 20.7745 29.0999 20.5124 28.8378 20.1192L26.544 16.1215C25.6921 14.6142 27.9203 13.3035 28.8378 14.8108L31.1315 18.8085C31.6558 19.6604 30.9349 20.7745 29.9518 20.7745Z" fill="#4D4D4D"/>
</svg>
