<svg width="158" height="26" viewBox="0 0 158 26" fill="none" xmlns="http://www.w3.org/2000/svg">
<path d="M20.9767 25.9557C20.6543 25.9557 20.3335 25.8568 20.0574 25.6597L13.5659 21.0043L7.07429 25.6597C6.80534 25.8532 6.48212 25.9567 6.15079 25.9556C5.81947 25.9544 5.49698 25.8486 5.22937 25.6533C4.96151 25.4591 4.76172 25.1853 4.65842 24.871C4.55513 24.5567 4.55359 24.2178 4.65402 23.9025L7.07509 16.0887L0.641787 11.5554C0.375168 11.3586 0.17716 11.083 0.0757735 10.7675C-0.0256135 10.4521 -0.025248 10.1127 0.0768183 9.79745C0.17969 9.48296 0.378794 9.20876 0.645992 9.01358C0.91319 8.81841 1.23497 8.71215 1.56585 8.70981L9.53366 8.69784L12.0704 1.07794C12.1751 0.764037 12.3759 0.491023 12.6444 0.297562C12.9128 0.104102 13.2353 0 13.5662 0C13.8972 0 14.2197 0.104102 14.4881 0.297562C14.7566 0.491023 14.9574 0.764037 15.0621 1.07794L17.5557 8.69784L25.5643 8.70981C25.8955 8.71168 26.2178 8.81789 26.4853 9.01335C26.7527 9.20882 26.9518 9.4836 27.0542 9.79865C27.1566 10.1137 27.1571 10.453 27.0557 10.7684C26.9542 11.0837 26.756 11.3591 26.4891 11.5554L20.0558 16.0887L22.4769 23.9025C22.5775 24.2177 22.5762 24.5566 22.473 24.8709C22.3699 25.1853 22.1701 25.459 21.9023 25.6533C21.6339 25.8502 21.3096 25.9562 20.9767 25.9557Z" fill="#FFAC33"/>
<path d="M53.694 25.9557C53.3716 25.9557 53.0508 25.8568 52.7747 25.6597L46.2831 21.0043L39.7916 25.6597C39.5226 25.8532 39.1994 25.9567 38.8681 25.9556C38.5368 25.9544 38.2143 25.8486 37.9467 25.6533C37.6788 25.4591 37.479 25.1853 37.3757 24.871C37.2724 24.5567 37.2709 24.2178 37.3713 23.9025L39.7924 16.0887L33.3591 11.5554C33.0925 11.3586 32.8944 11.083 32.7931 10.7675C32.6917 10.4521 32.692 10.1127 32.7941 9.79745C32.897 9.48296 33.0961 9.20876 33.3633 9.01358C33.6305 8.81841 33.9523 8.71215 34.2831 8.70981L42.2509 8.69784L44.7877 1.07794C44.8924 0.764037 45.0932 0.491023 45.3617 0.297562C45.6301 0.104102 45.9526 0 46.2835 0C46.6144 0 46.937 0.104102 47.2054 0.297562C47.4739 0.491023 47.6747 0.764037 47.7793 1.07794L50.273 8.69784L58.2815 8.70981C58.6128 8.71168 58.9351 8.81789 59.2025 9.01335C59.47 9.20882 59.6691 9.4836 59.7715 9.79865C59.8739 10.1137 59.8744 10.453 59.773 10.7684C59.6715 11.0837 59.4733 11.3591 59.2064 11.5554L52.7731 16.0887L55.1942 23.9025C55.2948 24.2177 55.2935 24.5566 55.1903 24.8709C55.0871 25.1853 54.8874 25.459 54.6196 25.6533C54.3512 25.8502 54.0269 25.9562 53.694 25.9557Z" fill="#FFAC33"/>
<path d="M86.4108 25.9557C86.0884 25.9557 85.7676 25.8568 85.4915 25.6597L78.9999 21.0043L72.5084 25.6597C72.2394 25.8532 71.9162 25.9567 71.5849 25.9556C71.2536 25.9544 70.9311 25.8486 70.6634 25.6533C70.3956 25.4591 70.1958 25.1853 70.0925 24.871C69.9892 24.5567 69.9877 24.2178 70.0881 23.9025L72.5092 16.0887L66.0759 11.5554C65.8092 11.3586 65.6112 11.083 65.5099 10.7675C65.4085 10.4521 65.4088 10.1127 65.5109 9.79745C65.6138 9.48296 65.8129 9.20876 66.0801 9.01358C66.3473 8.81841 66.669 8.71215 66.9999 8.70981L74.9677 8.69784L77.5045 1.07794C77.6092 0.764037 77.81 0.491023 78.0785 0.297562C78.3469 0.104102 78.6694 0 79.0003 0C79.3312 0 79.6537 0.104102 79.9222 0.297562C80.1907 0.491023 80.3915 0.764037 80.4961 1.07794L82.9898 8.69784L90.9983 8.70981C91.3296 8.71168 91.6519 8.81789 91.9193 9.01335C92.1868 9.20882 92.3859 9.4836 92.4883 9.79865C92.5907 10.1137 92.5912 10.453 92.4897 10.7684C92.3883 11.0837 92.1901 11.3591 91.9232 11.5554L85.4899 16.0887L87.911 23.9025C88.0116 24.2177 88.0103 24.5566 87.9071 24.8709C87.8039 25.1853 87.6042 25.459 87.3364 25.6533C87.068 25.8502 86.7437 25.9562 86.4108 25.9557Z" fill="#FFAC33"/>
<path d="M119.128 25.9557C118.806 25.9557 118.485 25.8568 118.209 25.6597L111.717 21.0043L105.226 25.6597C104.957 25.8532 104.633 25.9567 104.302 25.9556C103.971 25.9544 103.648 25.8486 103.381 25.6533C103.113 25.4591 102.913 25.1853 102.81 24.871C102.706 24.5567 102.705 24.2178 102.805 23.9025L105.226 16.0887L98.7932 11.5554C98.5265 11.3586 98.3285 11.083 98.2271 10.7675C98.1258 10.4521 98.1261 10.1127 98.2282 9.79745C98.3311 9.48296 98.5302 9.20876 98.7974 9.01358C99.0646 8.81841 99.3863 8.71215 99.7172 8.70981L107.685 8.69784L110.222 1.07794C110.326 0.764037 110.527 0.491023 110.796 0.297562C111.064 0.104102 111.387 0 111.718 0C112.049 0 112.371 0.104102 112.639 0.297562C112.908 0.491023 113.109 0.764037 113.213 1.07794L115.707 8.69784L123.716 8.70981C124.047 8.71168 124.369 8.81789 124.637 9.01335C124.904 9.20882 125.103 9.4836 125.206 9.79865C125.308 10.1137 125.308 10.453 125.207 10.7684C125.106 11.0837 124.907 11.3591 124.64 11.5554L118.207 16.0887L120.628 23.9025C120.729 24.2177 120.728 24.5566 120.624 24.8709C120.521 25.1853 120.322 25.459 120.054 25.6533C119.785 25.8502 119.461 25.9562 119.128 25.9557Z" fill="#FFAC33"/>
<path d="M151.845 25.9557C151.523 25.9557 151.202 25.8568 150.926 25.6597L144.435 21.0043L137.943 25.6597C137.674 25.8532 137.351 25.9567 137.019 25.9556C136.688 25.9544 136.366 25.8486 136.098 25.6533C135.83 25.4591 135.63 25.1853 135.527 24.871C135.424 24.5567 135.422 24.2178 135.523 23.9025L137.944 16.0887L131.51 11.5554C131.244 11.3586 131.046 11.083 130.944 10.7675C130.843 10.4521 130.843 10.1127 130.945 9.79745C131.048 9.48296 131.247 9.20876 131.515 9.01358C131.782 8.81841 132.104 8.71215 132.434 8.70981L140.402 8.69784L142.939 1.07794C143.044 0.764037 143.245 0.491023 143.513 0.297562C143.781 0.104102 144.104 0 144.435 0C144.766 0 145.088 0.104102 145.357 0.297562C145.625 0.491023 145.826 0.764037 145.931 1.07794L148.424 8.69784L156.433 8.70981C156.764 8.71168 157.086 8.81789 157.354 9.01335C157.621 9.20882 157.82 9.4836 157.923 9.79865C158.025 10.1137 158.026 10.453 157.924 10.7684C157.823 11.0837 157.625 11.3591 157.358 11.5554L150.924 16.0887L153.346 23.9025C153.446 24.2177 153.445 24.5566 153.342 24.8709C153.239 25.1853 153.039 25.459 152.771 25.6533C152.503 25.8502 152.178 25.9562 151.845 25.9557Z" fill="#FFAC33"/>
</svg>
