<svg width="14" height="14" viewBox="0 0 14 14" fill="none" xmlns="http://www.w3.org/2000/svg">
<path d="M12.8471 6.62652L6.8948 1.15609C6.79548 1.06477 6.66369 1.01399 6.52675 1.01429C6.38982 1.0146 6.25825 1.06595 6.15934 1.15771L6.15295 1.16392C6.10484 1.20841 6.06656 1.26191 6.04046 1.32117C6.01435 1.38044 6.00096 1.44423 6.00111 1.50866C6.00125 1.57309 6.01492 1.63682 6.04128 1.69597C6.06765 1.75512 6.10616 1.80845 6.15448 1.85272L11.7597 7.00379L6.17727 12.1775C6.12915 12.222 6.09088 12.2755 6.06477 12.3347C6.03867 12.394 6.02528 12.4578 6.02542 12.5222C6.02557 12.5867 6.03924 12.6504 6.0656 12.7095C6.09197 12.7687 6.13048 12.822 6.17879 12.8663L6.1852 12.8725C6.28452 12.9638 6.41631 13.0146 6.55325 13.0143C6.69018 13.014 6.82175 12.9626 6.92066 12.8708L12.8488 7.37418C12.9009 7.32584 12.9424 7.26775 12.9706 7.20343C12.9989 7.13911 13.0134 7.06989 13.0132 6.99998C13.0131 6.93008 12.9983 6.86093 12.9697 6.79673C12.9412 6.73253 12.8995 6.67463 12.8471 6.62652Z" fill="#4D4D4D" stroke="#4D4D4D" stroke-width="0.5"/>
<path d="M7.8471 6.62652L1.8948 1.15609C1.79548 1.06477 1.66369 1.01399 1.52675 1.01429C1.38982 1.0146 1.25825 1.06595 1.15934 1.15771L1.15295 1.16392C1.10484 1.20841 1.06656 1.26191 1.04046 1.32117C1.01435 1.38044 1.00096 1.44423 1.00111 1.50866C1.00125 1.57309 1.01492 1.63682 1.04128 1.69597C1.06765 1.75512 1.10616 1.80845 1.15448 1.85272L6.75966 7.00379L1.17727 12.1775C1.12915 12.222 1.09088 12.2755 1.06477 12.3347C1.03867 12.394 1.02528 12.4578 1.02542 12.5222C1.02557 12.5867 1.03924 12.6504 1.0656 12.7095C1.09197 12.7687 1.13048 12.822 1.17879 12.8663L1.1852 12.8725C1.28452 12.9638 1.41631 13.0146 1.55325 13.0143C1.69018 13.014 1.82175 12.9626 1.92066 12.8708L7.84875 7.37418C7.90089 7.32584 7.94235 7.26775 7.97063 7.20343C7.9989 7.13911 8.0134 7.06989 8.01325 6.99998C8.01309 6.93008 7.99829 6.86093 7.96973 6.79673C7.94117 6.73253 7.89945 6.67463 7.8471 6.62652Z" fill="#4D4D4D" stroke="#4D4D4D" stroke-width="0.5"/>
</svg>
