<svg width="158" height="26" viewBox="0 0 158 26" fill="none" xmlns="http://www.w3.org/2000/svg">
<path d="M20.9767 25.9557C20.6543 25.9557 20.3335 25.8568 20.0574 25.6597L13.5659 21.0043L7.07429 25.6597C6.80534 25.8532 6.48212 25.9567 6.15079 25.9556C5.81947 25.9544 5.49698 25.8486 5.22937 25.6533C4.96151 25.4591 4.76172 25.1853 4.65842 24.871C4.55513 24.5567 4.55359 24.2178 4.65402 23.9025L7.07509 16.0887L0.641787 11.5554C0.375168 11.3586 0.17716 11.083 0.0757735 10.7675C-0.0256135 10.4521 -0.025248 10.1127 0.0768183 9.79745C0.17969 9.48296 0.378794 9.20876 0.645992 9.01358C0.91319 8.81841 1.23497 8.71215 1.56585 8.70981L9.53366 8.69784L12.0704 1.07794C12.1751 0.764037 12.3759 0.491023 12.6444 0.297562C12.9128 0.104102 13.2353 0 13.5662 0C13.8972 0 14.2197 0.104102 14.4881 0.297562C14.7566 0.491023 14.9574 0.764037 15.0621 1.07794L17.5557 8.69784L25.5643 8.70981C25.8955 8.71168 26.2178 8.81789 26.4853 9.01335C26.7527 9.20882 26.9518 9.4836 27.0542 9.79865C27.1566 10.1137 27.1571 10.453 27.0557 10.7684C26.9542 11.0837 26.756 11.3591 26.4891 11.5554L20.0558 16.0887L22.4769 23.9025C22.5775 24.2177 22.5762 24.5566 22.473 24.8709C22.3699 25.1853 22.1701 25.459 21.9023 25.6533C21.6339 25.8502 21.3096 25.9562 20.9767 25.9557Z" fill="#FFAC33"/>
<path d="M53.6937 25.9557C53.3713 25.9557 53.0505 25.8568 52.7744 25.6597L46.2829 21.0043L39.7913 25.6597C39.5224 25.8532 39.1992 25.9567 38.8678 25.9556C38.5365 25.9544 38.214 25.8486 37.9464 25.6533C37.6785 25.4591 37.4788 25.1853 37.3755 24.871C37.2722 24.5567 37.2706 24.2178 37.3711 23.9025L39.7921 16.0887L33.3588 11.5554C33.0922 11.3586 32.8942 11.083 32.7928 10.7675C32.6914 10.4521 32.6918 10.1127 32.7939 9.79745C32.8967 9.48296 33.0958 9.20876 33.363 9.01358C33.6302 8.81841 33.952 8.71215 34.2829 8.70981L42.2507 8.69784L44.7875 1.07794C44.8922 0.764037 45.093 0.491023 45.3614 0.297562C45.6299 0.104102 45.9524 0 46.2833 0C46.6142 0 46.9367 0.104102 47.2052 0.297562C47.4736 0.491023 47.6744 0.764037 47.7791 1.07794L50.2728 8.69784L58.2813 8.70981C58.6126 8.71168 58.9348 8.81789 59.2023 9.01335C59.4698 9.20882 59.6688 9.4836 59.7712 9.79865C59.8736 10.1137 59.8741 10.453 59.7727 10.7684C59.6713 11.0837 59.473 11.3591 59.2062 11.5554L52.7729 16.0887L55.1939 23.9025C55.2946 24.2177 55.2932 24.5566 55.1901 24.8709C55.0869 25.1853 54.8872 25.459 54.6194 25.6533C54.3509 25.8502 54.0266 25.9562 53.6937 25.9557Z" fill="#FFAC33"/>
<path d="M86.411 25.9557C86.0886 25.9557 85.7678 25.8568 85.4917 25.6597L79.0002 21.0043L72.5086 25.6597C72.2397 25.8532 71.9164 25.9567 71.5851 25.9556C71.2538 25.9544 70.9313 25.8486 70.6637 25.6533C70.3958 25.4591 70.196 25.1853 70.0927 24.871C69.9895 24.5567 69.9879 24.2178 70.0884 23.9025L72.5094 16.0887L66.0761 11.5554C65.8095 11.3586 65.6115 11.083 65.5101 10.7675C65.4087 10.4521 65.4091 10.1127 65.5111 9.79745C65.614 9.48296 65.8131 9.20876 66.0803 9.01358C66.3475 8.81841 66.6693 8.71215 67.0002 8.70981L74.968 8.69784L77.5048 1.07794C77.6095 0.764037 77.8102 0.491023 78.0787 0.297562C78.3472 0.104102 78.6697 0 79.0006 0C79.3315 0 79.654 0.104102 79.9225 0.297562C80.1909 0.491023 80.3917 0.764037 80.4964 1.07794L82.9901 8.69784L90.9986 8.70981C91.3299 8.71168 91.6521 8.81789 91.9196 9.01335C92.1871 9.20882 92.3861 9.4836 92.4885 9.79865C92.5909 10.1137 92.5914 10.453 92.49 10.7684C92.3886 11.0837 92.1903 11.3591 91.9234 11.5554L85.4901 16.0887L87.9112 23.9025C88.0119 24.2177 88.0105 24.5566 87.9073 24.8709C87.8042 25.1853 87.6045 25.459 87.3367 25.6533C87.0682 25.8502 86.7439 25.9562 86.411 25.9557Z" fill="#FFAC33"/>
<path d="M119.128 25.9557C118.806 25.9557 118.485 25.8568 118.209 25.6597L111.717 21.0043L105.226 25.6597C104.957 25.8532 104.633 25.9567 104.302 25.9556C103.971 25.9544 103.648 25.8486 103.381 25.6533C103.113 25.4591 102.913 25.1853 102.81 24.871C102.706 24.5567 102.705 24.2178 102.805 23.9025L105.226 16.0887L98.7932 11.5554C98.5265 11.3586 98.3285 11.083 98.2271 10.7675C98.1258 10.4521 98.1261 10.1127 98.2282 9.79745C98.3311 9.48296 98.5302 9.20876 98.7974 9.01358C99.0646 8.81841 99.3863 8.71215 99.7172 8.70981L107.685 8.69784L110.222 1.07794C110.326 0.764037 110.527 0.491023 110.796 0.297562C111.064 0.104102 111.387 0 111.718 0C112.049 0 112.371 0.104102 112.639 0.297562C112.908 0.491023 113.109 0.764037 113.213 1.07794L115.707 8.69784L123.716 8.70981C124.047 8.71168 124.369 8.81789 124.637 9.01335C124.904 9.20882 125.103 9.4836 125.206 9.79865C125.308 10.1137 125.308 10.453 125.207 10.7684C125.106 11.0837 124.907 11.3591 124.64 11.5554L118.207 16.0887L120.628 23.9025C120.729 24.2177 120.728 24.5566 120.624 24.8709C120.521 25.1853 120.322 25.459 120.054 25.6533C119.785 25.8502 119.461 25.9562 119.128 25.9557Z" fill="#FFAC33"/>
<path d="M151.845 25.9557C151.523 25.9557 151.202 25.8568 150.926 25.6597L144.434 21.0043L137.943 25.6597C137.674 25.8532 137.351 25.9567 137.019 25.9556C136.688 25.9544 136.365 25.8486 136.098 25.6533C135.83 25.4591 135.63 25.1853 135.527 24.871C135.424 24.5567 135.422 24.2178 135.522 23.9025L137.944 16.0887L131.51 11.5554C131.244 11.3586 131.046 11.083 130.944 10.7675C130.843 10.4521 130.843 10.1127 130.945 9.79745C131.048 9.48296 131.247 9.20876 131.514 9.01358C131.782 8.81841 132.103 8.71215 132.434 8.70981L140.402 8.69784L142.939 1.07794C143.044 0.764037 143.244 0.491023 143.513 0.297562C143.781 0.104102 144.104 0 144.435 0C144.766 0 145.088 0.104102 145.357 0.297562C145.625 0.491023 145.826 0.764037 145.93 1.07794L148.424 8.69784L156.433 8.70981C156.764 8.71168 157.086 8.81789 157.354 9.01335C157.621 9.20882 157.82 9.4836 157.923 9.79865C158.025 10.1137 158.026 10.453 157.924 10.7684C157.823 11.0837 157.624 11.3591 157.358 11.5554L150.924 16.0887L153.345 23.9025C153.446 24.2177 153.445 24.5566 153.341 24.8709C153.238 25.1853 153.039 25.459 152.771 25.6533C152.502 25.8502 152.178 25.9562 151.845 25.9557Z" fill="#FFAC33"/>
</svg>
