<svg width="1785" height="286" viewBox="0 0 1785 286" fill="none" xmlns="http://www.w3.org/2000/svg">
<path fill-rule="evenodd" clip-rule="evenodd" d="M164.387 57.6289C161.559 58.4734 156.891 56.2075 153.644 54.4763C151.447 53.3127 149.125 51.8645 148.727 50.2686C152.435 51.4601 160.186 56.2289 164.387 57.6289Z" fill="#C2C2C2"/>
<path fill-rule="evenodd" clip-rule="evenodd" d="M160.878 59.7373C161.106 59.8727 160.893 60.1383 160.834 60.3556C157.759 62.3009 153.395 59.1923 149.275 57.0416C151.07 55.3876 153.428 57.9788 155.597 58.8593C157.265 59.5574 159.074 59.858 160.878 59.7373Z" fill="#C2C2C2"/>
<path fill-rule="evenodd" clip-rule="evenodd" d="M156.283 63.1349C154.739 65.7364 149.719 61.6077 146.444 60.1826C149.271 59.1976 153.853 61.0195 156.283 63.1349Z" fill="#C2C2C2"/>
<path fill-rule="evenodd" clip-rule="evenodd" d="M140.617 151.401L141.322 151.819L140.898 152.534C140.355 152.268 140.258 151.888 140.617 151.401Z" fill="#C2C2C2"/>
<path fill-rule="evenodd" clip-rule="evenodd" d="M119.005 141.152C119.202 141.269 119.167 141.375 119.092 141.526C121.387 146.561 125.56 151.644 129.571 156.435C130.76 157.856 133.283 159.059 132.827 161.269C131.006 161.786 129.693 159.157 128.245 157.583C126.797 156.008 125.175 154.513 123.763 152.666C121.396 149.593 115.705 143.454 119.005 141.152Z" fill="#C2C2C2"/>
<path fill-rule="evenodd" clip-rule="evenodd" d="M90.6261 192.202L89.6357 193.87C86.4142 194.103 82.5003 191.724 79.6 189.526C83.3217 188.876 86.876 192.12 90.6261 192.202Z" fill="#C2C2C2"/>
<path fill-rule="evenodd" clip-rule="evenodd" d="M47.6701 171.276C47.7767 171.553 47.9757 171.785 48.2334 171.932C45.3371 177.474 44.3606 182.472 41.902 187.488C40.5886 186.442 41.3183 184.717 41.6928 183.496C43.1508 179.182 45.1599 175.075 47.6701 171.276Z" fill="#C2C2C2"/>
<path fill-rule="evenodd" clip-rule="evenodd" d="M87.9641 196.144C85.3535 198.323 79.281 195.826 78.682 192.891C81.2727 193.91 85.2185 194.725 87.9641 196.144Z" fill="#C2C2C2"/>
<path fill-rule="evenodd" clip-rule="evenodd" d="M49.3119 176.09L50.027 176.515C47.7681 180.038 48.2117 183.328 46.6084 186.077C44.5566 183.654 46.4749 178.485 49.3119 176.09Z" fill="#C2C2C2"/>
<path fill-rule="evenodd" clip-rule="evenodd" d="M84.4297 200.493C83.1568 201.882 80.0124 200.072 78.7161 198.714C80.1027 197.771 82.6987 199.018 84.4297 200.493Z" fill="#C2C2C2"/>
<path fill-rule="evenodd" clip-rule="evenodd" d="M84.3904 204.338C84.6288 204.48 84.4047 204.739 84.3458 204.957C74.445 210.657 61.0045 200.62 50.3845 193.812C49.0863 190.757 43.1442 187.875 43.6968 185.008C47.1261 186.314 49.4776 189.602 52.47 192.471C60.4587 200.17 76.002 206.452 84.3904 204.338Z" fill="#C2C2C2"/>
<path fill-rule="evenodd" clip-rule="evenodd" d="M172.007 43.1603C171.741 44.9785 171.761 47.3308 170.614 48.7666C162.402 47.915 151.03 43.8146 142.201 38.0277C138.346 35.5016 134.012 32.5788 131.725 30.1982C128.754 27.1035 126.23 20.9661 132.372 17.7018C135.321 19.8168 139.013 19.7371 142.172 21.262C143.394 21.8473 144.457 23.0804 145.845 23.7642C148.982 25.3036 152.234 26.2947 155.079 28.2779C157.004 29.6164 158.71 31.4417 160.732 32.9224C164.736 36.0539 168.505 39.4758 172.007 43.1603ZM143.044 24.6808C146.26 29.3928 148.025 34.4487 151.243 39.204C151.034 39.5564 149.654 39.6623 150.677 40.1576C150.955 39.902 153.393 41.3208 154.353 41.0495C153.811 39.2 152.064 37.1124 150.623 34.3226C149.749 32.6545 146.992 28.4674 147.266 27.5091C147.266 27.5091 148.203 27.5604 148.157 27.0707C145.954 25.9175 144.492 24.5313 143.044 24.6808ZM161.436 43.614C157.546 38.3616 156.679 30.7548 148.927 27.7802C154.314 32.5893 153.036 41.5437 161.436 43.614ZM141.686 26.4257C140.582 24.1304 140.696 21.7176 137.149 22.1211C141.329 27.4052 142.035 34.622 148.254 38.6913C147.357 34.8653 143.561 30.3276 141.674 26.4465L141.686 26.4257ZM164.86 45.9685C165.724 45.3877 167.017 46.4915 167.855 45.8116C164.56 42.272 164.112 36.9328 158.725 34.6042C161.066 38.3344 162.594 42.2545 164.848 45.9892L164.86 45.9685ZM133.038 22.5541C134.277 24.8592 134.518 27.4274 137.411 29.3545L136.845 30.3081C138.368 31.0718 139.774 32.9296 140.995 33.0932C139.582 29.0031 136.082 25.4541 135.16 21.2211C133.673 20.5626 134 21.948 133.038 22.5541ZM132.851 26.6478C132.034 25.3784 131.356 24.0649 130.655 22.766C130.059 24.2902 132.183 26.1673 132.851 26.6478Z" fill="#C2C2C2"/>
<path fill-rule="evenodd" clip-rule="evenodd" d="M106.666 184.706C100.728 185.807 92.2914 183.799 85.2842 181.673C76.3934 178.989 63.6109 172.117 55.4142 165.879C48.7485 160.815 42.9987 155.791 43.7459 148.652C44.615 147.542 45.6961 147.987 46.1144 146.834C46.9078 144.6 44.4124 144.506 43.7089 142.196C42.831 139.307 45.4845 137.882 47.8766 136.261C50.0629 131.798 50.0668 127.848 50.3786 123.898C51.0525 123.471 51.437 123.909 51.9504 124.509C52.6845 121.973 50.0058 120.299 51.5884 117.538C50.9674 116.483 50.0076 115.479 50.7163 114.119C51.0756 113.183 51.8517 113.812 52.5711 114.253C54.3905 111.351 55.9794 108.311 57.3232 105.16C59.0065 100.553 59.215 94.888 64.2499 93.4893C63.7786 90.883 64.5945 88.1857 67.5949 88.3967C67.1557 86.4681 69.6255 84.6683 70.3277 83.249C72.0627 84.798 73.9093 86.2173 75.8526 87.4952C73.5736 84.2505 71.2838 81.7562 72.2946 78.3056C72.8924 76.2357 75.0906 75.1296 76.4055 73.0087C78.1956 69.9926 78.9118 65.0076 82.6571 64.105C81.0444 57.5415 89.4244 57.5676 91.1863 50.8206C91.0389 53.8118 91.3177 56.8088 92.0144 59.7215C95.9759 63.8387 98.0776 70.2159 101.83 75.2043C103.522 77.4555 105.667 79.0369 106.351 81.756C107.265 82.5784 107.933 82.1618 108.78 82.5525C108.917 83.0542 108.403 83.7305 108.028 84.3628C112.588 88.6528 114.185 93.848 117.032 99.0413C116.59 99.5498 117.16 99.8179 116.563 100.375C119.446 104.09 119.423 108.828 120.993 112.983C121.948 115.554 124.178 117.677 124.157 120.664C128.553 127.828 131.28 135.417 134.097 142.976C133.588 144.258 134.424 145.188 134.351 146.35C134.405 147.013 135.369 147.445 135.595 148.055C135.403 148.614 135.054 148.589 134.79 148.867C137.404 158.113 137.035 166.009 134.158 176.524C133.833 177.732 133.034 178.912 132.654 180.144C131.778 183.157 131.112 186.228 130.662 189.333C129.622 195.808 127.375 202.688 127.621 209.099C127.647 209.857 128.276 210.356 128.343 211.139C128.886 216.059 125.457 223.442 121.4 226.64C118.849 228.804 115.772 230.255 112.48 230.846C109.187 231.438 105.797 231.148 102.653 230.006C99.4255 228.904 96.3776 226.954 92.8529 226.446C85.7517 225.399 76.7601 226.285 79.3544 234.525C83.2407 241.484 90.1892 247.347 98.108 253.392C102.795 256.972 108.421 259.513 113.451 262.821C116.475 264.811 119.511 267.441 122.783 267.714C123.247 269.294 126.304 268.866 125.968 269.928C128.045 269.758 130.468 270.636 132.822 271.416C124.444 264.916 114.034 258.934 104.38 252.601C99.8388 249.626 96.2322 245.831 92.2693 243.157C89.0426 240.99 81.0392 236.716 87.1503 231.709C87.7175 231.356 88.322 231.066 88.9527 230.845C94.7823 229.217 102.32 232.079 109.522 233.074C114.644 233.773 118.356 231.604 122.286 230.012C125.471 226.772 127.531 223.159 127.784 219.119C128.411 218.37 129.445 219.249 130.257 219.297C132.104 216.399 132.233 213.938 132.692 211.394C131.327 204.767 132.875 197.837 133.923 190.876C134.443 187.639 134.02 184.431 134.737 181.38C135.712 177.376 137.891 172.713 138.643 168.281C138.891 165.721 138.911 163.143 138.702 160.579C138.445 153.886 137.173 147.271 134.928 140.96C134.94 131.661 130.805 123.418 127.117 115.062C126.577 114.532 125.69 114.089 125.493 113.454C124.689 113.131 125.038 112.497 125.479 111.848C123.801 111.132 123.484 110.061 122.577 109.158C122.536 108.859 122.598 108.554 122.752 108.295C122.906 108.035 123.143 107.835 123.425 107.727C121.667 104.763 119.536 101.34 117.684 97.8723C116.43 95.5446 116.078 92.7144 114.741 90.3375C112.874 86.9251 110.698 83.6911 108.24 80.6762C105.68 77.5734 102.358 74.7884 100.219 71.4024C99.3688 70.0712 98.8798 68.5336 97.91 67.145C95.1896 63.2329 93.073 58.934 91.6313 54.3924C92.242 50.2698 92.6619 45.5714 96.1845 41.313C98.3669 38.6278 101.92 37.3168 104.033 35.6696C106.592 36.4594 108.704 35.639 111.208 36.0735C111.379 35.3526 111.728 34.6863 112.224 34.1357C112.72 33.585 113.346 33.1678 114.045 32.9222C117.945 26.351 120.239 15.0001 126.96 12.2477C130.418 10.3192 134.267 12.9962 139.085 14.6082C141.913 15.5579 146.138 16.3976 148.222 18.7421C152.361 19.7269 155.736 23.51 160.087 26.4285C169.427 32.7008 181.277 40.0566 178.69 49.3976C179.205 49.8292 179.212 48.2355 179.83 49.1069C177.433 56.5701 171.752 62.9534 167.212 70.9106C170.481 78.9337 171.431 87.0382 166.66 95.7137C165.978 96.8642 165.092 97.4596 164.577 98.6816C163.391 101.552 163.449 105.021 162.059 107.811C159.995 111.927 157.064 115.779 155.609 119.765C154.297 123.345 151.795 127.018 150.105 130.668C149.293 132.415 149.021 134.384 148.219 135.996C146.1 140.274 142.966 144.091 140.169 147.953C139.67 147.447 140.251 146.138 140.676 146.012C139.961 145.517 138.832 145.127 138.672 144.5C139.558 149.525 140.541 156.275 141.509 161.965C140.942 162.778 141.268 163.364 140.86 164.145C141.67 168.732 139.076 175.392 137.656 180.926C135.685 189.154 134.582 197.566 134.365 206.024C134.251 210.16 134.931 214.517 133.231 218.231C131.77 221.471 129.586 223.356 128.233 225.566C124.902 230.989 119.764 233.364 114.097 235.214C108.472 234.679 103.17 233.859 96.9879 233.105C94.2929 232.781 89.674 231.259 88.1565 233.344C86.8257 235.161 88.862 237.799 90.4624 239.211C93.7942 242.17 99.5272 244.129 102.096 248.373C110.809 254.946 121.363 260.495 128.489 266.294C128.969 266.691 129.65 266.983 129.495 267.858C130.962 267.748 133.01 269.398 133.645 270.643C133.925 270.809 134.1 270.325 134.308 270.07C136.448 272.532 140.213 274.289 142.552 276.252C140.643 276.114 139.315 274.219 138.022 273.564C136.031 272.55 134.076 273.128 131.991 272.886C128.575 272.455 125.067 270.738 121.531 269.256C110.997 264.854 99.6412 257.161 89.9983 250.219C84.1836 245.997 79.5514 240.352 76.546 233.825C76.3654 230.634 77.5135 226.929 81.1121 225.589C88.1832 222.932 94.7579 224.984 103.892 227.896C110.086 229.834 114.513 229.743 119.413 226.162C123.716 222.998 123.507 216.903 124.381 212.361C124.765 210.249 125.49 208.367 125.677 206.375C125.923 203.718 125.198 200.807 126.875 198.382C126.385 185.912 135.209 171.093 133.961 158.789C130.04 153.589 125.287 148.609 121.929 143.238C122.165 142.439 121.169 141.946 121.966 141.004C120.702 140.772 119.47 140.699 118.149 140.35C117.731 141.055 117.722 142.676 116.637 142.354C115.605 142.512 116.496 140.869 116.294 140.216C114.691 140.274 112.902 139.604 111.348 139.86C115.548 147.118 120.839 156.103 128.338 161.156C129.029 162.519 128.999 165.332 126.983 166.154C127.348 168.067 128.807 168.512 130.227 169.355C130.21 169.791 130.085 170.215 129.863 170.59C129.64 170.964 129.328 171.277 128.954 171.501C128.016 171.547 127.23 170.155 126.625 169.474C125.739 170.966 124.86 172.07 123.4 171.106C123.09 172.407 122.987 173.762 121.896 174.726C121.516 174.681 121.151 174.557 120.822 174.362C120.494 174.167 120.21 173.905 119.989 173.594C119.994 175.097 119.866 175.596 118.588 177.584C117.833 178.075 116.886 177.807 115.973 177.644C115.543 179.407 113.312 183.521 110.618 181.235C110.142 184.541 106.421 187.434 103.562 188.26C97.5092 195.151 97.068 202.318 92.9256 208.353C90.2275 208.672 88.3423 210.384 85.528 211.04C74.771 213.626 59.7048 207.249 48.3374 199.339C45.3115 197.234 41.6722 193.519 38.9906 191.212C38.071 190.4 35.422 184.119 35.1558 182.489C34.6151 179.197 35.9456 176.034 36.7093 172.787C37.3434 172.238 37.5997 173.105 37.9459 172.876C39.7452 168.758 41.4541 166.044 42.6456 162.785C39.6564 158.825 40.6589 152.79 42.2004 148.351C44.3076 151.129 41.9451 156.763 44.202 160.163C44.8535 161.096 44.6655 160.256 45.5354 160.632C45.4678 161.195 45.2743 161.781 45.5432 162.248C53.374 170.638 67.2518 177.459 79.3186 182.939C85.6512 185.829 92.5117 187.382 99.4714 187.5C100.028 186.303 101.399 186.92 102.175 186.204C103.674 184.907 104.951 186.604 106.666 184.706ZM176.955 47.3863C177.857 43.1983 169.338 35.3532 164.456 31.5587C159.316 27.6184 153.939 23.9965 148.356 20.7134C138.641 15.2842 125.306 8.96696 122.662 20.6006C123.164 26.2247 127.948 30.8444 133.884 35.3202C139.184 39.307 145.214 45.0163 150.899 47.3394C152.71 48.0914 153.878 47.7055 155.556 48.1832C162.726 50.0837 168.813 53.9489 173.145 52.1753C173.776 50.8535 176.347 50.0392 176.913 47.3617L176.955 47.3863ZM164.195 69.4284C165.054 69.6579 165.481 69.0564 165.991 68.5744C169.409 65.319 172.727 58.0519 175.319 54.4883C175.377 54.271 175.288 54.0916 174.983 53.9669C173.036 54.7452 170.815 54.5202 168.722 54.7638C161.114 52.8695 152.548 51.0088 144.367 46.4197C137.573 42.6116 131.594 36.7925 125.92 31.9249C124.544 33.9117 122.9 39.7053 120.826 40.5069C120.872 37.5487 123.154 33.5628 125.005 30.751C124.598 30.2123 124.133 29.7202 123.619 29.2838C121.174 34.1118 120.742 41.0736 117.473 43.9831C117.657 38.8084 121.582 32.9523 121.809 28.5318C121.599 28.8842 121.385 29.4578 121.01 29.3335C121.409 27.6222 122.466 24.6612 120.135 24.3148C118.272 29.1655 115.94 33.8227 113.171 38.2201C113.896 47.0595 119.753 54.3344 127.722 60.3672C129.469 61.6983 133.224 62.5258 133.799 64.2966C136.524 64.8065 140.046 68.2003 143.127 69.833C149.19 71.1187 156.899 75.6521 162.222 71.8315C163.03 72.3113 163 72.882 163.794 72.4421C164.24 71.4952 164.367 70.4288 164.153 69.4038L164.195 69.4284ZM109.339 38.1599C109.449 37.9733 109.695 38.0073 109.957 38.2044L109.249 39.3964C108.164 38.8641 106.912 37.6443 106.106 38.1753C107.251 39.8359 109.727 41.1656 111.489 42.6599C112.43 41.7604 110.706 37.1074 109.297 38.1353L109.339 38.1599ZM165.402 73.3687C164.71 73.8267 164.019 74.2579 163.317 74.7098C162.883 74.3237 162.325 74.1069 161.745 74.0993C154.58 76.2274 147.063 76.9033 139.634 76.0873C132.205 75.2713 125.013 72.9798 118.482 69.3473C122.567 72.571 129.849 75.6036 134.001 77.9134C136.051 77.9215 138.065 78.4556 139.849 79.4646C149.249 80.0398 159.6 81.2078 166.086 73.7747L165.402 73.3687ZM103.481 44.6763C106.28 48.1315 112.049 51.1632 116.06 52.7873C114.565 50.961 114.03 47.9663 112.081 45.9127C109.676 43.3776 105.93 42.1077 104.262 39.0151C102.58 40.8339 102.127 42.9899 103.481 44.6763ZM152.485 81.4837C143.344 82.7159 134.13 81.2841 123.907 74.8239C125.803 76.6359 128.002 78.3617 129.722 80.2097C130.211 79.613 130.904 79.2197 131.666 79.1069C134.634 80.7422 138.439 81.865 141.422 83.2853C142.14 82.9263 144.497 83.5827 146.182 84.4986C147.564 84.366 148.877 83.9959 150.601 85.201C152.69 84.6329 154.712 85.2165 156.727 84.6322C160.253 83.6273 162.892 80.9047 166.396 79.747C165.129 83.298 161.533 85.0598 159.111 86.0471C150.821 89.4105 140.736 84.5598 131.017 81.2866C134.413 84.7038 136.289 85.8172 139.355 88.4918C149.277 88.0454 160.521 92.6446 167.768 81.8509C167.367 80.0007 167.345 78.0537 166.184 76.3973C162.041 80.7786 157.566 80.7855 152.485 81.4837ZM99.5619 40.4163C99.7939 40.4907 100.007 40.6135 100.189 40.7766C100.37 40.9396 100.514 41.1392 100.612 41.3621C100.855 40.623 102.049 39.6499 101.647 39.0751C100.902 39.2916 100.28 40.0573 99.5619 40.4163ZM108.729 64.526C112.135 66.1551 113.218 69.7135 115.744 72.2356C116.621 73.1203 117.983 73.5644 118.94 74.4549C121.794 77.2979 123.666 81.4644 127.801 83.9189C127.544 84.3446 127.158 84.6772 126.699 84.8686C126.241 85.06 125.733 85.1002 125.249 84.9832C112.94 72.0713 99.9852 59.3506 96.653 44.184C95.7161 46.6834 97.2314 49.7271 98.1623 52.4801C98.9121 55.212 99.9301 57.8632 101.202 60.3948C104.994 66.8507 110.932 72.7155 115.106 79.2853C116.247 81.0699 116.897 82.9974 118.358 84.1025C123.229 87.8206 129.526 85.7834 134.759 87.4037C130.766 85.3702 128.224 81.885 126.127 79.7018C121.788 75.2061 117.06 71.6713 113.525 66.7417C110.239 62.1706 106.187 58.182 104.114 54.4009C102.042 50.6198 101.9 45.6864 99.2494 42.5014C98.83 51.615 105.98 56.7835 108.729 64.526ZM104.186 48.3048C105.145 49.4764 105.261 50.8628 106.164 52.0574C106.57 51.3733 106.884 50.8447 107.479 50.9039C110.541 55.7344 118.162 58.6456 123.338 60.0078C118.434 55.6119 109.384 53.1975 104.218 48.3232L104.186 48.3048ZM152.354 91.3855C140.498 90.1089 128.054 90.6004 115.82 85.1192C113.467 81.9989 111.422 78.7386 108.983 74.9365C107.084 71.9732 104.178 69.548 102.257 66.7398C101.465 65.2767 100.748 63.7748 100.107 62.2397C99.1994 60.5801 97.8797 59.096 97.3273 57.689C96.413 55.3803 96.3973 52.5258 95.6215 50.2433C95.4119 49.6283 95.4094 48.2393 94.5291 48.3055C92.6111 53.5443 94.5668 56.6252 96.3446 60.9741C97.7193 63.8985 99.4366 66.6491 101.46 69.1682C106.253 75.8529 113.558 82.7674 116.139 89.4709C134.239 94.397 151.723 96.3929 166.998 88.4154C166.757 87.4037 167.762 86.0656 167.362 85.0857C163.065 89.9638 157.635 90.3288 152.385 91.404L152.354 91.3855ZM112.31 61.185C113.276 62.6274 114.927 63.8597 115.61 65.4005C118.329 65.5426 120.238 67.923 122.426 69.1238C131.574 74.0906 140.502 74.6101 148.616 74.3522C136.289 67.2323 125.844 70.2133 112.546 61.3534C112.946 60.6797 110.726 60.3575 112.069 61.0704L112.31 61.185ZM110.159 56.685C109.01 55.8348 108.328 54.1968 106.866 54.0859C107.995 56.3616 109.481 58.4412 111.269 60.2454C111.626 59.6442 111.256 59.2285 112.074 59.4333C120.075 64.1824 127.295 65.7622 134.483 67.2533C126.792 60.8946 117.276 61.9323 110.215 56.662L110.159 56.685ZM116.972 91.3252C117.763 92.355 118.095 93.5895 118.842 94.6918C121.276 94.4404 123.649 95.7788 126.193 96.4757C128.737 97.1725 131.225 97.4438 133.544 98.2595C142.467 98.622 151.519 99.5234 159.707 97.0389C160.405 96.8785 159.877 96.327 160.556 95.6086C161.686 95.7557 162.835 95.6693 163.93 95.3547C164.705 94.0487 165.645 92.6304 165.19 91.6032C150.588 97.2892 134.367 96.5193 117.003 91.3437L116.972 91.3252ZM119.561 96.7161C119.937 97.8683 120.487 98.956 121.193 99.9412C121.403 99.3511 121.417 98.3361 122.28 98.6524C124.641 100.838 127.29 100.224 130.081 100.717C135.24 101.709 140.463 102.332 145.711 102.579C147.426 102.617 149.242 102.321 151.081 102.221C154.466 102.043 162.998 102.216 161.552 98.1339C148.929 103.06 134.412 100.457 119.592 96.7346L119.561 96.7161ZM88.8212 58.513C89.6347 58.3231 89.301 57.7046 88.9207 57.2827C88.516 57.7993 88.4435 58.2048 88.8212 58.513ZM121.656 100.861C126.437 105.534 133.188 105.967 139.649 106.368C142.596 106.772 145.561 107.026 148.533 107.128C151.375 107.063 155.371 107.178 157.299 106.528C158.485 106.111 159.129 104.223 160.518 104.906C159.562 109.02 153.559 109.074 150.285 109.135C148.419 109.162 146.302 108.761 144.103 108.689C138.628 108.467 130.808 108.017 124.859 105.313C124.814 106.48 125.117 107.634 125.729 108.629C126.342 109.624 127.236 110.414 128.298 110.9C129.221 111.069 128.82 109.808 129.862 109.894C131.49 110.622 132.122 111.613 133.535 112.396C137.776 112.335 142.211 113.719 146.367 113.565C149.564 113.444 153.059 110.767 155.692 112.021C151.339 117.16 143.359 114.877 137.184 115.529C141.413 119.314 146.683 123.564 151.553 124.38C153.865 118.477 156.51 111.54 161.116 107.181C161.243 105.645 161.634 103.285 161.705 102.387C149.373 105.973 135.899 104.941 121.656 100.861ZM101.816 77.873C96.6427 72.728 94.1746 65.811 90.2346 61.0198L89.8102 61.735C93.3327 68.7172 96.9544 75.6741 103.252 81.9485C103.546 80.3431 101.732 79.3368 101.841 77.8315L101.816 77.873ZM85.202 60.2894C85.3523 64.0507 86.5392 65.8765 88.2386 69.8144C90.4249 74.8682 93.2939 80.0469 99.8801 80.5921C97.6123 78.5452 95.6479 76.1853 94.0464 73.5838C93.8742 73.874 93.652 74.1066 93.297 73.7837C92.2101 71.5453 90.8594 69.4449 89.2736 67.5274C88.3834 64.6584 88.9467 61.4187 86.6692 58.9037C86.3137 59.7859 85.7311 59.8466 85.2266 60.248L85.202 60.2894ZM82.2892 66.2833C83.2068 70.5702 84.8998 77.0691 90.2735 77.7917C87.9487 73.6088 84.9322 69.5759 83.9948 65.0391C83.5101 65.6904 82.8614 65.768 82.3138 66.2419L82.2892 66.2833ZM89.4513 85.6711C92.6812 90.1649 96.3812 94.3013 100.488 98.0104C100.302 98.867 101.206 99.4456 101.45 100.193C108.863 106.948 114.278 113.175 121.385 119.761C120.05 116.963 118.963 114.053 118.137 111.064C106.801 101.753 96.3256 91.4402 86.8374 80.2514C83.7568 76.6571 82.2227 72.677 79.942 69.0809C80.0387 75.4594 85.0233 79.5532 89.4759 85.6297L89.4513 85.6711ZM110.475 92.024C108.883 89.4395 108.051 86.6612 105.785 84.7414C105.154 84.7732 104.524 84.6672 103.938 84.4309C103.352 84.1945 102.825 83.8334 102.392 83.3727C100.677 83.476 98.7327 82.7143 96.8892 82.349C97.02 83.7581 98.2849 85.0274 99.2259 85.9923C103.767 90.6215 109.905 95.1335 114.116 99.9875C114.442 96.8874 112.003 94.431 110.499 91.9825L110.475 92.024ZM104.761 94.0708C103.754 92.7754 102.635 91.5716 101.416 90.4736C97.2439 86.4979 94.2158 81.3509 89.588 80.5524C95.9279 85.7869 99.9905 93.2999 106.531 98.6677C109.91 101.43 113.605 103.917 116.735 106.98C116.868 105.055 115.443 103.536 115.015 101.755C114.603 102.449 113.943 102.31 113.354 102.381C111.676 99.1144 107.417 97.5535 104.761 94.0708ZM87.4921 92.231C93.4668 98.4822 97.3854 105.293 104.436 110.346C104.897 112.639 107.379 113.369 109.201 114.786C110.169 115.515 110.637 116.83 111.609 117.813C116.627 122.917 121.962 127.699 127.583 132.13C125.788 129.316 124.338 126.295 123.266 123.134C119.409 121.154 116.356 117.631 113.204 114.583C100.08 102.135 88.3012 88.3415 78.0611 73.4307C75.6458 80.9953 85.8248 86.3499 87.4921 92.231ZM83.9472 96.5743C86.8696 99.9627 91.4319 103.469 93.4125 108.303C95.4498 109.349 97.0413 111.095 97.8946 113.22C109.271 123.406 117.573 133.197 131.187 142.328C130.259 140.137 129.502 137.894 128.683 135.684C128.111 135.6 127.545 135.47 126.993 135.297C123.33 130.629 118.505 126.574 113.782 122.299C109.059 118.024 104.678 113.125 99.9811 108.642C97.6159 106.369 95.103 104.345 93.0182 101.93C90.9334 99.5154 89.6974 96.9457 87.7224 94.5822C83.3568 89.3982 77.8992 82.7953 75.6743 77.4522L74.9592 77.0278C72.8197 84.3637 81.8049 89.4863 83.9718 96.5328L83.9472 96.5743ZM128.432 113.32C132.368 119.062 141 125.937 148.845 129.934C148.879 129.312 149.039 128.703 149.315 128.144C149.591 127.585 149.978 127.088 150.452 126.683C141.798 124.308 137.311 114.441 128.456 113.278L128.432 113.32ZM146.573 134.305C146.992 133.151 148.076 132.505 147.988 131.921C142.612 128.015 135.665 122.504 130.926 118.893C133.409 126.211 139.818 131.234 146.573 134.305ZM69.8353 86.1804C69.513 86.9645 69.4505 87.8312 69.6569 88.6535C72.3383 90.8896 76.4146 93.9397 80.6124 95.1557C79.4692 91.674 72.6394 88.5875 69.823 86.2011L69.8353 86.1804ZM144.368 139.107C145.613 137.953 145.154 137.499 145.827 136.104C141.578 133.961 138.091 130.531 134.703 128.871C134.814 133.927 141.941 135.213 144.345 139.121L144.368 139.107ZM69.5148 90.4752C68.8381 91.6153 67.35 89.9192 66.5203 90.6322C66.4569 92.1747 66.0086 93.6769 65.2162 95.002C70.958 100.512 82.3104 106.157 90.9679 108.029C89.4545 104.51 86.3014 104.321 83.1115 103.366C77.5722 101.719 71.0224 98.42 67.1602 93.8992C67.313 93.4292 67.3082 91.9968 67.9122 92.089C72.2376 97.0809 80.2514 99.6367 85.7567 101.082C81.4475 96.0157 73.2596 96.398 69.4798 90.5105L69.5148 90.4752ZM141.15 143.938C141.841 142.442 142.795 142.111 143.511 140.504C141.306 138.649 138.979 136.945 136.545 135.403C137.617 138.295 136.696 142.682 141.146 143.992L141.15 143.938ZM92.6889 110.018C82.3826 109.577 69.2055 103.607 63.6968 95.3895C63.0676 96.0953 62.2868 96.2066 61.8051 97.4905C62.7343 99.4435 66.4138 102.076 69.7662 104.15C77.9718 109.216 89.9514 114.182 97.6479 115.218C96.0848 113.417 94.4282 111.699 92.6851 110.072L92.6889 110.018ZM100.319 118.415C97.3718 118.446 94.0666 117.143 90.3329 115.712C79.2411 111.399 67.9242 107.135 60.6043 99.679C60.2756 102.731 59.3895 105.697 57.99 108.429C58.4588 107.922 58.9128 107.323 59.6406 107.797C72.5454 119.941 93.7483 124.929 109.511 127.417C108.479 126.061 106.688 124.9 105.689 123.536C95.3127 123.993 80.3311 118.017 68.7362 110.939C66.031 109.333 59.1534 105.335 61.3888 102.065C63.7334 103.05 63.9868 103.733 63.9322 104.864C75.6574 114.107 91.199 120.038 103.212 121.169C101.994 120.292 101.456 119.286 100.274 118.444L100.319 118.415ZM113.233 130.284C95.8712 128.389 73.403 122.062 57.6974 109.937C57.3263 111.861 59.7937 113.017 61.6059 114.191C71.468 120.772 82.2941 125.779 93.6956 129.032C99.5757 130.89 105.561 132.397 111.62 133.546C113.469 133.83 115.771 134.131 116.849 133.426C115.52 132.497 114.282 131.443 113.153 130.279L113.233 130.284ZM119.304 135.807C118.881 135.669 118.746 136.275 118.402 136.24C116.417 136.243 114.433 136.142 112.458 135.935C95.5746 132.502 78.0507 127.007 61.1031 116.668C59.2581 115.573 57.3201 113.596 54.7293 113.852C53.7401 117.077 58.1265 118.826 60.1204 119.953C62.9143 121.527 66.2169 122.716 68.9781 123.921C74.8981 126.509 81.1421 129.851 87.0594 131.429C99.1465 134.678 111.571 138.044 122.158 138.413C120.966 137.565 120.552 136.254 119.264 135.826L119.304 135.807ZM123.697 141.961C127.018 145.81 128.963 150.987 133.014 153.938C132.025 149.889 125.874 145.495 125.358 141.335C124.831 141.821 124.149 141.529 123.657 141.98L123.697 141.961ZM131.941 148.143C132.332 146.161 130.095 144.665 128.509 144.172C129.728 145.45 130.878 146.792 131.953 148.193L131.941 148.143ZM122.541 159.635C117.625 153.915 112.689 147.565 110.557 141.31C109.555 140.827 108.816 140.277 109.075 139.463C109.161 139.318 109.241 139.184 108.978 139.083C107.254 139.154 105.234 138.095 103.468 138.07C105.197 142.502 109.113 146.648 112.703 151.274C116.149 155.716 119.954 161.184 124.059 164.139C125.401 165.089 125.699 165.602 126.867 164.838C126.593 162.349 123.978 161.371 122.502 159.654L122.541 159.635ZM122.243 165.569C118.86 161.823 115.309 157.698 111.921 153.655C107.634 148.503 103.795 142.993 100.446 137.187C96.1718 136.36 93.2243 134.667 89.7908 135.068C91.5004 140.287 94.6155 144.603 99.0716 149.28C105.931 156.449 113.043 164.398 121.095 170.761C121.851 168.757 119.48 167.532 118.413 166.59C114.336 162.916 110.547 158.933 107.08 154.678C102.372 149.151 97.0716 144.267 96.2585 137.631C97.2051 137.17 97.7973 136.526 98.5377 137.05C99.5742 137.665 98.1332 138.912 98.5978 139.664C103.946 150.631 115.323 160.201 124.226 169.69C125.863 167.9 123.091 166.62 122.203 165.588L122.243 165.569ZM87.9561 136.53C87.4912 135.707 88.6841 134.453 87.6576 133.774C85.6939 133.203 83.773 132.494 81.9093 131.652C82.9128 134.614 84.4357 137.373 86.4069 139.801C90.751 145.659 94.4629 152.039 101.166 157.251C104.243 163.001 111.417 167.988 116.53 173.139C116.164 174.323 115.079 174.451 115.263 175.274C116.051 175.601 116.863 175.867 117.692 176.071C119.296 174.052 117.494 172.744 118.519 171.418C106.743 160.182 93.8419 149.26 87.9169 136.549L87.9561 136.53ZM73.9984 128.568C73.0817 130.939 73.6068 131.826 75.452 134.266C77.1348 136.485 77.686 138.059 78.9079 139.849C82.0811 144.408 85.7157 148.627 89.754 152.44C90.2713 152.985 90.1011 153.697 90.6184 154.242C96.0805 158.759 98.8925 161.956 104.401 166.277C103.977 167.133 105.393 167.51 105.124 168.318C107.509 169.495 109.8 175.718 114.169 174.331C100.426 161.072 87.8929 147.523 79.5421 132.854C79.3464 132.121 80.363 132.037 80.7709 131.326C78.6435 130.091 76.3495 129.169 73.9592 128.587L73.9984 128.568ZM60.3942 122.75C62.8008 131.944 70.4732 139.609 76.1382 147.232C85.3073 154.075 88.8091 162.769 100.132 169.195C99.8213 171.183 101.144 170.608 101.992 172.556C103.605 173.191 103.612 173.629 104.57 174.73C107.222 174.37 110.064 179.855 113.707 178.864C108.468 174.606 103.616 169.892 99.2078 164.778C93.8458 158.723 86.5354 154.131 82.0721 147.53C77.6087 140.928 72.6472 135.615 70.776 128.59C70.5741 127.867 71.2202 127.676 71.6249 127.16C67.5987 125.513 63.228 124.446 60.355 122.769L60.3942 122.75ZM59.9887 128.298C59.3713 125.844 57.6596 123.65 54.1147 121.925C54.5663 123.349 55.3219 124.659 56.3294 125.762C57.3368 126.866 58.572 127.738 59.9495 128.317L59.9887 128.298ZM61.4791 131.762C60.9728 131.363 59.6051 131.07 58.4873 130.308C56.0652 128.675 54.2782 125.428 52.41 126.379C55.8117 130.807 60.1844 134.395 65.1911 136.866C63.9003 135.806 63.3072 133.239 61.4399 131.781L61.4791 131.762ZM51.7911 131.814C56.4837 138.384 67.635 146.516 75.6204 149.167C72.2437 146.143 69.1604 142.807 66.4115 139.202C65.4946 138.952 65.7951 140.406 64.5121 139.687C60.2522 137.141 56.332 134.065 52.8453 130.534C52.5848 131.374 52.0737 131.267 51.7518 131.833L51.7911 131.814ZM59.6477 145.167C65.5598 149.581 72.2649 152.819 79.3985 154.703C79.3786 153.556 78.1902 152.724 77.2453 151.813C67.2464 150.406 57.5788 141.332 50.4662 133.999C48.5572 138.963 55.3546 141.75 59.6085 145.186L59.6477 145.167ZM81.7893 156.697C81.3877 156.57 81.1799 157.204 80.8881 157.129C69.1954 154.254 55.4344 148.062 48.3569 138.143C46.4669 138.423 45.1767 140.951 46.4284 142.479C47.4875 142.631 48.0666 140.971 49.229 141.562C49.5546 142.218 48.7179 143.179 48.8123 143.894C55.4158 147.196 61.5083 150.841 67.9518 153.964C69.6175 154.771 71.4697 154.791 73.1782 155.454C77.3097 157.065 81.0506 160.421 85.4071 159.811C83.9366 159.219 83.1703 157.18 81.7501 156.715L81.7893 156.697ZM89.0907 163.287C84.7235 162.096 80.0883 161.924 75.7087 159.857C66.9555 155.713 57.4969 150.562 48.3821 146.862C49.5475 147.638 49.4411 148.738 49.9128 149.691C56.2488 154.979 64.7298 158.401 72.7696 161.645C80.5361 164.783 88.4613 168.267 95.4556 168.999C93.2972 168.054 91.2496 163.923 89.0929 163.33L89.0907 163.287ZM98.013 172.128C98.0991 171.983 98.1791 171.848 97.9161 171.748C97.7316 172.059 97.3723 171.72 97.1563 171.942C96.3314 172.112 95.4753 172.051 94.6833 171.764C86.6837 168.712 78.4894 167.759 70.4255 163.8C62.7882 159.996 51.091 155.31 46.5106 149.283C46.3167 151.971 49.0573 154.061 50.7724 155.681C52.9636 157.694 55.377 159.451 57.966 160.918C68.3861 166.976 80.6139 171.122 90.8984 174.339C94.2017 173.496 98.3203 175.436 101.869 175.384C100.097 174.473 99.4259 173.219 98.0153 172.172L98.013 172.128ZM103.873 176.896C90.7067 178.346 75.8172 173.04 60.3653 165.565C63.6242 168.411 67.7606 170.179 71.7665 172.332C74.962 174.033 78.0855 176.657 81.2917 177.986C84.4978 179.314 88.1387 179.485 90.7045 180.026C97.8161 181.528 104.144 185.508 108.652 180.699C107.636 179.129 106.423 178.409 103.875 176.939L103.873 176.896ZM97.5201 189.229C93.0353 189.948 88.4395 189.443 84.2178 187.767C70.7779 182.594 52.8993 174.673 44.0241 164.879C42.1586 168.565 40.4715 171.951 38.4753 176.4C38.2785 176.732 38.6096 177.685 38.3416 178.255C37.867 179.291 37.1705 178.457 37.022 179.392C36.7412 181.188 38.3646 186.104 39.5234 187.646C40.6821 189.189 43.7044 190.969 46.0645 193.463C47.8932 195.65 49.9557 197.631 52.2153 199.37C58.3944 203.388 64.7347 205.244 70.2966 206.878C72.6772 207.59 74.7993 208.737 76.7254 209.081C81.4465 209.935 85.9462 207.714 89.2556 206.861C90.6798 202.1 96.5717 195.786 98.1938 189.629L97.4787 189.205L97.5201 189.229Z" fill="#C2C2C2"/>
<path d="M142.115 276.751L142.118 276.751C143.528 276.949 144.928 277.146 146.318 277.342C182.105 282.379 211.45 286.51 248.426 283.988C286.88 281.366 320.586 268.968 354.331 254.292C418.617 226.361 486.613 201.202 559.354 196.863L559.309 196.114L559.354 196.863C594.947 194.736 630.628 198.149 664.342 208.237C677.507 212.176 690.356 216.67 703.208 221.164C707.583 222.694 711.958 224.224 716.346 225.732C733.612 231.667 751.055 237.258 769.367 241.139L769.367 241.139C840.81 256.232 915.848 253.299 985.379 232.695L985.381 232.695C1002.51 227.571 1019.17 221.458 1035.8 215.354L1036.82 214.981C1053.8 208.751 1070.76 202.552 1088.21 197.424L1088.22 197.423C1122.12 187.248 1158.08 183.034 1193.94 185.037C1229.39 187.148 1263.95 195.46 1295.47 209.455C1306.76 214.496 1317.63 220.091 1328.51 225.687C1333.2 228.103 1337.9 230.519 1342.63 232.892C1358.3 240.751 1374.31 248.108 1391.78 253.275L1392 252.556L1391.78 253.275C1409.06 258.38 1426.97 261.721 1445.16 263.227C1462.31 264.648 1481.4 265.416 1498.42 262.071C1506.9 260.407 1512.63 256.69 1516.88 251.767C1521.11 246.869 1523.85 240.805 1526.42 234.511C1530.62 224.191 1535.95 215.28 1545.57 207.983C1555.15 200.71 1566.48 195.647 1578.3 191.178C1582.61 189.55 1586.99 187.996 1591.38 186.443C1598.98 183.751 1606.58 181.058 1613.79 177.97C1625.1 173.14 1636.11 167.294 1644.74 159.16C1645.64 158.31 1646.52 157.444 1647.38 156.567C1656.34 168.827 1667.17 180.23 1680.44 190.423L1680.9 189.828L1680.44 190.423C1691.01 198.527 1704.99 206.718 1720.03 212.008C1735.06 217.297 1751.21 219.709 1766.08 216.172C1775.35 213.965 1780.55 209.582 1782.76 203.888C1784.96 198.246 1784.13 191.501 1781.76 184.701C1777.02 171.096 1765.93 156.783 1758.85 149.366L1758.51 149.686L1758.85 149.366C1741.31 131.017 1718.19 116.072 1688.61 119.153C1671.76 120.91 1659.62 128.671 1649.66 139.971C1647.57 142.341 1645.5 144.627 1643.4 146.826C1633.23 129.68 1626.44 110.719 1621.11 92.616C1616.8 77.9626 1613.41 63.1127 1610.02 48.2494L1610.02 48.2478C1609.85 47.5016 1609.34 46.8961 1608.8 46.4082C1608.26 45.9146 1607.59 45.4549 1606.97 45.0324L1606.97 45.028C1606.33 44.5897 1605.75 44.1897 1605.29 43.7805C1604.83 43.3685 1604.6 43.0334 1604.54 42.7565C1604.54 42.7531 1604.54 42.7496 1604.53 42.7461L1604.53 42.7461C1604.53 42.7459 1604.53 42.7457 1604.53 42.7454L1603.8 42.9127L1603.07 43.0792C1611.35 79.4111 1621.01 116.46 1641.8 148.476C1634.89 155.488 1627.48 161.555 1617.74 166.508L1617.74 166.509C1607.64 171.654 1596.75 175.537 1585.81 179.438C1584.26 179.989 1582.71 180.542 1581.16 181.098C1568.7 185.575 1556.33 190.306 1545.32 197.173C1534.77 203.558 1526.63 212.462 1521.94 222.791L1522.62 223.101L1521.93 222.791C1521.05 224.741 1520.22 226.759 1519.39 228.772C1518.92 229.908 1518.45 231.042 1517.97 232.161C1516.64 235.284 1515.23 238.332 1513.5 241.15C1510.06 246.764 1505.36 251.461 1497.54 253.912C1481.64 258.896 1461.04 257.675 1444.22 256.565C1424.62 255.268 1405.3 251.834 1386.72 246.346C1368.69 241.013 1352.2 233.303 1335.94 225.094C1331.98 223.096 1328.04 221.067 1324.09 219.036C1311.83 212.731 1299.53 206.403 1286.66 200.892C1218.19 171.524 1140.4 171.485 1069.6 194.413L1069.84 195.127L1069.6 194.413C1056.12 198.784 1042.85 203.638 1029.59 208.486C1025.21 210.089 1020.83 211.69 1016.45 213.274C998.792 219.651 981.031 225.737 962.64 230.406C926.02 239.669 887.963 244.128 849.773 243.63C811.578 243.171 773.687 237.763 737.397 227.593C723.112 223.565 709.234 218.62 695.337 213.668C691.336 212.242 687.334 210.816 683.32 209.411C665.378 203.132 647.225 197.284 628.045 193.859C552.971 180.385 475.557 198.199 406.792 223.529C391.331 229.221 376.285 235.734 361.264 242.235C359.132 243.158 357.001 244.081 354.869 245.001C337.706 252.406 320.498 259.646 302.613 265.512C265.379 277.704 225.91 279.405 186.445 276.315C167.047 274.787 151.401 272.676 132.165 269.967L131.953 271.452C132.321 271.505 132.969 271.785 133.861 272.277C134.707 272.744 135.672 273.344 136.664 273.96L136.714 273.992C137.714 274.613 138.739 275.249 139.652 275.749C140.535 276.232 141.421 276.651 142.115 276.751ZM1678.46 129.787C1708.51 118.184 1743.71 132.113 1760.57 154.572C1764.59 159.946 1768.96 166.194 1772.2 172.729C1775.45 179.271 1777.53 186.032 1777.03 192.444C1776.53 199.113 1772.61 203.644 1766.99 206.508C1761.34 209.386 1754.01 210.548 1746.91 210.417C1716.11 209.855 1686.77 194.606 1666.36 175.694L1666.1 175.974L1666.36 175.694C1659.62 169.462 1653.8 162.537 1648.72 155.16C1650.04 153.768 1651.3 152.357 1652.56 150.948C1653.02 150.42 1653.49 149.893 1653.96 149.367C1655.95 147.112 1657.92 144.883 1659.99 142.742C1665.08 137.47 1670.7 132.785 1678.46 129.787Z" stroke="#C2C2C2" stroke-width="1.5"/>
</svg>
