<svg width="1442" height="53" viewBox="0 0 1442 53" fill="none" xmlns="http://www.w3.org/2000/svg">
<circle cx="1415.5" cy="26.5" r="26.5" fill="#4D4D4D"/>
<path d="M1404 27C1404 27.2387 1404.1 27.4676 1404.27 27.6364C1404.44 27.8051 1404.67 27.8999 1404.92 27.8999H1422.87L1416.18 34.4628C1416.1 34.5464 1416.03 34.6457 1415.99 34.755C1415.94 34.8642 1415.92 34.9813 1415.92 35.0995C1415.92 35.2178 1415.94 35.3349 1415.99 35.4441C1416.03 35.5534 1416.1 35.6526 1416.18 35.7363C1416.27 35.8199 1416.37 35.8862 1416.48 35.9315C1416.59 35.9767 1416.71 36 1416.83 36C1416.95 36 1417.07 35.9767 1417.18 35.9315C1417.3 35.8862 1417.4 35.8199 1417.48 35.7363L1425.73 27.6367C1425.82 27.5531 1425.88 27.4539 1425.93 27.3446C1425.98 27.2354 1426 27.1183 1426 27C1426 26.8817 1425.98 26.7646 1425.93 26.6554C1425.88 26.5461 1425.82 26.4469 1425.73 26.3633L1417.48 18.2637C1417.31 18.0949 1417.08 18 1416.83 18C1416.59 18 1416.36 18.0949 1416.18 18.2637C1416.01 18.4326 1415.92 18.6616 1415.92 18.9005C1415.92 19.1393 1416.01 19.3683 1416.18 19.5372L1422.87 26.1H1404.92C1404.67 26.1 1404.44 26.1949 1404.27 26.3636C1404.1 26.5324 1404 26.7613 1404 27Z" fill="white"/>
<circle cx="26.5" cy="26.5" r="26" transform="matrix(-1 0 0 1 53 0)" stroke="#4D4D4D"/>
<path d="M38 27C38 27.2387 37.9034 27.4676 37.7315 27.6364C37.5596 27.8051 37.3265 27.8999 37.0834 27.8999H19.1299L25.8156 34.4628C25.9008 34.5464 25.9683 34.6457 26.0144 34.755C26.0605 34.8642 26.0842 34.9813 26.0842 35.0995C26.0842 35.2178 26.0605 35.3349 26.0144 35.4441C25.9683 35.5534 25.9008 35.6526 25.8156 35.7363C25.7304 35.8199 25.6293 35.8862 25.5181 35.9315C25.4068 35.9767 25.2875 36 25.1671 36C25.0466 36 24.9274 35.9767 24.8161 35.9315C24.7048 35.8862 24.6037 35.8199 24.5186 35.7363L16.2688 27.6367C16.1836 27.5531 16.116 27.4539 16.0699 27.3446C16.0237 27.2354 16 27.1183 16 27C16 26.8817 16.0237 26.7646 16.0699 26.6554C16.116 26.5461 16.1836 26.4469 16.2688 26.3633L24.5186 18.2637C24.6906 18.0949 24.9238 18 25.1671 18C25.4103 18 25.6436 18.0949 25.8156 18.2637C25.9876 18.4326 26.0842 18.6616 26.0842 18.9005C26.0842 19.1393 25.9876 19.3683 25.8156 19.5372L19.1299 26.1H37.0834C37.3265 26.1 37.5596 26.1949 37.7315 26.3636C37.9034 26.5324 38 26.7613 38 27Z" fill="#4D4D4D"/>
</svg>
