<svg width="121" height="81" viewBox="0 0 121 81" fill="none" xmlns="http://www.w3.org/2000/svg">
<path d="M112.08 17.2858C111.772 16.5251 111.243 15.874 110.562 15.416C109.881 14.958 109.079 14.7141 108.258 14.7156H77.9456C76.8518 14.7171 75.8033 15.1523 75.0299 15.9257C74.2565 16.6991 73.8214 17.7476 73.8198 18.8414V45.8633H69.9016V4.71255C69.8998 3.6188 69.4644 2.57039 68.6908 1.79718C67.9173 1.02396 66.8687 0.589039 65.7749 0.587769H4.77272C3.67914 0.589293 2.63077 1.02433 1.8574 1.79752C1.08403 2.5707 0.648752 3.61897 0.646973 4.71255V66.5449C0.648245 67.3595 0.972739 68.1403 1.5492 68.7159C2.12567 69.2914 2.90698 69.6147 3.72158 69.6147C3.74656 69.6147 3.77155 69.6147 3.79461 69.6147H13.8073C14.051 72.5432 15.3865 75.2732 17.5489 77.2631C19.7112 79.253 22.5425 80.3575 25.4812 80.3575C28.4198 80.3575 31.2511 79.253 33.4135 77.2631C35.5759 75.2732 36.9114 72.5432 37.1551 69.6147H83.7912C84.0349 72.5432 85.3704 75.2732 87.5328 77.2631C89.6951 79.253 92.5264 80.3575 95.4651 80.3575C98.4037 80.3575 101.235 79.253 103.397 77.2631C105.56 75.2732 106.895 72.5432 107.139 69.6147H115.66C117.944 69.6147 119.785 66.8283 119.785 64.5281V37.6839C119.786 36.6879 119.592 35.7013 119.215 34.7794L112.08 17.2858ZM117.867 54.9959H113.59C112.99 54.9959 112.415 54.7577 111.991 54.3337C111.567 53.9097 111.329 53.3347 111.329 52.7351C111.329 52.1355 111.567 51.5604 111.991 51.1365C112.415 50.7125 112.99 50.4743 113.59 50.4743H117.867V54.9959ZM110.3 18.0122L117.397 35.4029H97.576C97.2702 35.4029 96.9769 35.2815 96.7607 35.0652C96.5445 34.849 96.423 34.5557 96.423 34.25V16.6372H108.258C108.697 16.6366 109.126 16.7671 109.49 17.0121C109.854 17.2572 110.136 17.6054 110.3 18.0122ZM4.77272 2.5094H65.7749C66.359 2.51067 66.9189 2.74313 67.3321 3.15597C67.7453 3.56881 67.9782 4.12845 67.98 4.71255V45.8633H2.5686V4.71255C2.57038 4.12862 2.8032 3.56912 3.21619 3.15631C3.62919 2.7435 4.18878 2.51092 4.77272 2.5094ZM7.81178 59.6991H2.5686V55.7597L7.78007 55.7521C7.79395 55.7675 7.80452 55.7856 7.81113 55.8052C7.81774 55.8249 7.82025 55.8457 7.8185 55.8664V59.5924C7.8185 59.6558 7.79352 59.6924 7.81178 59.6991ZM3.71486 67.6902H3.66201C3.36799 67.675 3.09092 67.5479 2.88762 67.3349C2.68431 67.122 2.57017 66.8393 2.5686 66.5449V61.6207H7.8185C8.34172 61.6059 8.83773 61.3843 9.1979 61.0045C9.55808 60.6247 9.75305 60.1176 9.74013 59.5944V55.8645C9.75305 55.3412 9.55808 54.8341 9.1979 54.4543C8.83773 54.0745 8.34172 53.8529 7.8185 53.8381H2.5686V47.785H73.8198V67.6931H37.158C36.9143 64.7645 35.5788 62.0346 33.4164 60.0447C31.254 58.0548 28.4227 56.9503 25.4841 56.9503C22.5454 56.9503 19.7141 58.0548 17.5517 60.0447C15.3894 62.0346 14.0539 64.7645 13.8101 67.6931L3.71486 67.6902ZM25.4783 78.4561C23.54 78.4561 21.6452 77.8814 20.0335 76.8045C18.4219 75.7276 17.1657 74.197 16.424 72.4062C15.6822 70.6155 15.4881 68.6449 15.8663 66.7439C16.2444 64.8428 17.1778 63.0965 18.5484 61.7259C19.919 60.3553 21.6653 59.4219 23.5663 59.0438C25.4674 58.6657 27.4379 58.8597 29.2287 59.6015C31.0195 60.3433 32.5501 61.5994 33.627 63.211C34.7038 64.8227 35.2786 66.7175 35.2786 68.6558C35.2753 71.254 34.2417 73.7448 32.4045 75.582C30.5673 77.4192 28.0765 78.4528 25.4783 78.4561ZM95.467 78.4561C93.5287 78.4561 91.6339 77.8814 90.0222 76.8045C88.4106 75.7276 87.1544 74.197 86.4127 72.4062C85.6709 70.6155 85.4768 68.6449 85.855 66.7439C86.2331 64.8428 87.1665 63.0965 88.5371 61.7259C89.9077 60.3553 91.654 59.4219 93.5551 59.0438C95.4561 58.6657 97.4267 58.8597 99.2174 59.6015C101.008 60.3433 102.539 61.5994 103.616 63.211C104.693 64.8227 105.267 66.7175 105.267 68.6558C105.264 71.2539 104.23 73.7446 102.393 75.5818C100.556 77.4189 98.0651 78.4526 95.467 78.4561ZM115.662 67.6902H107.142C106.898 64.7617 105.563 62.0317 103.4 60.0418C101.238 58.0519 98.4066 56.9474 95.468 56.9474C92.5293 56.9474 89.698 58.0519 87.5356 60.0418C85.3733 62.0317 84.0378 64.7617 83.7941 67.6902H75.7415V18.8414C75.743 18.2573 75.9757 17.6975 76.3887 17.2845C76.8017 16.8715 77.3615 16.6388 77.9456 16.6372H94.5052V34.2538C94.5052 35.0692 94.8292 35.8513 95.4058 36.4279C95.9824 37.0045 96.7644 37.3284 97.5798 37.3284H117.836C117.843 37.4495 117.87 37.5676 117.87 37.6887V48.5536H113.594C112.485 48.5536 111.421 48.9943 110.636 49.7786C109.852 50.563 109.411 51.6268 109.411 52.736C109.411 53.8453 109.852 54.9091 110.636 55.6935C111.421 56.4778 112.485 56.9185 113.594 56.9185H117.867V64.5262C117.867 65.8483 116.756 67.6902 115.662 67.6902Z" fill="#4D4D4D" stroke="#4D4D4D" stroke-width="0.5"/>
<path d="M89.0228 39.6978H80.4907C79.9811 39.6978 79.4923 39.9002 79.1319 40.2606C78.7715 40.621 78.5691 41.1097 78.5691 41.6194V44.106C78.5691 44.6156 78.7715 45.1044 79.1319 45.4648C79.4923 45.8252 79.9811 46.0276 80.4907 46.0276H89.0228C89.5324 46.0276 90.0212 45.8252 90.3816 45.4648C90.7419 45.1044 90.9444 44.6156 90.9444 44.106V41.6194C90.9444 41.1097 90.7419 40.621 90.3816 40.2606C90.0212 39.9002 89.5324 39.6978 89.0228 39.6978ZM80.4907 44.106V41.6194H89.0228V44.106H80.4907Z" fill="#4D4D4D" stroke="#4D4D4D" stroke-width="0.5"/>
<path d="M25.4781 62.6266C24.2861 62.6266 23.1208 62.9801 22.1297 63.6423C21.1386 64.3045 20.366 65.2458 19.9098 66.3471C19.4536 67.4483 19.3342 68.6601 19.5667 69.8293C19.7992 70.9984 20.3731 72.0724 21.2159 72.9153C22.0587 73.7583 23.1326 74.3324 24.3017 74.5651C25.4708 74.7977 26.6826 74.6785 27.784 74.2225C28.8853 73.7664 29.8267 72.9941 30.4891 72.003C31.1515 71.012 31.5051 69.8468 31.5053 68.6547C31.5035 67.0567 30.868 65.5246 29.7381 64.3945C28.6082 63.2644 27.0762 62.6286 25.4781 62.6266ZM25.4781 72.7594C24.6661 72.7594 23.8723 72.5185 23.1971 72.0674C22.5219 71.6162 21.9957 70.975 21.685 70.2247C21.3743 69.4745 21.293 68.6489 21.4515 67.8525C21.61 67.056 22.0011 66.3245 22.5754 65.7504C23.1497 65.1762 23.8813 64.7853 24.6778 64.627C25.4742 64.4687 26.2997 64.5501 27.0499 64.861C27.8001 65.1719 28.4412 65.6983 28.8922 66.3736C29.3433 67.0488 29.5839 67.8427 29.5837 68.6547C29.5827 69.7432 29.1498 70.7868 28.38 71.5564C27.6103 72.3259 26.5666 72.7586 25.4781 72.7594Z" fill="#4D4D4D" stroke="#4D4D4D" stroke-width="0.5"/>
<path d="M95.4671 62.6266C94.2751 62.6264 93.1097 62.9797 92.1184 63.6418C91.1272 64.3039 90.3545 65.2451 89.8981 66.3464C89.4418 67.4476 89.3222 68.6595 89.5546 69.8287C89.787 70.9979 90.3608 72.0719 91.2036 72.915C92.0464 73.758 93.1203 74.3322 94.2894 74.565C95.4585 74.7977 96.6704 74.6786 97.7718 74.2226C98.8732 73.7665 99.8146 72.9942 100.477 72.0031C101.139 71.0121 101.493 69.8468 101.493 68.6547C101.492 67.0569 100.856 65.5249 99.7265 64.3948C98.5968 63.2648 97.065 62.6289 95.4671 62.6266ZM95.4671 72.7594C94.655 72.7595 93.8611 72.5189 93.1858 72.0678C92.5105 71.6168 91.9842 70.9756 91.6733 70.2254C91.3624 69.4751 91.2811 68.6496 91.4394 67.8531C91.5978 67.0566 91.9889 66.3249 92.5631 65.7507C93.1373 65.1765 93.869 64.7854 94.6654 64.6271C95.4619 64.4687 96.2875 64.5501 97.0377 64.8609C97.788 65.1718 98.4292 65.6982 98.8802 66.3735C99.3313 67.0488 99.5719 67.8427 99.5717 68.6547C99.5705 69.743 99.1376 70.7863 98.3681 71.5557C97.5986 72.3252 96.5553 72.7581 95.4671 72.7594Z" fill="#4D4D4D" stroke="#4D4D4D" stroke-width="0.5"/>
<path d="M31.0403 37.9038C33.3778 38.8487 35.9287 39.138 38.4185 38.7405C40.9082 38.343 43.2422 37.2737 45.1692 35.6479C47.0962 34.022 48.5431 31.9013 49.3541 29.514C50.1651 27.1268 50.3093 24.5635 49.7714 22.1003C49.7459 21.9755 49.6958 21.857 49.624 21.7518C49.5523 21.6465 49.4603 21.5566 49.3535 21.4872C49.2467 21.4178 49.1272 21.3703 49.0018 21.3476C48.8765 21.3248 48.7479 21.3272 48.6235 21.3546C48.4991 21.3819 48.3814 21.4338 48.2772 21.5071C48.173 21.5804 48.0844 21.6737 48.0166 21.7815C47.9489 21.8894 47.9032 22.0096 47.8823 22.1353C47.8614 22.2609 47.8657 22.3895 47.8949 22.5135C48.5095 25.3077 48.101 28.2297 46.7437 30.7483C45.3864 33.2668 43.1704 35.2147 40.4985 36.2378C37.8267 37.2609 34.8764 37.2912 32.1841 36.3233C29.4917 35.3554 27.2361 33.4535 25.8273 30.9634C24.4185 28.4733 23.95 25.5603 24.507 22.754C25.064 19.9477 26.6095 17.4345 28.8625 15.6712C31.1156 13.9079 33.9266 13.0116 36.7845 13.1453C39.6424 13.2791 42.3574 14.4339 44.436 16.3998L42.9842 16.2989C42.858 16.2902 42.7314 16.3064 42.6115 16.3467C42.4916 16.3869 42.3808 16.4504 42.2854 16.5335C42.0928 16.7012 41.9747 16.9386 41.9571 17.1934C41.9395 17.4483 42.0239 17.6996 42.1916 17.8923C42.3594 18.0849 42.5968 18.203 42.8516 18.2206L45.6735 18.4127C45.7187 18.4127 45.7638 18.4175 45.808 18.4175C46.2579 18.4173 46.6932 18.258 47.0369 17.9679L47.0609 17.9515C47.2546 17.7862 47.4133 17.5838 47.5276 17.3563C47.642 17.1287 47.7097 16.8806 47.7268 16.6266L47.9189 13.8402C47.9365 13.5854 47.8522 13.334 47.6844 13.1414C47.5167 12.9488 47.2793 12.8307 47.0244 12.8131C46.7696 12.7955 46.5182 12.8799 46.3256 13.0476C46.133 13.2154 46.0149 13.4528 45.9973 13.7076L45.9012 15.1431C44.4363 13.7157 42.6735 12.6305 40.7393 11.9654C38.8052 11.3003 36.7477 11.0718 34.7148 11.2963C32.6818 11.5208 30.7238 12.1928 28.9814 13.2639C27.239 14.335 25.7554 15.7787 24.6373 17.4913C23.5191 19.2039 22.7941 21.1428 22.5143 23.1689C22.2345 25.195 22.4068 27.2579 23.019 29.2094C23.6312 31.161 24.6679 32.9527 26.0548 34.456C27.4417 35.9593 29.1443 37.1367 31.0403 37.9038Z" fill="#4D4D4D" stroke="#4D4D4D" stroke-width="0.5"/>
<path d="M35.2737 17.1071V24.662L31.1288 28.8079C31.037 28.8965 30.9638 29.0025 30.9135 29.1197C30.8631 29.237 30.8366 29.363 30.8355 29.4906C30.8344 29.6182 30.8587 29.7447 30.907 29.8628C30.9553 29.9809 31.0267 30.0882 31.1169 30.1784C31.2071 30.2686 31.3144 30.3399 31.4324 30.3882C31.5505 30.4366 31.677 30.4609 31.8046 30.4598C31.9322 30.4586 32.0583 30.4321 32.1755 30.3818C32.2927 30.3314 32.3987 30.2582 32.4874 30.1665L36.6775 25.9744C36.8418 25.8105 36.9722 25.6159 37.0612 25.4015C37.1502 25.1872 37.1962 24.9574 37.1963 24.7254V17.1071C37.1963 16.8522 37.0951 16.6078 36.9149 16.4277C36.7347 16.2475 36.4903 16.1462 36.2355 16.1462C35.9807 16.1462 35.7363 16.2475 35.5561 16.4277C35.3759 16.6078 35.2737 16.8522 35.2737 17.1071Z" fill="#4D4D4D" stroke="#4D4D4D" stroke-width="0.5"/>
</svg>
