<svg width="112" height="111" viewBox="0 0 112 111" fill="none" xmlns="http://www.w3.org/2000/svg">
<path d="M109.207 100.658C110.745 99.3445 111.723 97.3919 111.723 95.2163V71.7323C111.723 71.7154 111.719 71.6986 111.717 71.6817C111.612 68.5765 109.054 66.082 105.923 66.082C104.41 66.082 103.032 66.6655 101.997 67.6171C101.068 65.6516 99.0671 64.2889 96.7528 64.2889C95.2657 64.2889 93.9095 64.8516 92.8814 65.7747C91.9686 63.6912 89.9097 62.1976 87.5825 62.1976C86.3378 62.1976 85.1696 62.6268 84.2128 63.3425V47.5027C84.2128 44.3055 81.612 41.7047 78.4147 41.7047C75.2175 41.7047 72.6153 44.3055 72.6153 47.5027V80.0534C72.6153 81.2721 71.6118 82.264 70.3775 82.264C69.7668 82.264 69.199 82.0216 68.7802 81.582C68.775 81.5768 68.7698 81.5729 68.7646 81.569C68.7594 81.5639 68.7568 81.5587 68.7529 81.5548L63.6057 76.4944C62.5101 75.3989 61.0541 74.796 59.5048 74.796C57.9554 74.796 56.4994 75.3989 55.4039 76.4944C53.144 78.7556 53.144 82.4352 55.4039 84.6963L73.1676 102.459C72.649 103.283 72.3469 104.258 72.3469 105.302C72.3469 108.256 74.7507 110.659 77.7042 110.659H106.543C109.498 110.659 111.901 108.256 111.901 105.302C111.904 103.32 110.818 101.584 109.207 100.658ZM57.1231 82.981C55.8097 81.6663 55.8097 79.5283 57.1231 78.2137C57.7597 77.5771 58.605 77.227 59.5061 77.227C60.4072 77.227 61.2525 77.577 61.8969 78.2214L67.0519 83.2895C67.0558 83.2934 67.0597 83.296 67.0636 83.2999C67.931 84.188 69.1341 84.6976 70.3788 84.6976C72.9511 84.6976 75.045 82.6166 75.045 80.0586V47.5066C75.045 45.6487 76.5568 44.1369 78.416 44.1369C80.2739 44.1369 81.7857 45.6487 81.7857 47.5066V71.9942C81.7857 72.6645 82.3289 73.209 83.0005 73.209C83.6708 73.209 84.2154 72.6658 84.2154 71.9942V68.1526C84.2154 68.1526 84.2154 68.15 84.2154 68.1474C84.2154 66.2402 85.7583 64.6286 87.5851 64.6286C89.4119 64.6286 90.956 66.2402 90.956 68.1474V73.3439C90.956 74.0142 91.4993 74.5587 92.1709 74.5587C92.8412 74.5587 93.3857 74.0155 93.3857 73.3439V70.1012C93.3857 70.0974 93.387 70.0935 93.387 70.0896C93.387 68.2303 94.8988 66.7186 96.7567 66.7186C98.6146 66.7186 100.128 68.2303 100.128 70.0896V75.2861C100.128 75.9564 100.671 76.5009 101.343 76.5009C102.013 76.5009 102.557 75.9577 102.557 75.2861V71.8969C102.557 71.8918 102.559 71.8879 102.559 71.8827C102.559 70.0247 104.07 68.513 105.928 68.513C107.786 68.513 109.299 70.0247 109.299 71.8827V95.2176C109.299 97.8263 107.177 99.9474 104.57 99.9474C104.564 99.9474 104.561 99.9487 104.555 99.9487H77.7107C76.6786 99.9487 75.714 100.243 74.8959 100.75L57.1231 82.981ZM106.546 108.233H77.7068C76.0926 108.233 74.7779 106.92 74.7779 105.305C74.7779 103.689 76.0913 102.376 77.7068 102.376H106.547C108.162 102.376 109.477 103.689 109.477 105.305C109.476 106.919 108.161 108.233 106.546 108.233Z" fill="#4D4D4D"/>
<path d="M70.5459 7.50096C70.7248 7.99364 71.1915 8.29962 71.6868 8.29962C71.8242 8.29962 71.9656 8.27627 72.1017 8.22571C72.7318 7.99622 73.0573 7.29999 72.8278 6.66988L70.7753 1.03257C70.5459 0.402461 69.8497 0.0783118 69.2195 0.306501C68.5894 0.535987 68.264 1.23224 68.4935 1.86235L70.5459 7.50096Z" fill="#4D4D4D"/>
<path d="M55.572 13.7904L60.7672 16.7905C60.9591 16.9007 61.1679 16.9539 61.374 16.9539C61.7941 16.9539 62.2012 16.7361 62.4268 16.3471C62.7626 15.7663 62.5629 15.0234 61.9821 14.6876L56.7869 11.6874C56.206 11.3529 55.4631 11.5512 55.1273 12.1321C54.7928 12.7129 54.9912 13.4559 55.572 13.7904Z" fill="#4D4D4D"/>
<path d="M95.0072 16.9552C95.2134 16.9552 95.4221 16.9033 95.614 16.7918L100.809 13.7916C101.39 13.4558 101.588 12.7142 101.254 12.1321C100.918 11.5512 100.177 11.3529 99.5944 11.6874L94.3992 14.6876C93.8183 15.0234 93.62 15.765 93.9545 16.3471C94.1801 16.7374 94.5885 16.9552 95.0072 16.9552Z" fill="#4D4D4D"/>
<path d="M53.1269 31.2521C53.1969 31.2521 53.2682 31.2456 53.3395 31.2339L59.2491 30.1915C59.909 30.0748 60.3498 29.4447 60.2344 28.7848C60.1191 28.1249 59.4902 27.684 58.8277 27.7994L52.9181 28.8418C52.2582 28.9585 51.8161 29.5886 51.9327 30.2486C52.0365 30.8372 52.5486 31.2521 53.1269 31.2521Z" fill="#4D4D4D"/>
<path d="M96.5983 28.7848C96.4816 29.4447 96.9224 30.0748 97.5836 30.1915L103.492 31.2339C103.563 31.2469 103.635 31.2521 103.705 31.2521C104.283 31.2521 104.795 30.8372 104.899 30.2485C105.015 29.5886 104.575 28.9585 103.913 28.8418L98.005 27.7994C97.3438 27.684 96.715 28.1235 96.5983 28.7848Z" fill="#4D4D4D"/>
<path d="M84.7314 8.22828C84.8688 8.27884 85.0088 8.30219 85.1463 8.30219C85.6428 8.30219 86.1083 7.99621 86.2872 7.50353L88.3396 1.86621C88.5691 1.2361 88.2437 0.539864 87.6135 0.310378C86.9821 0.0808923 86.2872 0.406318 86.0564 1.03643L84.004 6.67375C83.7771 7.30127 84.1013 7.99879 84.7314 8.22828Z" fill="#4D4D4D"/>
<path d="M16.5272 91.2982L12.8126 90.7589C12.6687 90.7382 12.3679 90.5203 12.3031 90.3894L10.6409 87.0223C10.3181 86.3688 9.74632 85.9786 9.11232 85.9786C8.47832 85.9786 7.90655 86.3688 7.58371 87.0236L5.92285 90.3894C5.85802 90.5203 5.55854 90.7382 5.41333 90.7589L1.69745 91.2982C0.975287 91.4033 0.428165 91.8259 0.232389 92.4288C0.0366131 93.0317 0.231083 93.6968 0.753585 94.2051L3.44129 96.8253C3.54631 96.9278 3.66041 97.2804 3.63578 97.4243L3.00178 101.125C2.90324 101.7 3.02769 102.231 3.35442 102.617C3.64744 102.966 4.08567 103.165 4.55371 103.165C4.85969 103.165 5.16956 103.084 5.47554 102.923L8.79855 101.175C8.82319 101.162 8.93598 101.123 9.11361 101.123C9.29123 101.123 9.40275 101.161 9.42868 101.175L12.7517 102.922C13.0577 103.082 13.3688 103.164 13.6735 103.164C14.1415 103.164 14.5785 102.964 14.8728 102.616C15.1982 102.229 15.324 101.7 15.2255 101.125L14.5915 97.4243C14.5668 97.2804 14.6809 96.9278 14.7859 96.8253L17.4749 94.2051C17.9974 93.6955 18.1919 93.0317 17.9961 92.4288C17.7965 91.8272 17.248 91.4033 16.5272 91.2982ZM13.0875 95.088C12.4107 95.7479 12.0347 96.9044 12.1942 97.8353L12.5805 100.09L10.5567 99.0255C10.038 98.752 9.48442 98.695 9.11102 98.695C8.73761 98.695 8.1853 98.752 7.66668 99.0255L5.64151 100.09L6.02788 97.8353C6.18735 96.9031 5.81135 95.7479 5.13456 95.088L3.49575 93.4907L5.7595 93.1614C6.69559 93.0252 7.67835 92.3108 8.09713 91.4629L9.10973 89.4118L10.1223 91.4629C10.5411 92.3108 11.5252 93.0252 12.46 93.1614L14.7237 93.4907L13.0875 95.088Z" fill="#4D4D4D"/>
<path d="M31.721 76.1042L28.0065 75.5649C27.8613 75.5441 27.5618 75.3263 27.4969 75.1954L25.8348 71.8282C25.5119 71.1748 24.9402 70.7845 24.3062 70.7845C23.6722 70.7845 23.1004 71.1748 22.7776 71.8295L21.1167 75.1954C21.0519 75.3263 20.7524 75.5441 20.6072 75.5649L16.8913 76.1042C16.1692 76.2092 15.622 76.6319 15.4262 77.2348C15.2305 77.8377 15.4249 78.5028 15.9474 79.0123L18.6352 81.6326C18.7402 81.735 18.8543 82.0877 18.8296 82.2316L18.1956 85.9319C18.0971 86.5075 18.2216 87.0366 18.5483 87.4229C18.8413 87.7717 19.2795 87.9714 19.7476 87.9714C20.0536 87.9714 20.3634 87.8897 20.6694 87.7289L23.9924 85.9825C24.017 85.9695 24.1298 85.9306 24.3075 85.9306C24.4851 85.9306 24.5966 85.9682 24.6225 85.9825L27.9455 87.7289C28.2515 87.8897 28.5627 87.9714 28.8687 87.9714C29.3367 87.9714 29.7736 87.7717 30.0679 87.4229C30.3934 87.0366 30.5178 86.5062 30.4193 85.9319L29.7853 82.2316C29.7607 82.0877 29.8748 81.735 29.9798 81.6326L32.6688 79.0123C33.1913 78.5028 33.3858 77.8389 33.19 77.2361C32.9903 76.6332 32.4432 76.2092 31.721 76.1042ZM28.2813 79.894C27.6046 80.5539 27.2285 81.7104 27.388 82.6426L27.7744 84.8973L25.7505 83.8328C25.2319 83.5592 24.6783 83.5022 24.3049 83.5022C23.9315 83.5022 23.3792 83.5592 22.8592 83.8328L20.8341 84.8973L21.2204 82.6426C21.3799 81.7104 21.0052 80.5552 20.3271 79.894L18.6883 78.2979L20.9533 77.9686C21.8894 77.8325 22.8722 77.1181 23.291 76.2701L24.3036 74.219L25.3162 76.2701C25.735 77.1181 26.7177 77.8325 27.6538 77.9686L29.9176 78.2979L28.2813 79.894Z" fill="#4D4D4D"/>
<path d="M46.9139 60.9102L43.1993 60.3708C43.0541 60.3501 42.7546 60.1322 42.6898 60.0013L41.0276 56.6342C40.7048 55.9808 40.133 55.5905 39.499 55.5905C38.865 55.5905 38.2933 55.9808 37.9704 56.6355L36.3096 60.0013C36.2447 60.1322 35.944 60.3501 35.8 60.3708L32.0842 60.9102C31.362 61.0152 30.8149 61.4378 30.6191 62.042C30.4233 62.6449 30.6178 63.31 31.1403 63.8183L33.828 66.4386C33.933 66.541 34.0471 66.8936 34.0225 67.0376L33.3885 70.7379C33.29 71.3135 33.4144 71.8425 33.7412 72.2289C34.0342 72.5776 34.4724 72.7773 34.9404 72.7773C35.2464 72.7773 35.5563 72.6956 35.8623 72.5349L39.1853 70.7884C39.2099 70.7755 39.3227 70.7365 39.5003 70.7365C39.678 70.7365 39.7895 70.7742 39.8154 70.7884L43.1384 72.5349C43.4444 72.6956 43.7555 72.7773 44.0615 72.7773C44.5296 72.7773 44.9665 72.5776 45.2608 72.2289C45.5862 71.8425 45.712 71.3122 45.6135 70.7365L44.9795 67.0363C44.9548 66.8924 45.0689 66.5397 45.1739 66.4373L47.8617 63.817C48.3842 63.3075 48.5786 62.6436 48.3829 62.0408C48.1845 61.4392 47.6374 61.0165 46.9139 60.9102ZM43.4755 64.6999C42.7987 65.3599 42.4227 66.5164 42.5822 67.4486L42.9685 69.7032L40.9434 68.6388C40.4248 68.3652 39.8711 68.3082 39.499 68.3082C39.1269 68.3082 38.5733 68.3652 38.0534 68.6388L36.0282 69.7032L36.4146 67.4486C36.5741 66.5164 36.1994 65.3612 35.5213 64.6999L33.8838 63.1026L36.1475 62.7733C37.0836 62.6371 38.0664 61.9227 38.4852 61.0748L39.4977 59.0237L40.5103 61.0748C40.9291 61.9227 41.9119 62.6371 42.848 62.7733L45.1117 63.1026L43.4755 64.6999Z" fill="#4D4D4D"/>
<path d="M54.6942 55.5425C54.8718 55.5425 54.9833 55.5801 55.0093 55.5944L58.3323 57.3409C58.6382 57.5016 58.9494 57.5833 59.2554 57.5833C59.7234 57.5833 60.1604 57.3836 60.4547 57.0348C60.7801 56.6485 60.9059 56.1195 60.8073 55.5438L60.1734 51.8448C60.1487 51.7009 60.2628 51.3483 60.3678 51.2458L63.0555 48.6256C63.578 48.116 63.7725 47.4522 63.5767 46.8493C63.381 46.2464 62.8325 45.8225 62.1104 45.7174L58.3958 45.1781C58.2506 45.1573 57.9511 44.9395 57.8863 44.8086L56.2254 41.4415C55.9026 40.788 55.3308 40.3965 54.6968 40.3965C54.0628 40.3965 53.491 40.7867 53.1682 41.4415L51.5073 44.8073C51.4425 44.9382 51.143 45.1561 50.9978 45.1781L47.2819 45.7174C46.5598 45.8225 46.0126 46.2451 45.8169 46.848C45.6211 47.4509 45.8156 48.116 46.3381 48.6243L49.0258 51.2446C49.1308 51.347 49.2449 51.6996 49.2203 51.8435L48.5863 55.5438C48.4877 56.1195 48.6122 56.6485 48.9389 57.0348C49.2319 57.3836 49.6701 57.5833 50.1382 57.5833C50.4442 57.5833 50.7541 57.5016 51.06 57.3409L54.383 55.5944C54.4051 55.5814 54.5166 55.5425 54.6942 55.5425ZM51.2247 54.5092L51.611 52.2545C51.7705 51.3223 51.3945 50.1658 50.7177 49.5059L49.0789 47.9086L51.3427 47.5793C52.2788 47.4431 53.2615 46.7287 53.6803 45.8808L54.6929 43.8297L55.7055 45.8808C56.1243 46.7287 57.1084 47.4431 58.0431 47.5793L60.3069 47.9086L58.6694 49.5059C57.9926 50.1658 57.6166 51.321 57.776 52.2545L58.1624 54.5092L56.1386 53.4448C55.6199 53.1712 55.0663 53.1142 54.6929 53.1142C54.3208 53.1142 53.7672 53.1712 53.2473 53.4448L51.2247 54.5092Z" fill="#4D4D4D"/>
<path d="M61.024 21.2882C60.7673 22.0778 61.0461 22.9452 61.7877 23.6674L67.5222 29.258C68.0681 29.7896 68.4622 31.0031 68.3326 31.7538L66.979 39.6471C66.7988 40.6999 67.1229 41.3494 67.4263 41.7099C67.7958 42.1481 68.3312 42.3905 68.9328 42.3905C69.3594 42.3905 69.8067 42.27 70.2605 42.0314L77.3499 38.3052C77.6689 38.1379 78.1589 38.0381 78.662 38.0381C79.165 38.0381 79.6551 38.1379 79.9741 38.3052L87.0635 42.0314C87.5173 42.27 87.9633 42.3905 88.3911 42.3905C88.9927 42.3905 89.5282 42.1494 89.8977 41.7099C90.2011 41.3494 90.5253 40.6999 90.345 39.6471L88.9915 31.7538C88.8631 31.0031 89.2572 29.7896 89.8018 29.258L95.5363 23.6674C96.278 22.9452 96.5567 22.0778 96.3 21.2882C96.0433 20.4986 95.3082 19.9606 94.2839 19.8115L86.3582 18.6602C85.6036 18.5499 84.5716 17.8006 84.2358 17.1173L80.6911 9.9358C80.2334 9.00748 79.4944 8.47461 78.6633 8.47461C77.8322 8.47461 77.0945 9.00748 76.6355 9.9358L73.0908 17.1186C72.7537 17.8019 71.7217 18.5512 70.9684 18.6602L63.0427 19.8115C62.0158 19.9606 61.2807 20.4986 61.024 21.2882ZM71.3159 21.0639C72.873 20.837 74.5715 19.604 75.2677 18.1934L78.662 11.3166L82.0563 18.1934C82.7513 19.604 84.451 20.8383 86.0081 21.0639L93.5967 22.1673L88.1059 27.5206C86.9792 28.6175 86.331 30.6155 86.5967 32.1661L87.8933 39.7249L81.106 36.1555C80.4357 35.8029 79.5683 35.6097 78.6633 35.6097C77.7583 35.6097 76.8922 35.8042 76.2206 36.1555L69.4333 39.7249L70.7298 32.1661C70.9956 30.6155 70.3474 28.6188 69.2207 27.5206L63.7285 22.1673L71.3159 21.0639Z" fill="#4D4D4D"/>
</svg>
