<svg width="26" height="23" viewBox="0 0 26 23" fill="none" xmlns="http://www.w3.org/2000/svg">
<path d="M14.4275 13.6256C14.4275 14.4576 15.1013 15.1315 15.9334 15.1315C16.7654 15.1315 17.4392 14.4576 17.4392 13.6256C17.4392 12.7936 16.7654 12.1197 15.9334 12.1197C15.1013 12.1197 14.4275 12.7936 14.4275 13.6256ZM16.3731 13.6256C16.3731 13.8692 16.1738 14.0653 15.9334 14.0653C15.6898 14.0653 15.4936 13.866 15.4936 13.6256C15.4936 13.382 15.6929 13.1859 15.9334 13.1859C16.177 13.1827 16.3731 13.382 16.3731 13.6256Z" fill="#4D4D4D"/>
<path d="M3.60448 3.68245H22.3583C22.6525 3.68245 22.8898 3.44518 22.8898 3.15096C22.8898 2.85675 22.6525 2.61948 22.3583 2.61948H3.60448C3.31027 2.61948 3.073 2.85675 3.073 3.15096C3.073 3.44518 3.3071 3.68245 3.60448 3.68245Z" fill="#4D4D4D"/>
<path d="M26 3.14462C26 1.41097 24.5858 0 22.8459 0H3.84527C3.02906 0 2.21602 0.335341 1.61493 0.923771C1.0265 1.50904 0.691162 2.31892 0.691162 3.14462V18.8614C0.691162 20.595 2.10529 22.006 3.84527 22.006H22.8459C23.6905 22.006 24.4814 21.677 25.0762 21.0822C25.671 20.4875 26 19.6966 26 18.8614V8.3867C26 8.37721 25.9968 8.36772 25.9968 8.35507V3.16044C25.9968 3.15411 26 3.15095 26 3.14462ZM2.36471 1.68304C2.76332 1.29075 3.3043 1.06613 3.84527 1.06613H22.8459C23.9942 1.06613 24.9307 1.99307 24.9338 3.13829C24.9338 3.14146 24.9307 3.14462 24.9307 3.15095V6.04248C24.3739 5.54579 23.6494 5.23576 22.8459 5.23576H3.84527C2.69372 5.23576 1.7573 4.29933 1.7573 3.14778C1.7573 2.60048 1.97875 2.06583 2.36471 1.68304ZM24.9338 15.7073H15.9619C14.8166 15.7073 13.8834 14.7709 13.8834 13.6193C13.8834 13.0593 14.0985 12.5405 14.5003 12.1482C14.8831 11.7559 15.4019 11.5408 15.9619 11.5408H24.9338V15.7073ZM24.9338 10.4747H15.9619C15.1109 10.4747 14.3231 10.8037 13.7473 11.3921C13.1494 11.9774 12.8204 12.7683 12.8204 13.6161C12.8204 15.3561 14.2314 16.7702 15.965 16.7702H24.937V18.8582C24.937 19.4087 24.7187 19.9307 24.3264 20.3261C23.931 20.7216 23.409 20.9367 22.849 20.9367H3.84527C2.69372 20.9367 1.7573 20.0034 1.7573 18.8582V5.48885C2.31409 5.98553 3.04172 6.29873 3.84527 6.29873H22.8459C23.9879 6.29873 24.9149 7.21934 24.9307 8.35507V8.3867C24.9307 8.39303 24.9338 8.3962 24.9338 8.40252V10.4747Z" fill="#4D4D4D"/>
</svg>
