<svg width="1440" height="316" viewBox="0 0 1440 316" fill="none" xmlns="http://www.w3.org/2000/svg">
<mask id="mask0_86_1301" style="mask-type:alpha" maskUnits="userSpaceOnUse" x="0" y="0" width="1440" height="316">
<rect width="1439.19" height="316" rx="25" fill="#4D4D4D"/>
</mask>
<g mask="url(#mask0_86_1301)">
<g opacity="0.2">
<g style="mix-blend-mode:multiply">
<path d="M1020.33 319.726C1030.11 306.193 1040.7 293.258 1052.02 280.99C1057.05 275.538 1062.38 270.111 1069.05 266.86C1086.11 258.566 1106.51 266.621 1122.58 276.701C1137.39 285.998 1151.05 297.023 1163.26 309.545C1175.35 321.945 1186.2 335.956 1200.84 345.187C1215.49 354.418 1235.59 357.845 1249.73 347.866C1258.15 341.93 1263.22 332.076 1265.14 321.958C1267.06 311.84 1266.11 301.389 1264.47 291.221C1262.59 279.575 1259.84 267.432 1263.51 256.226C1267.32 244.625 1278.33 235.739 1290.48 234.469C1307.75 232.658 1322.94 244.687 1337.5 254.158C1355.99 266.193 1377.49 275.154 1399.51 273.884C1421.54 272.614 1443.81 259.144 1450.42 238.091" stroke="#A5A5A5" stroke-miterlimit="10"/>
<path d="M1022.61 324.272C1032.21 310.961 1042.65 298.277 1053.87 286.297C1058.85 280.977 1064.11 275.689 1070.67 272.494C1083.84 266.08 1099.01 269.35 1112.61 275.638C1116.27 277.349 1119.84 279.253 1123.3 281.342C1137.94 290.132 1151.49 300.634 1163.65 312.626C1175.69 324.492 1186.48 338.037 1200.97 346.91C1209.09 351.896 1218.72 355.311 1228.2 355.927C1236.46 356.455 1244.65 354.814 1251.5 350.129C1252.72 349.295 1253.88 348.379 1254.98 347.388C1261.7 341.282 1265.78 332.503 1267.56 323.492C1268.12 320.635 1268.5 317.745 1268.69 314.84C1269.2 307.212 1268.61 299.496 1267.73 291.95C1266.35 280.002 1264.52 267.734 1268.66 256.553C1272.81 245.373 1283.33 236.814 1295.18 235.513C1312.05 233.658 1326.93 244.995 1341.17 253.799C1342.29 254.497 1343.42 255.176 1344.57 255.849C1361.85 265.954 1381.4 272.972 1401.28 271.362C1422.46 269.646 1443.7 256.27 1449.84 235.664" stroke="#A5A5A5" stroke-miterlimit="10"/>
<path d="M1024.9 328.768C1034.32 315.686 1044.61 303.255 1055.71 291.56C1060.64 286.366 1065.85 281.223 1072.29 278.078C1085.23 271.79 1100.09 274.708 1113.47 280.594C1117.07 282.192 1120.6 283.976 1124.02 285.939C1138.49 294.223 1151.92 304.204 1164.02 315.67C1176.01 326.989 1186.77 340.087 1201.13 348.652C1209.56 353.682 1219.44 357.254 1229.21 358.021C1237.7 358.65 1246.19 357.135 1253.3 352.419C1254.57 351.578 1255.77 350.647 1256.91 349.633C1263.91 343.414 1268.1 334.371 1270.02 325.109C1270.62 322.146 1271.04 319.149 1271.28 316.135C1271.91 308.3 1271.57 300.364 1271 292.636C1270.13 280.348 1269.21 268.005 1273.82 256.83C1278.23 246.222 1288.34 237.833 1299.91 236.506C1316.36 234.62 1330.94 245.247 1344.86 253.391C1345.95 254.019 1347.06 254.648 1348.18 255.277C1365.05 264.59 1383.98 270.809 1403.06 268.778C1423.39 266.621 1443.61 253.284 1449.28 233.186" stroke="#A5A5A5" stroke-miterlimit="10"/>
<path d="M1027.17 333.283C1036.42 320.417 1046.57 308.228 1057.56 296.811C1062.42 291.749 1067.58 286.75 1073.91 283.656C1086.6 277.449 1101.16 280.072 1114.33 285.542C1117.89 287.05 1121.37 288.738 1124.75 290.598C1139.05 298.372 1152.37 307.828 1164.42 318.763C1176.37 329.592 1187.09 342.175 1201.25 350.425C1210 355.518 1220.12 359.229 1230.18 360.147C1238.91 360.933 1247.7 359.48 1255.06 354.732C1256.39 353.885 1257.65 352.941 1258.83 351.909C1266.12 345.57 1270.4 336.257 1272.46 326.705C1273.11 323.66 1273.58 320.58 1273.87 317.481C1274.65 309.432 1274.53 301.276 1274.27 293.365C1273.91 280.757 1273.87 268.338 1278.99 257.157C1283.61 247.039 1293.36 238.921 1304.64 237.544C1320.69 235.601 1334.95 245.549 1348.54 253.026C1349.62 253.617 1350.7 254.195 1351.79 254.761C1368.26 263.282 1386.55 268.709 1404.83 266.256C1424.32 263.647 1443.53 250.378 1448.73 230.759" stroke="#A5A5A5" stroke-miterlimit="10"/>
<path d="M1029.46 337.804C1038.52 325.174 1048.53 313.249 1059.4 302.131C1064.22 297.195 1069.31 292.334 1075.52 289.297C1087.99 283.197 1102.24 285.524 1115.19 290.586C1118.69 291.961 1122.12 293.512 1125.46 295.233C1139.58 302.499 1152.78 311.431 1164.78 321.838C1176.66 332.139 1187.37 344.231 1201.36 352.167C1210.42 357.311 1220.8 361.172 1231.14 362.228C1240.09 363.146 1249.2 361.794 1256.81 357.009C1258.18 356.15 1259.48 355.194 1260.71 354.148C1268.25 347.69 1272.65 338.106 1274.85 328.271C1275.54 325.145 1276.06 321.983 1276.4 318.801C1277.32 310.545 1277.43 302.162 1277.49 294.063C1277.63 281.141 1278.47 268.652 1284.09 257.453C1288.93 247.832 1298.32 239.946 1309.3 238.556C1324.94 236.575 1338.9 245.826 1352.18 252.636C1353.22 253.177 1354.28 253.698 1355.32 254.214C1371.38 261.942 1389.04 266.571 1406.53 263.697C1425.17 260.641 1443.37 247.448 1448.09 228.306" stroke="#A5A5A5" stroke-miterlimit="10"/>
<path d="M1031.74 342.326C1040.63 329.919 1050.49 318.244 1061.24 307.413C1066 302.609 1071.03 297.893 1077.13 294.906C1089.36 288.913 1103.31 290.894 1116.05 295.566C1119.53 296.824 1122.92 298.308 1126.17 299.867C1140.12 306.62 1153.21 315.027 1165.16 324.907C1176.99 334.692 1187.69 346.287 1201.49 353.915C1210.87 359.103 1221.48 363.115 1232.12 364.341C1241.31 365.385 1250.72 364.127 1258.58 359.31C1260 358.442 1261.34 357.474 1262.62 356.411C1270.46 349.84 1274.94 339.986 1277.28 329.869C1278.01 326.657 1278.57 323.41 1278.97 320.141C1280.03 311.677 1280.36 303.074 1280.74 294.792C1281.37 281.543 1283.08 269.01 1289.24 257.78C1294.27 248.643 1303.32 241.015 1314.01 239.594C1329.24 237.569 1342.9 246.127 1355.84 252.271C1356.87 252.755 1357.89 253.233 1358.93 253.692C1374.58 260.609 1391.63 264.464 1408.31 261.169C1426.1 257.66 1443.28 244.536 1447.53 225.873" stroke="#A5A5A5" stroke-miterlimit="10"/>
<path d="M1034.02 346.847C1042.73 334.662 1052.45 323.238 1063.09 312.695C1067.8 308.023 1072.78 303.445 1078.76 300.509C1090.75 294.623 1104.39 296.289 1116.91 300.553C1120.34 301.71 1123.69 303.068 1126.89 304.495C1140.67 310.742 1153.65 318.628 1165.54 327.982C1177.32 337.239 1188 348.312 1201.62 355.651C1211.32 360.882 1222.17 365.083 1233.1 366.429C1242.53 367.605 1252.23 366.429 1260.35 361.593C1261.81 360.72 1263.21 359.739 1264.52 358.656C1272.65 351.966 1277.23 341.842 1279.7 331.447C1280.49 328.133 1281.08 324.788 1281.54 321.467C1282.74 312.79 1283.29 303.967 1284 295.497C1285.12 281.933 1287.67 269.331 1294.39 258.082C1299.57 249.441 1308.31 242.072 1318.72 240.638C1333.54 238.569 1346.89 246.436 1359.51 251.919C1360.51 252.347 1361.51 252.768 1362.52 253.177C1377.77 259.314 1394.17 262.358 1410.07 258.641C1427.01 254.692 1443.17 241.663 1446.96 223.427" stroke="#A5A5A5" stroke-miterlimit="10"/>
<path d="M1036.3 351.362C1044.83 339.404 1054.41 328.234 1064.93 317.983C1069.59 313.437 1074.5 309.004 1080.37 306.117C1092.13 300.338 1105.47 301.678 1117.77 305.533C1121.14 306.576 1124.45 307.809 1127.62 309.13C1141.22 314.869 1154.08 322.229 1165.92 331.051C1177.65 339.785 1188.32 350.343 1201.76 357.405C1211.78 362.674 1222.88 367.001 1234.1 368.535C1243.74 369.837 1253.76 368.768 1262.13 363.888C1263.65 363.006 1265.09 362.01 1266.45 360.907C1274.86 354.103 1279.53 343.715 1282.17 333.031C1282.99 329.636 1283.63 326.202 1284.14 322.8C1285.48 313.915 1286.27 304.872 1287.28 296.22C1288.9 282.329 1292.27 269.67 1299.56 258.396C1304.86 250.221 1313.34 243.128 1323.46 241.644C1337.86 239.531 1350.91 246.674 1363.22 251.523C1364.19 251.9 1365.16 252.267 1366.14 252.623C1380.98 257.968 1396.75 260.219 1411.86 256.082C1427.96 251.68 1443.1 238.694 1446.44 220.987" stroke="#A5A5A5" stroke-miterlimit="10"/>
<path d="M1038.6 355.883C1046.96 344.149 1056.4 333.228 1066.81 323.266C1071.4 318.864 1076.24 314.556 1082.01 311.727C1093.54 306.067 1106.54 307.099 1118.65 310.519C1121.97 311.456 1125.23 312.563 1128.36 313.764C1141.79 318.99 1154.54 325.827 1166.32 334.126C1178 342.338 1188.67 352.362 1201.91 359.147C1212.25 364.454 1223.58 368.944 1235.08 370.629C1244.97 372.063 1255.29 371.088 1263.91 366.171C1265.48 365.288 1266.97 364.28 1268.37 363.159C1277.06 356.242 1281.84 345.551 1284.59 334.616C1285.46 331.132 1286.14 327.611 1286.7 324.134C1288.19 315.034 1289.22 305.778 1290.53 296.93C1292.66 282.725 1296.81 270.004 1304.7 258.71C1310.1 250.994 1318.33 244.184 1328.16 242.669C1342.16 240.512 1354.89 246.995 1366.88 251.145C1367.82 251.472 1368.77 251.774 1369.73 252.089C1384.19 256.635 1399.28 258.094 1413.61 253.535C1428.86 248.687 1442.99 235.777 1445.83 218.547" stroke="#A5A5A5" stroke-miterlimit="10"/>
<path d="M1040.86 360.405C1049.04 348.896 1058.34 338.227 1068.63 328.554C1073.19 324.272 1077.97 320.116 1083.6 317.355C1094.89 311.784 1107.62 312.513 1119.49 315.519C1122.75 316.349 1125.96 317.33 1129.06 318.418C1142.31 323.134 1154.94 329.448 1166.67 337.22C1178.3 344.904 1188.98 354.399 1202.01 360.914C1212.7 366.247 1224.25 370.912 1236.04 372.749C1246.16 374.308 1256.79 373.434 1265.66 368.479C1267.27 367.584 1268.81 366.565 1270.26 365.429C1279.23 358.386 1284.09 347.457 1286.99 336.22C1287.9 332.648 1288.63 329.045 1289.25 325.486C1290.87 316.173 1292.12 306.696 1293.76 297.666C1296.39 283.134 1301.3 270.35 1309.82 259.037C1315.3 251.774 1323.3 245.26 1332.84 243.713C1346.43 241.512 1358.86 247.304 1370.53 250.787C1371.44 251.058 1372.37 251.322 1373.29 251.573C1387.32 255.346 1401.83 255.975 1415.34 251.014C1429.75 245.719 1442.86 232.872 1445.23 216.12" stroke="#A5A5A5" stroke-miterlimit="10"/>
<path d="M1043.15 364.926C1051.14 353.637 1060.3 343.217 1070.47 333.836C1074.96 329.68 1079.7 325.662 1085.22 322.945C1096.27 317.481 1108.69 317.915 1120.35 320.486C1123.57 321.203 1126.72 322.065 1129.79 323.002C1142.87 327.209 1155.39 332.999 1167.07 340.244C1178.64 347.407 1189.33 356.367 1202.15 362.612C1213.16 367.976 1224.95 372.811 1237.03 374.798C1247.38 376.49 1258.31 375.71 1267.44 370.724C1269.1 369.825 1270.69 368.792 1272.18 367.636C1281.43 360.48 1286.41 349.281 1289.43 337.754C1290.39 334.101 1291.16 330.409 1291.83 326.768C1293.6 317.254 1295.08 307.551 1297.02 298.333C1300.17 283.48 1305.83 270.614 1314.98 259.308C1320.52 252.485 1328.31 246.272 1337.56 244.694C1350.77 242.449 1362.86 247.549 1374.2 250.353C1375.1 250.573 1376 250.781 1376.9 250.982C1390.52 253.944 1404.39 253.812 1417.12 248.41C1430.67 242.669 1442.77 229.897 1444.66 213.617" stroke="#A5A5A5" stroke-miterlimit="10"/>
<path d="M1045.43 369.441C1053.25 358.379 1062.27 348.212 1072.32 339.125C1076.72 335.094 1081.43 331.227 1086.84 328.554C1097.66 323.197 1109.78 323.285 1121.21 325.473C1124.36 326.102 1127.5 326.819 1130.49 327.661C1143.4 331.359 1155.81 336.626 1167.43 343.344C1178.95 349.985 1189.65 358.392 1202.27 364.385C1213.59 369.768 1225.62 374.78 1238 376.924C1248.58 378.741 1259.81 378.056 1269.2 373.038C1270.91 372.123 1272.54 371.072 1274.08 369.894C1283.6 362.631 1288.68 351.167 1291.85 339.364C1292.85 335.591 1293.66 331.818 1294.36 328.127C1296.25 318.399 1297.98 308.476 1300.24 299.075C1303.88 283.901 1310.23 270.935 1320.09 259.641C1325.67 253.252 1333.29 247.354 1342.23 245.75C1355 243.461 1366.82 247.863 1377.84 250.014C1378.71 250.183 1379.58 250.341 1380.45 250.485C1393.66 252.655 1406.91 251.743 1418.81 245.907C1431.52 239.713 1442.6 227.011 1444.03 211.215" stroke="#A5A5A5" stroke-miterlimit="10"/>
<path d="M1047.71 373.949C1055.36 363.108 1064.23 353.19 1074.17 344.395C1078.57 340.496 1083.16 336.773 1088.46 334.145C1099.04 328.9 1110.85 328.668 1122.08 330.441C1125.18 330.931 1128.23 331.56 1131.21 332.283C1143.95 335.465 1156.24 340.207 1167.81 346.401C1179.28 352.519 1189.99 360.379 1202.4 366.114C1214.07 371.51 1226.29 376.71 1238.97 379.005C1249.79 380.955 1261.32 380.364 1270.97 375.314C1272.73 374.407 1274.41 373.355 1276 372.17C1285.81 364.781 1290.99 353.047 1294.29 340.955C1295.32 337.132 1296.17 333.271 1296.97 329.466C1299.02 319.531 1300.98 309.394 1303.53 299.804C1307.71 284.316 1314.72 271.218 1325.27 259.962C1330.88 253.988 1338.3 248.416 1346.98 246.788C1359.34 244.455 1370.87 248.159 1381.56 249.649C1382.41 249.762 1383.25 249.869 1384.08 249.963C1396.88 251.334 1409.49 249.617 1420.62 243.373C1432.48 236.733 1442.55 224.106 1443.51 208.788" stroke="#A5A5A5" stroke-miterlimit="10"/>
<path d="M1049.99 378.484C1057.46 367.864 1066.2 358.196 1076.01 349.696C1080.33 345.923 1084.9 342.339 1090.07 339.767C1100.42 334.623 1111.93 334.107 1122.94 335.44C1125.98 335.818 1128.99 336.321 1131.93 336.931C1144.49 339.606 1156.67 343.831 1168.19 349.507C1179.61 355.097 1190.33 362.398 1202.53 367.894C1214.54 373.296 1227.01 378.685 1239.96 381.137C1251 383.212 1262.84 382.716 1272.74 377.635C1274.54 376.709 1276.27 375.637 1277.9 374.428C1287.96 366.919 1293.27 354.934 1296.7 342.546C1297.78 338.635 1298.69 334.686 1299.52 330.806C1301.71 320.656 1303.93 310.3 1306.77 300.521C1311.45 284.713 1319.12 271.463 1330.4 260.276C1336.06 254.705 1343.29 249.473 1351.67 247.813C1363.62 245.436 1374.83 248.442 1385.2 249.272C1386.02 249.335 1386.84 249.385 1387.66 249.429C1400.06 250.008 1412.03 247.499 1422.37 240.833C1433.39 233.721 1442.43 221.144 1442.94 206.329" stroke="#A5A5A5" stroke-miterlimit="10"/>
<path d="M1052.27 383.005C1059.56 372.607 1068.16 363.187 1077.85 354.978C1082.12 351.343 1086.65 347.897 1091.68 345.375C1101.8 340.345 1113 339.471 1123.79 340.42C1126.79 340.684 1129.74 341.049 1132.65 341.558C1145.03 343.723 1157.1 347.421 1168.56 352.569C1179.93 357.644 1190.67 364.379 1202.66 369.629C1215.01 375.037 1227.7 380.621 1240.94 383.225C1252.21 385.432 1264.35 385.029 1274.51 379.917C1276.36 378.986 1278.13 377.9 1279.8 376.672C1290.17 369.045 1295.56 356.77 1299.13 344.124C1300.25 340.125 1301.2 336.088 1302.1 332.126C1304.42 321.769 1306.86 311.192 1310.03 301.232C1315.21 285.102 1323.51 271.677 1335.55 260.584C1341.18 255.403 1348.28 250.523 1356.38 248.838C1367.92 246.417 1378.81 248.737 1388.88 248.894C1389.67 248.894 1390.46 248.894 1391.25 248.894C1403.24 248.68 1414.59 245.373 1424.13 238.286C1434.3 230.74 1442.33 218.264 1442.37 203.895" stroke="#A5A5A5" stroke-miterlimit="10"/>
<path d="M1054.55 387.52C1061.67 377.344 1070.13 368.176 1079.7 360.266C1083.87 356.659 1088.43 353.544 1093.31 350.985C1103.19 346.055 1114.06 344.86 1124.67 345.407C1127.6 345.558 1130.51 345.828 1133.38 346.193C1145.58 347.841 1157.53 351.01 1168.95 355.625C1180.27 360.172 1191.03 366.315 1202.79 371.346C1215.49 376.754 1228.39 382.545 1241.92 385.3C1253.43 387.626 1265.88 387.331 1276.28 382.156C1278.19 381.217 1280.01 380.119 1281.72 378.873C1292.37 371.126 1297.85 358.587 1301.56 345.652C1302.73 341.571 1303.73 337.477 1304.67 333.409C1307.13 322.838 1309.8 312.029 1313.28 301.892C1318.97 285.448 1327.88 271.784 1340.7 260.848C1346.36 256.038 1353.28 251.535 1361.09 249.812C1372.22 247.347 1382.81 248.976 1392.53 248.467C1393.3 248.429 1394.07 248.372 1394.84 248.309C1406.42 247.303 1417.13 243.203 1425.89 235.695C1435.21 227.709 1442.24 215.29 1441.77 201.405" stroke="#A5A5A5" stroke-miterlimit="10"/>
<path d="M1056.84 392.041C1063.78 382.087 1072.1 373.167 1081.55 365.548C1085.67 362.086 1090.16 359.083 1094.93 356.594C1104.57 351.771 1115.17 350.255 1125.53 350.387C1128.41 350.431 1131.28 350.582 1134.09 350.827C1146.11 351.965 1157.95 354.61 1169.31 358.7C1180.57 362.725 1191.35 368.328 1202.9 373.107C1215.94 378.502 1229.06 384.501 1242.87 387.406C1254.62 389.865 1267.37 389.664 1278.03 384.482C1279.98 383.536 1281.85 382.425 1283.61 381.162C1294.54 373.321 1300.14 360.486 1303.97 347.274C1305.18 343.105 1306.23 338.898 1307.22 334.78C1309.83 324.002 1312.72 312.984 1316.52 302.646C1322.72 285.876 1332.21 271.947 1345.83 261.194C1351.49 256.748 1358.26 252.629 1365.78 250.875C1376.51 248.36 1386.79 249.303 1396.2 248.127C1396.94 248.033 1397.69 247.926 1398.42 247.813C1409.6 246.008 1419.68 241.116 1427.64 233.186C1436.11 224.76 1442.1 212.435 1441.18 198.997" stroke="#A5A5A5" stroke-miterlimit="10"/>
<path d="M1059.12 396.587C1065.88 386.832 1074.06 378.142 1083.39 370.805C1087.47 367.489 1091.87 364.598 1096.54 362.178C1105.97 357.455 1116.24 355.619 1126.38 355.349C1129.21 355.273 1132.02 355.302 1134.81 355.437C1146.66 356.05 1158.38 358.163 1169.7 361.725C1180.92 365.227 1191.71 370.252 1203.03 374.798C1216.43 380.175 1229.76 386.394 1243.86 389.456C1255.84 392.041 1268.89 391.934 1279.8 386.721C1281.81 385.766 1283.72 384.64 1285.53 383.357C1296.74 375.383 1302.42 362.303 1306.4 348.802C1307.66 344.552 1308.74 340.257 1309.79 336.056C1312.54 325.07 1315.67 313.833 1319.77 303.307C1326.48 286.221 1336.53 271.966 1350.97 261.458C1356.63 257.358 1363.26 253.635 1370.46 251.85C1380.78 249.297 1390.75 249.542 1399.84 247.699C1400.56 247.555 1401.28 247.397 1401.99 247.228C1412.65 244.726 1422.24 238.902 1429.37 230.595C1436.99 221.716 1441.95 209.435 1440.58 196.506" stroke="#A5A5A5" stroke-miterlimit="10"/>
<path d="M1061.4 401.077C1067.99 391.564 1076.03 383.142 1085.23 376.119C1089.27 372.945 1093.59 370.161 1098.15 367.806C1107.32 363.196 1117.32 361.021 1127.24 360.36C1130.02 360.166 1132.78 360.084 1135.53 360.09C1147.2 360.204 1158.81 361.803 1170.08 364.85C1181.24 367.825 1192.09 372.27 1203.18 376.597C1216.92 381.948 1230.46 388.413 1244.86 391.601C1257.07 394.317 1270.42 394.305 1281.59 389.054C1283.64 388.097 1285.6 386.96 1287.45 385.658C1298.95 377.565 1304.73 364.215 1308.83 350.444C1310.13 346.105 1311.27 341.728 1312.37 337.446C1315.25 326.246 1318.62 314.808 1323.06 304.08C1330.26 286.674 1340.86 272.041 1356.15 261.823C1361.98 257.829 1368.42 254.824 1375.23 252.931C1385.13 250.341 1394.8 249.888 1403.57 247.379C1404.26 247.184 1404.95 246.97 1405.63 246.75C1415.91 243.404 1424.86 236.874 1431.18 228.105C1437.96 218.78 1441.92 206.574 1440.06 194.117" stroke="#A5A5A5" stroke-miterlimit="10"/>
<path d="M1063.68 405.599C1070.1 396.305 1078 388.13 1087.07 381.401C1091.07 378.376 1095.32 375.704 1099.77 373.415C1108.66 369.056 1118.26 366.321 1128.11 365.341C1130.82 365.033 1133.54 364.838 1136.25 364.712C1147.74 364.314 1159.24 365.387 1170.46 367.907C1181.57 370.359 1192.41 374.195 1203.31 378.326C1217.4 383.64 1231.15 390.318 1245.84 393.682C1258.27 396.531 1271.93 396.613 1283.36 391.331C1285.45 390.365 1287.46 389.216 1289.36 387.897C1301.13 379.685 1307.01 366.064 1311.27 352.01C1312.6 347.608 1313.78 343.118 1314.94 338.754C1317.97 327.347 1321.57 315.67 1326.26 304.797C1333.97 287.064 1345.13 272.004 1361.24 262.131C1367.05 258.565 1373.32 255.814 1379.88 253.957C1389.38 251.322 1398.75 250.184 1407.19 247.002C1407.85 246.75 1408.52 246.492 1409.17 246.216C1419.08 242.017 1427.4 234.779 1432.92 225.546C1438.85 215.768 1441.8 203.631 1439.46 191.658" stroke="#A5A5A5" stroke-miterlimit="10"/>
<path d="M1065.96 410.119C1072.2 401.045 1079.97 393.118 1088.91 386.689C1100.71 378.024 1114.46 372.407 1128.96 370.34C1131.62 369.918 1134.29 369.598 1136.95 369.371C1148.27 368.457 1159.65 369.006 1170.83 371.006C1181.88 372.937 1192.74 376.207 1203.42 380.099C1217.88 385.363 1231.83 392.286 1246.81 395.82C1259.48 398.794 1273.44 398.964 1285.12 393.657C1287.27 392.685 1289.32 391.523 1291.26 390.186C1303.32 381.854 1309.3 367.969 1313.69 353.625C1315.07 349.117 1316.3 344.564 1317.5 340.125C1320.65 328.504 1324.5 316.613 1329.54 305.539C1337.76 287.492 1349.4 271.934 1366.41 262.477C1372.2 259.329 1378.32 256.826 1384.65 255.013C1393.74 252.334 1402.78 250.498 1410.92 246.655C1411.54 246.354 1412.17 246.027 1412.8 245.712C1422.3 240.663 1429.96 232.739 1434.69 223.074C1439.77 212.856 1441.7 200.782 1438.89 189.287" stroke="#A5A5A5" stroke-miterlimit="10"/>
<path d="M1068.24 414.641C1082.26 393.965 1105.34 380.3 1129.83 375.308C1154.32 370.315 1180 373.547 1203.57 381.829C1218.37 387.035 1232.53 394.223 1247.79 397.889C1263.05 401.555 1280.23 401.278 1293.18 392.412C1309.38 381.313 1314.79 360.341 1320.08 341.433C1328.78 310.318 1342.72 277.235 1371.56 262.747C1385.95 255.535 1402.78 253.724 1416.39 245.14C1435.26 233.23 1444.69 208.165 1438.31 186.785" stroke="#A5A5A5" stroke-miterlimit="10"/>
</g>
<g style="mix-blend-mode:multiply">
<path d="M937.137 323.015C934.496 301.635 955.599 283.568 976.885 280.254C998.171 276.94 1019.53 283.788 1040.62 288.184C1061.72 292.579 1085.45 294.026 1103.07 281.625C1125.59 265.772 1130.8 232.426 1154 217.535C1172.06 205.933 1195.57 209.404 1214.07 218.038C1224.54 222.918 1233.43 231.13 1243.43 236.853C1288.79 262.792 1291.85 315.808 1330.38 323.713C1372.07 332.284 1394.71 311.941 1402.58 297.862C1412.64 279.795 1429.49 232.904 1388.28 200.318C1371.54 187.081 1355.01 172.97 1342.7 155.539C1324.26 129.449 1324.38 89.5494 1347.96 67.9869C1364.12 53.2094 1388.94 47.8015 1399.92 28.8549C1407.3 16.1211 1406.29 -0.297656 1399.92 -13.5848C1393.55 -26.872 1382.57 -37.3986 1370.56 -45.9192" stroke="#A5A5A5" stroke-miterlimit="10"/>
<path d="M938.093 324.102C936.269 302.093 957.26 283.103 979.181 279.317C1000.56 275.626 1022.29 282.43 1043.38 287.278C1064.23 292.076 1087.4 294.245 1104.93 282.977C1127.37 268.551 1133.68 236.896 1156.82 222.2C1175.26 210.561 1198.4 212.724 1217.34 220.27C1228.23 224.609 1237.87 232.35 1248.34 238.148C1292.75 262.747 1296.42 314.041 1334.09 321.838C1374.63 330.208 1397.15 310.96 1405.33 297.075C1415.7 279.468 1431.74 234.305 1392.81 202.122C1376.75 188.841 1360.84 174.453 1348.72 157.142C1330.82 131.662 1330.66 93.1899 1352.91 71.8097C1368.31 57.0197 1392.24 50.9955 1403.17 32.2941C1410.67 19.5037 1410.21 3.32397 1404.67 -10.0575C1399.07 -23.5962 1388.86 -34.695 1377.34 -43.8445" stroke="#A5A5A5" stroke-miterlimit="10"/>
<path d="M939.049 325.165C938.042 302.559 958.92 282.625 981.476 278.374C1002.99 274.324 1025.05 281.059 1046.14 286.373C1066.74 291.56 1089.3 294.459 1106.81 284.316C1129.15 271.325 1136.52 241.311 1159.67 226.867C1178.46 215.139 1201.27 216.026 1220.63 222.502C1231.95 226.275 1242.33 233.564 1253.28 239.443C1296.67 262.76 1300.97 312.268 1337.83 319.933C1377.2 328.108 1399.58 309.954 1408.07 296.296C1418.72 279.179 1434 235.689 1397.33 203.858C1381.96 190.52 1366.65 175.881 1354.74 158.664C1337.38 133.806 1336.93 96.7367 1357.88 75.564C1372.51 60.7928 1395.53 54.1587 1406.42 35.7026C1414.05 22.8619 1414.14 6.9022 1409.39 -6.56732C1404.55 -20.3072 1395.19 -31.9972 1384.13 -41.7817" stroke="#A5A5A5" stroke-miterlimit="10"/>
<path d="M940.004 326.234C939.816 303.011 960.58 282.153 983.771 277.431C1005.4 273.029 1027.79 279.682 1048.91 285.467C1069.25 291.039 1091.23 294.673 1108.68 285.662C1130.93 274.098 1139.39 245.757 1162.52 231.526C1181.67 219.748 1204.16 219.308 1223.93 224.729C1235.69 227.954 1246.78 234.79 1258.22 240.739C1300.59 262.823 1305.55 310.494 1341.57 318.084C1379.76 326.071 1402.01 309.004 1410.81 295.572C1421.73 278.934 1436.26 237.091 1401.85 205.713C1387.16 192.312 1372.52 177.415 1360.75 160.318C1344.01 136.026 1343.2 100.403 1362.81 79.4376C1376.69 64.6035 1398.79 57.3343 1409.66 39.1422C1417.39 26.2072 1418.07 10.4865 1414.11 -3.04588C1410.02 -17.031 1401.53 -29.2932 1390.91 -39.6877" stroke="#A5A5A5" stroke-miterlimit="10"/>
<path d="M940.96 327.303C941.589 303.464 962.24 281.688 986.072 276.494C1007.8 271.752 1030.56 278.305 1051.67 284.555C1071.79 290.51 1093.17 294.887 1110.55 287.002C1132.71 276.871 1142.25 250.202 1165.37 236.186C1184.86 224.351 1207.07 222.572 1227.22 226.955C1239.44 229.615 1251.23 235.997 1263.15 242.047C1304.46 262.955 1310.12 308.74 1345.3 316.211C1382.32 324.014 1404.41 308.036 1413.56 294.83C1424.74 278.67 1438.53 238.437 1406.38 207.53C1392.36 194.061 1378.35 178.887 1366.77 161.928C1350.59 138.246 1349.47 104.012 1367.75 83.2799C1380.88 68.3892 1402.07 60.5163 1412.92 42.5569C1420.75 29.5968 1422 14.071 1418.83 0.456818C1415.51 -13.7862 1407.82 -26.5828 1397.7 -37.6313" stroke="#A5A5A5" stroke-miterlimit="10"/>
<path d="M941.916 328.366C943.369 303.917 963.925 281.235 988.368 275.544C1010.21 270.463 1033.32 276.915 1054.43 283.643C1074.28 289.976 1095.09 295.132 1112.42 288.341C1134.51 279.682 1145.12 254.648 1168.22 240.839C1188.1 228.954 1209.99 225.81 1230.51 229.18C1243.19 231.262 1255.66 237.217 1268.08 243.317C1308.33 263.087 1314.7 306.941 1349.04 314.305C1384.88 321.914 1406.85 307.023 1416.32 294.044C1427.76 278.361 1440.85 239.707 1410.92 209.316C1397.57 195.746 1384.21 180.346 1372.81 163.506C1357.19 140.428 1355.75 107.54 1372.73 87.0777C1385.09 72.1682 1405.36 63.7042 1416.16 46.0152C1424.12 32.9985 1425.96 17.6739 1423.55 3.99687C1421 -10.5102 1414.12 -23.8854 1404.48 -35.5376" stroke="#A5A5A5" stroke-miterlimit="10"/>
<path d="M942.872 329.435C945.142 304.37 965.56 280.782 990.663 274.607C1012.62 269.199 1036.07 275.525 1057.19 282.744C1076.8 289.441 1097.02 295.359 1114.29 289.661C1136.3 282.443 1148 259.082 1171.07 245.48C1191.32 233.532 1212.92 229.017 1233.8 231.388C1246.95 232.885 1260.11 238.425 1273.02 244.593C1312.15 263.276 1319.28 305.175 1352.78 312.431C1387.44 319.87 1409.26 306.036 1419.05 293.296C1430.73 278.078 1443.11 240.965 1415.42 211.127C1402.04 196.763 1389.8 181.377 1378.8 165.109C1363.71 142.648 1361.99 111.137 1377.66 90.9076C1389.26 75.9289 1408.64 66.8863 1419.4 49.4489C1427.48 36.3755 1429.91 21.2396 1428.27 7.51856C1426.49 -7.2715 1420.45 -21.1938 1411.29 -33.4685" stroke="#A5A5A5" stroke-miterlimit="10"/>
<path d="M943.828 330.504C946.921 304.829 967.22 280.342 992.958 273.664C1015.03 267.935 1038.86 274.129 1059.95 281.839C1079.32 288.907 1098.93 295.585 1116.16 291.038C1138.07 285.253 1150.86 263.565 1173.92 250.165C1194.54 238.179 1215.86 232.243 1237.09 233.639C1250.72 234.532 1264.54 239.682 1277.97 245.901C1315.94 263.508 1323.87 303.395 1356.53 310.545C1390.01 317.77 1411.68 305.055 1421.81 292.535C1433.75 277.789 1445.44 242.172 1419.97 212.932C1407.28 198.292 1395.55 182.849 1384.84 166.7C1370.34 144.848 1368.26 114.671 1382.63 94.7307C1393.48 79.6828 1411.95 70.0743 1422.68 52.8884C1430.4 40.3567 1434.01 25.7248 1433.01 11.0399C1432.03 -4.05202 1426.79 -18.5151 1418.07 -31.3872" stroke="#A5A5A5" stroke-miterlimit="10"/>
<path d="M944.784 331.573C948.682 305.281 968.88 279.902 995.253 272.708C1017.44 266.665 1041.59 272.708 1062.71 280.914C1081.83 288.334 1100.87 295.786 1118.04 292.359C1139.85 288.007 1153.76 268.011 1176.78 254.818C1197.77 242.788 1218.81 235.425 1240.4 235.859C1254.49 236.142 1268.99 240.889 1282.9 247.178C1319.71 263.779 1328.44 301.603 1360.24 308.639C1392.55 315.682 1414.07 304.043 1424.53 291.762C1436.69 277.475 1447.77 243.342 1424.47 214.717C1413.15 200.783 1401.68 184.785 1390.84 168.285C1376.89 147.043 1374.49 118.18 1387.55 98.5413C1397.62 83.4054 1415.22 73.2435 1425.91 56.3029C1433.77 43.8041 1437.87 29.3069 1437.72 14.5423C1437.47 -0.976472 1433.02 -16.1381 1424.84 -29.3311" stroke="#A5A5A5" stroke-miterlimit="10"/>
<path d="M945.739 332.635C950.468 305.734 970.547 279.468 997.548 271.777C1019.85 265.42 1044.35 271.318 1065.46 280.021C1084.33 287.794 1102.78 296.012 1119.89 293.717C1141.61 290.799 1156.61 272.482 1179.63 259.49C1201.01 247.416 1221.76 238.607 1243.7 238.11C1258.27 237.77 1273.42 242.185 1287.84 248.504C1323.48 264.118 1333.02 299.861 1364 306.791C1395.13 313.638 1416.49 303.087 1427.3 291.032C1439.69 277.198 1450.16 244.455 1429.02 216.554C1418.33 202.462 1407.53 186.307 1396.88 169.913C1383.49 149.294 1380.73 121.714 1392.53 102.396C1401.84 87.1594 1418.54 76.4693 1429.18 59.7739C1437.19 47.288 1441.76 32.9128 1442.45 18.0952C1443.06 2.27559 1439.32 -13.4083 1431.62 -27.2434" stroke="#A5A5A5" stroke-miterlimit="10"/>
<path d="M946.695 333.704C952.241 306.187 972.213 279.04 999.844 270.822C1022.27 264.162 1047.11 269.897 1068.23 279.097C1086.87 287.221 1104.7 296.22 1121.77 295.044C1143.39 293.56 1159.5 276.934 1182.46 264.137C1204.2 252.026 1224.68 241.751 1246.97 240.317C1262.01 239.349 1277.82 243.423 1292.75 249.75C1327.21 264.408 1337.58 298.044 1367.73 304.866C1397.67 311.526 1418.86 302.043 1430.02 290.234C1442.65 276.871 1452.54 245.467 1433.52 218.321C1423.52 204.04 1413.34 187.753 1402.88 171.473C1390.03 151.464 1386.91 125.16 1397.46 106.182C1405.99 90.8319 1421.81 79.6199 1432.4 63.1697C1440.96 49.8825 1445.87 35.4698 1447.15 21.5789C1448.64 5.47879 1445.61 -10.7182 1438.41 -25.1934" stroke="#A5A5A5" stroke-miterlimit="10"/>
<path d="M947.651 334.774C954.021 306.665 973.88 278.619 1002.13 269.891C1024.68 262.924 1049.87 268.489 1070.99 278.204C1089.39 286.668 1106.63 296.44 1123.64 296.403C1145.16 296.346 1162.37 281.411 1185.3 268.81C1207.42 256.661 1227.61 244.914 1250.26 242.562C1265.77 240.952 1282.23 244.707 1297.68 251.083C1330.93 264.81 1342.14 296.308 1371.46 303.018C1400.23 309.489 1421.25 301.087 1432.75 289.517C1445.6 276.607 1454.99 246.518 1438.04 220.163C1428.73 205.7 1419.18 189.282 1408.89 173.108C1396.59 153.721 1393.09 128.663 1402.4 110.043C1410.14 94.5674 1425.1 82.846 1435.65 66.6537C1444.33 53.3099 1449.88 39.0795 1451.86 25.151C1454.23 8.76994 1451.91 -7.94587 1445.19 -23.0676" stroke="#A5A5A5" stroke-miterlimit="10"/>
<path d="M948.607 335.843C955.794 307.093 975.552 278.204 1004.43 268.935C1027.07 261.672 1052.65 267.049 1073.76 277.286C1091.92 286.09 1108.56 296.642 1125.52 297.729C1146.95 299.107 1165.26 285.87 1188.16 273.463C1210.65 261.276 1230.55 248.027 1253.56 244.776C1269.54 242.518 1286.65 245.97 1302.61 252.366C1334.64 265.181 1346.69 294.585 1375.18 301.125C1402.77 307.464 1423.6 300.069 1435.49 288.75C1448.55 276.286 1457.5 247.467 1442.55 221.955C1433.96 207.253 1424.94 190.759 1414.88 174.693C1403.12 155.928 1399.23 132.102 1407.34 113.86C1414.25 98.246 1428.38 86.0341 1438.88 70.0745C1447.68 56.6804 1453.89 42.6324 1456.57 28.6472C1459.82 11.9874 1458.22 -5.25316 1451.96 -21.0303" stroke="#A5A5A5" stroke-miterlimit="10"/>
<path d="M949.563 336.905C957.568 307.545 977.231 277.795 1006.73 268.004C1029.52 260.458 1055.41 265.634 1076.53 276.387C1094.46 285.53 1110.49 296.868 1127.4 299.087C1148.73 301.886 1168.15 290.353 1191.02 278.135C1213.89 265.917 1233.49 251.164 1256.86 247.014C1273.3 244.103 1291.07 247.278 1307.57 253.667C1338.38 265.615 1351.3 292.824 1378.95 299.257C1405.36 305.401 1426.03 299.075 1438.26 288.007C1451.54 275.984 1460.06 248.391 1447.11 223.779C1439.23 208.825 1430.81 192.268 1420.93 176.308C1409.71 158.16 1405.41 135.548 1412.31 117.702C1418.41 101.931 1431.7 89.2408 1442.15 73.5201C1451.12 60.082 1457.94 46.2163 1461.31 32.1809C1465.44 15.2596 1464.55 -2.49692 1458.76 -18.9241" stroke="#A5A5A5" stroke-miterlimit="10"/>
<path d="M950.525 337.974C959.372 307.998 978.897 277.387 1009.05 267.049C1031.96 259.201 1058.21 264.188 1079.3 275.469C1097 284.939 1112.44 297.063 1129.28 300.414C1150.52 304.64 1171.04 294.818 1193.88 282.807C1217.15 270.558 1236.42 254.29 1260.17 249.259C1277.07 245.675 1295.48 248.599 1312.52 254.975C1342.12 266.049 1355.91 291.064 1382.7 297.39C1407.93 303.338 1428.43 298.075 1441.02 287.259C1454.51 275.683 1462.69 249.291 1451.64 225.596C1444.55 210.379 1436.65 193.778 1426.98 177.919C1416.29 160.399 1411.54 138.981 1417.29 121.538C1422.52 105.61 1435.03 92.4481 1445.43 76.9726C1454.49 63.4843 1462 49.8072 1466.06 35.7152C1471.07 18.5278 1470.9 0.244757 1465.58 -16.8486" stroke="#A5A5A5" stroke-miterlimit="10"/>
<path d="M951.481 339.043C961.121 308.457 980.57 276.991 1011.32 266.099C1034.36 257.962 1061 262.741 1082.04 274.557C1099.51 284.348 1114.33 297.27 1131.12 301.754C1152.27 307.413 1173.88 299.289 1196.71 287.435C1220.34 275.154 1239.3 257.365 1263.43 251.454C1280.79 247.203 1299.85 249.894 1317.43 256.233C1345.79 266.477 1360.43 289.253 1386.41 295.472C1410.46 301.232 1430.77 297.025 1443.73 286.473C1457.43 275.33 1465.35 250.102 1456.15 227.363C1449.86 211.857 1442.44 195.237 1432.97 179.484C1422.82 162.588 1417.59 142.383 1422.21 125.33C1426.57 109.232 1438.31 95.6049 1448.62 80.3747C1457.81 66.836 1465.99 53.335 1470.73 39.2052C1476.62 21.7623 1477.17 2.95857 1472.31 -14.7986" stroke="#A5A5A5" stroke-miterlimit="10"/>
<path d="M952.455 340.106C962.894 308.91 982.249 276.594 1013.62 265.162C1036.78 256.73 1063.75 261.295 1084.8 273.645C1102.05 283.763 1116.24 297.478 1133 303.093C1154.05 310.161 1176.79 303.766 1199.55 292.095C1223.57 279.795 1242.21 260.465 1266.73 253.686C1284.53 248.756 1304.24 251.24 1322.36 257.528C1349.49 266.961 1365.01 287.479 1390.15 293.592C1413.02 299.157 1433.15 296 1446.48 285.719C1460.38 274.997 1468.1 250.932 1460.67 229.181C1455.27 213.366 1448.25 196.739 1438.99 181.088C1429.37 164.82 1423.64 145.785 1427.16 129.159C1430.6 112.891 1441.62 98.8118 1451.9 83.8205C1461.22 70.2315 1470.07 56.9507 1475.47 42.7328C1482.25 25.0397 1483.52 5.71115 1479.12 -12.7173" stroke="#A5A5A5" stroke-miterlimit="10"/>
<path d="M953.392 341.175C964.673 309.362 983.934 276.198 1015.91 264.238C1039.18 255.522 1066.53 259.867 1087.56 272.758C1104.58 283.197 1118.2 297.666 1134.87 304.457C1155.85 312.903 1179.68 308.262 1202.4 296.779C1226.8 284.448 1245.11 263.577 1270.01 255.906C1288.25 250.296 1308.62 252.604 1327.29 258.817C1353.19 267.432 1369.6 285.643 1393.89 291.705C1415.59 297.031 1435.52 294.968 1449.22 284.957C1463.32 274.657 1470.94 251.749 1465.2 230.979C1460.55 214.087 1453.76 197.856 1445.01 182.678C1435.92 167.046 1429.65 149.2 1432.11 133.001C1434.62 116.563 1444.91 102.025 1455.14 87.2725C1464.57 73.6395 1474.12 60.5599 1480.19 46.2666C1487.85 28.3294 1489.85 8.47836 1485.9 -10.6235" stroke="#A5A5A5" stroke-miterlimit="10"/>
<path d="M954.342 342.244C966.447 309.809 985.613 275.808 1018.21 263.276C1041.63 254.277 1069.32 258.396 1090.32 271.834C1107.13 282.587 1120.13 297.867 1136.74 305.791C1157.63 315.67 1182.56 312.739 1205.28 301.433C1230.06 289.083 1248.04 266.665 1273.34 258.157C1292.04 251.869 1313.03 254.019 1332.26 260.125C1356.91 267.96 1374.2 283.889 1397.66 289.844C1418.19 294.981 1437.9 293.95 1452 284.222C1466.3 274.337 1473.89 252.611 1469.76 232.802C1466.08 215.764 1459.77 199.401 1451.07 184.301C1442.5 169.297 1435.68 152.646 1437.09 136.824C1438.58 120.23 1448.26 105.226 1458.43 90.706C1468.01 77.029 1478.21 64.1631 1484.95 49.7881C1493.49 31.608 1496.21 11.2335 1492.73 -8.54834" stroke="#A5A5A5" stroke-miterlimit="10"/>
<path d="M955.304 343.313C968.22 310.268 987.299 275.399 1020.5 262.351C1044.06 253.076 1072.11 256.956 1093.08 270.941C1109.67 282.008 1122.05 298.1 1138.61 307.143C1159.41 318.462 1185.47 317.273 1208.1 306.099C1233.29 293.78 1250.9 269.759 1276.6 260.389C1295.73 253.409 1317.37 255.453 1337.17 261.427C1360.57 268.489 1378.75 282.141 1401.36 287.963C1420.71 292.912 1440.25 292.912 1454.71 283.467C1469.16 274.022 1476.84 253.491 1474.24 234.62C1471.94 217.868 1465.65 201.292 1457.05 185.905C1448.99 171.536 1441.6 156.104 1442 140.66C1442.45 123.915 1451.55 108.452 1461.64 94.127C1471.38 80.4248 1482.23 67.7162 1489.63 53.2908C1499.06 34.8738 1502.5 13.9742 1499.47 -6.49194" stroke="#A5A5A5" stroke-miterlimit="10"/>
<path d="M956.26 344.395C969.993 310.721 989.003 275.091 1022.8 261.389C1046.5 251.869 1074.91 255.472 1095.84 270.017C1112.19 281.399 1123.98 298.314 1140.49 308.463C1161.2 321.203 1188.35 321.719 1210.95 310.74C1236.52 298.39 1253.78 272.828 1279.9 262.597C1299.47 254.931 1321.74 256.906 1342.1 262.703C1364.28 268.992 1383.33 280.311 1405.11 286.064C1423.28 290.825 1442.62 291.843 1457.46 282.694C1472.16 273.633 1479.9 254.397 1478.77 236.406C1477.7 219.39 1471.45 202.764 1463.05 187.489C1455.51 173.749 1447.51 159.563 1446.94 144.465C1446.31 127.6 1454.83 111.627 1464.88 97.573C1474.75 83.8142 1486.26 71.3697 1494.34 56.8249C1504.65 38.1793 1508.82 16.7592 1506.26 -4.3916" stroke="#A5A5A5" stroke-miterlimit="10"/>
<path d="M957.216 345.445C971.773 311.174 990.676 274.67 1025.09 260.465C1048.92 250.636 1077.72 254.026 1098.6 269.13C1114.77 280.82 1125.91 298.528 1142.36 309.809C1162.98 323.977 1191.23 326.19 1213.81 315.406C1239.75 303.011 1256.67 275.915 1283.19 264.829C1303.2 256.466 1326.1 258.421 1347.05 263.993C1367.99 269.564 1387.92 278.563 1408.85 284.184C1425.83 288.75 1444.99 290.793 1460.21 281.939C1475.11 273.274 1483.03 255.447 1483.31 238.217C1483.58 220.987 1477.24 204.26 1469.09 189.087C1462.07 175.988 1453.44 163.078 1451.92 148.294C1450.17 131.316 1458.15 114.822 1468.15 101.013C1478.14 87.2037 1490.36 74.9855 1499.08 60.3464C1510.27 41.4679 1515.15 19.5231 1513.04 -2.31641" stroke="#A5A5A5" stroke-miterlimit="10"/>
</g>
<g style="mix-blend-mode:multiply">
<path d="M1206.5 473.084C1188.18 461.765 1187.32 433.977 1198.06 415.308C1208.81 396.638 1227.54 384.281 1244.18 370.598C1260.81 356.914 1276.81 339.32 1278.18 317.82C1279.94 290.334 1257.21 265.376 1260.12 237.959C1262.39 216.616 1279.83 200.462 1298.15 191.426C1308.51 186.326 1320.48 184.54 1331.21 180.327C1379.87 161.28 1423.11 192.111 1453.41 167.065C1486.22 139.912 1484.55 109.521 1478.48 94.5482C1470.72 75.3627 1444.71 32.879 1393.49 44.5815C1372.69 49.3354 1351.36 53.3851 1330.04 52.0583C1298.14 50.0523 1267.13 24.9494 1265.09 -6.93218C1263.73 -28.784 1275.04 -51.5162 1267.14 -71.9405C1261.84 -85.6741 1248.41 -95.1569 1234.08 -98.5463C1219.76 -101.936 1204.65 -99.8982 1190.49 -95.88" stroke="#A5A5A5" stroke-miterlimit="10"/>
<path d="M1207.96 473.009C1189.67 460.652 1188.01 432.38 1198.79 412.924C1209.33 393.934 1228.22 381.282 1245.22 367.875C1262.02 354.632 1278.21 337.955 1280.43 317.204C1283.24 290.68 1262.52 265.929 1265.57 238.688C1268.05 217.025 1284.23 200.33 1301.98 190.306C1312.18 184.54 1324.26 181.874 1335.31 177.34C1382.3 158.148 1424.57 187.433 1454.26 162.94C1486.18 136.585 1485.28 106.974 1479.59 91.882C1472.37 72.7782 1447.21 31.9734 1397.71 42.1353C1377.33 46.3296 1356.16 49.7504 1335.05 48.3419C1303.97 46.3296 1273.89 22.3461 1271.18 -8.37852C1269.29 -29.6455 1279.58 -52.0695 1271.86 -72.3053C1266.59 -86.1395 1253.69 -95.9429 1239.79 -100.011C1225.76 -104.111 1210.71 -103.112 1196.36 -99.8543" stroke="#A5A5A5" stroke-miterlimit="10"/>
<path d="M1209.39 472.933C1191.15 459.552 1188.68 430.802 1199.5 410.547C1209.82 391.242 1228.88 378.27 1246.24 365.152C1263.19 352.349 1279.57 336.584 1282.65 316.588C1286.51 291.032 1267.74 266.483 1270.98 239.386C1273.62 217.377 1288.59 200.173 1305.78 189.137C1315.84 182.685 1327.99 179.157 1339.44 174.309C1384.8 155.079 1426.08 182.76 1455.14 158.846C1486.18 133.29 1486.05 104.465 1480.72 89.2912C1474.06 70.2754 1449.73 31.112 1401.96 39.7647C1381.94 43.3867 1360.94 46.1473 1340.05 44.6507C1309.81 42.6007 1280.63 19.7302 1277.24 -9.84994C1274.87 -30.5384 1284.16 -52.648 1276.55 -72.6951C1271.33 -86.6865 1258.95 -96.7541 1245.47 -101.495C1231.72 -106.331 1216.76 -106.356 1202.21 -103.854" stroke="#A5A5A5" stroke-miterlimit="10"/>
<path d="M1210.82 472.852C1192.58 458.451 1189.35 429.204 1200.2 408.164C1210.32 388.557 1229.54 375.264 1247.26 362.435C1264.35 350.054 1280.96 335.22 1284.87 315.971C1289.79 291.378 1273 267.03 1276.4 240.084C1279.22 217.78 1292.97 199.978 1309.57 187.967C1319.46 180.817 1331.73 176.447 1343.53 171.272C1387.29 152.08 1427.55 178.082 1456.03 154.758C1486.18 129.995 1486.84 101.937 1481.87 86.6752C1475.74 67.7474 1452.23 30.2063 1406.21 37.3687C1386.57 40.4248 1365.77 42.4874 1345.08 40.9656C1315.67 38.7961 1287.39 17.1015 1283.33 -11.3089C1280.47 -31.4315 1288.64 -53.2015 1281.28 -73.0725C1276.06 -87.1771 1264.22 -97.5968 1251.19 -102.967C1237.72 -108.545 1222.83 -109.589 1208.09 -107.84" stroke="#A5A5A5" stroke-miterlimit="10"/>
<path d="M1212.25 472.776C1194.06 457.351 1190.03 427.62 1200.93 405.787C1210.85 385.878 1230.22 372.245 1248.31 359.712C1265.55 347.765 1282.36 333.849 1287.11 315.355C1293.09 291.73 1278.3 267.564 1281.84 240.788C1284.85 218.15 1297.36 199.751 1313.4 186.797C1323.13 178.937 1335.49 173.749 1347.66 168.234C1389.83 149.13 1429.07 173.403 1456.93 150.665C1486.2 126.706 1487.6 99.459 1483.03 84.0653C1477.43 65.2319 1454.73 29.2754 1410.49 34.9726C1391.2 37.4879 1370.61 38.8714 1350.12 37.2741C1321.53 35.0481 1294.15 14.4728 1289.44 -12.7743C1286.07 -32.3183 1293.22 -53.7614 1286.02 -73.45C1280.83 -87.6804 1269.52 -98.3831 1256.92 -104.439C1243.71 -110.771 1228.92 -112.815 1213.99 -111.827" stroke="#A5A5A5" stroke-miterlimit="10"/>
<path d="M1213.68 472.676C1195.53 456.226 1190.71 426.017 1201.61 403.385C1211.34 383.174 1230.84 369.208 1249.31 356.965C1266.69 345.457 1283.74 332.472 1289.3 314.708C1296.39 292.07 1283.53 268.111 1287.24 241.462C1290.43 218.516 1301.7 199.481 1317.18 185.603C1326.74 177.025 1339.18 171.026 1351.76 165.172C1392.37 146.213 1430.56 168.7 1457.81 146.546C1486.19 123.386 1488.36 96.9315 1484.16 81.4309C1479.13 62.6918 1457.17 28.2823 1414.74 32.552C1395.8 34.4385 1375.42 35.2308 1355.15 33.5581C1327.39 31.2755 1300.87 11.8069 1295.54 -14.2329C1291.65 -33.2172 1297.76 -54.327 1290.75 -73.827C1285.58 -88.1894 1274.79 -99.2191 1262.63 -105.897C1249.72 -113.003 1234.99 -116.034 1219.87 -115.801" stroke="#A5A5A5" stroke-miterlimit="10"/>
<path d="M1215.11 472.625C1196.99 455.15 1191.4 424.463 1202.31 401.027C1211.85 380.527 1231.48 366.209 1250.33 354.274C1267.84 343.187 1285.12 331.133 1291.52 314.116C1299.69 292.447 1288.8 268.69 1292.65 242.185C1296.04 218.918 1306.05 199.242 1320.95 184.458C1330.38 175.145 1342.91 168.36 1355.81 162.166C1394.86 143.383 1431.99 164.053 1458.63 142.484C1486.13 120.116 1489.04 94.4603 1485.24 78.8402C1480.7 60.208 1459.53 27.2762 1418.93 30.1877C1399.34 31.6195 1379.68 31.5228 1360.11 29.8984C1333.17 27.5592 1307.51 9.18478 1301.57 -15.6917C1297.17 -34.1227 1302.25 -54.8929 1295.41 -74.2042C1290.27 -88.6673 1280 -100.068 1268.28 -107.381C1255.65 -115.267 1241.01 -119.279 1225.68 -119.807" stroke="#A5A5A5" stroke-miterlimit="10"/>
<path d="M1216.56 472.55C1198.48 454.056 1192.12 422.872 1203.04 398.65C1212.41 377.855 1232.15 363.184 1251.38 351.551C1269.02 340.861 1286.52 329.768 1293.76 313.5C1302.98 292.806 1294.1 269.243 1298.1 242.883C1301.68 219.308 1310.41 198.965 1324.8 183.289C1334.03 173.227 1346.71 165.681 1359.96 159.129C1397.48 140.572 1433.53 159.374 1459.56 138.378C1486.17 116.809 1489.83 91.9513 1486.42 76.218C1482.39 57.6864 1461.42 21.0697 1423.22 27.7981C1405.2 30.9423 1385.04 28.0308 1365.18 26.2135C1339.07 23.8302 1314.25 6.54372 1307.7 -17.1443C1302.76 -35.0282 1306.85 -55.4525 1300.15 -74.5815C1295.22 -88.4467 1286.08 -100.426 1274.01 -108.846C1261.66 -117.524 1247.1 -122.498 1231.58 -123.787" stroke="#A5A5A5" stroke-miterlimit="10"/>
<path d="M1217.97 472.474C1199.92 452.981 1192.82 421.319 1203.72 396.267C1212.91 375.207 1232.76 360.159 1252.41 348.834C1270.17 338.578 1287.9 328.403 1295.99 312.884C1306.26 293.158 1299.38 269.79 1303.54 243.587C1307.31 219.691 1314.76 198.67 1328.62 182.119C1337.67 171.309 1350.47 163.003 1364.07 156.092C1400.07 137.799 1435.02 154.696 1460.45 134.297C1486.17 113.545 1490.58 89.4736 1487.56 73.6208C1484.05 55.1898 1463.89 19.5415 1427.48 25.3959C1409.73 28.2445 1389.87 24.4149 1370.22 22.5222C1344.93 20.0886 1320.91 3.88368 1313.8 -18.6158C1308.32 -35.9526 1311.42 -56.0248 1304.91 -74.9652C1300.09 -88.9219 1291.36 -101.197 1279.75 -110.324C1267.5 -119.857 1252.9 -125.89 1237.49 -127.781" stroke="#A5A5A5" stroke-miterlimit="10"/>
<path d="M1219.4 472.393C1201.4 451.855 1193.5 419.753 1204.42 393.89C1213.44 372.509 1233.38 357.122 1253.4 346.099C1271.29 336.251 1289.24 327.026 1298.17 312.255C1309.49 293.497 1304.62 270.331 1308.91 244.272C1312.88 220.056 1319.02 198.368 1332.37 180.937C1341.24 169.372 1354.17 160.324 1368.13 153.042C1402.63 135.045 1436.46 150.011 1461.28 130.196C1486.12 110.225 1491.27 86.9707 1488.65 70.9922C1485.65 52.6744 1466.33 18.0637 1431.68 22.9874C1414.17 25.5027 1394.64 20.7865 1375.19 18.8183C1350.72 16.3407 1327.5 1.21106 1319.85 -20.0874C1313.81 -36.8897 1315.94 -56.6035 1309.59 -75.3551C1304.89 -89.428 1296.55 -102.009 1285.42 -111.827C1273.48 -122.217 1258.92 -129.126 1243.33 -131.799" stroke="#A5A5A5" stroke-miterlimit="10"/>
<path d="M1220.83 472.317C1202.86 450.755 1194.22 418.188 1205.11 391.506C1213.97 369.856 1234 354.085 1254.41 343.388C1272.42 333.956 1290.61 325.681 1300.38 311.651C1312.77 293.868 1309.9 270.903 1314.32 244.996C1318.49 220.471 1323.31 198.066 1336.16 179.792C1344.83 167.461 1357.91 157.695 1372.22 150.03C1405.22 132.36 1437.94 145.358 1462.14 126.134C1486.1 106.961 1491.98 84.5122 1489.76 68.4141C1487.25 50.1781 1468.82 16.6804 1435.91 20.6231C1418.6 22.6983 1399.44 17.2086 1380.2 15.1586C1356.55 12.6433 1334.1 -1.41104 1325.91 -21.521C1319.3 -37.7888 1320.47 -57.1441 1314.28 -75.7072C1309.28 -90.7047 1301.13 -103.552 1291.1 -113.261C1279.48 -124.506 1264.96 -132.29 1249.17 -135.741" stroke="#A5A5A5" stroke-miterlimit="10"/>
<path d="M1222.26 472.242C1204.33 449.654 1194.93 416.622 1205.83 389.129C1214.52 367.196 1234.64 351.041 1255.44 340.672C1273.57 331.629 1291.99 324.322 1302.61 311.035C1316.05 294.22 1315.18 271.457 1319.74 245.681C1324.14 220.836 1327.61 197.733 1339.96 178.61C1348.43 165.511 1361.67 155.035 1376.32 146.986C1407.85 129.668 1439.43 140.698 1463.03 122.022C1486.09 103.647 1492.71 82.003 1490.9 65.7855C1488.89 47.6815 1471.31 21.5159 1440.16 18.2146C1423.04 16.3972 1404.26 13.5864 1385.22 11.4546C1362.4 8.89531 1340.68 -4.07743 1332 -22.9926C1324.78 -38.7133 1325.02 -57.7228 1319 -76.0972C1314.04 -91.2205 1306.42 -104.457 1296.81 -114.745C1285.52 -126.849 1271.05 -135.514 1255.05 -139.741" stroke="#A5A5A5" stroke-miterlimit="10"/>
<path d="M1223.69 472.166C1205.79 448.554 1195.66 415.062 1206.53 386.746C1215.07 364.53 1235.26 347.992 1256.47 337.949C1274.71 329.309 1293.36 322.945 1304.83 310.419C1319.3 294.573 1320.48 272.01 1325.16 246.385C1329.75 221.232 1331.89 197.412 1343.78 177.441C1352.03 163.569 1365.44 152.394 1380.43 143.949C1410.49 126.971 1440.95 136.038 1463.91 117.928C1486.12 100.403 1493.43 79.513 1492.04 63.1698C1490.51 45.1853 1473.64 20.1767 1444.41 15.8189C1427.56 13.3036 1409.07 9.98341 1390.25 7.76364C1368.24 5.17287 1347.24 -6.69942 1338.09 -24.4575C1330.26 -39.6375 1329.58 -58.2948 1323.72 -76.4743C1318.8 -91.7297 1311.74 -105.356 1302.52 -116.216C1291.57 -129.178 1277.13 -138.726 1260.92 -143.728" stroke="#A5A5A5" stroke-miterlimit="10"/>
<path d="M1225.12 472.091C1207.26 447.46 1196.38 413.503 1207.23 384.369C1215.62 361.87 1235.89 344.935 1257.49 335.226C1275.84 326.976 1294.73 321.581 1307.05 309.796C1322.6 294.925 1325.77 272.563 1330.58 247.083C1335.38 221.603 1336.16 197.085 1347.55 176.271C1355.59 161.625 1369.19 149.772 1384.51 140.912C1413.12 124.367 1442.42 131.36 1464.76 113.872C1486.09 97.139 1494.12 77.0542 1493.15 60.5915C1492.1 42.7139 1475.93 18.787 1448.63 13.4293C1432.05 10.1972 1413.86 6.39274 1395.24 4.08494C1374.07 1.46273 1353.74 -9.34685 1344.15 -25.9102C1335.69 -40.5431 1334.12 -58.8545 1328.43 -76.8453C1323.55 -92.2328 1317.04 -106.256 1308.22 -117.681C1297.61 -131.498 1283.21 -141.932 1266.78 -147.714" stroke="#A5A5A5" stroke-miterlimit="10"/>
<path d="M1226.56 472.047C1208.72 446.391 1197.11 411.975 1207.94 382.024C1216.17 359.241 1236.5 341.905 1258.51 332.541C1276.98 324.675 1296.1 320.248 1309.27 309.212C1325.87 295.302 1331.07 273.155 1336 247.813C1341.03 222.031 1340.4 196.796 1351.37 175.133C1359.17 159.714 1372.98 147.194 1388.62 137.906C1415.8 121.777 1443.92 126.713 1465.66 109.779C1486.1 93.8441 1494.84 74.5642 1494.3 57.982C1493.72 40.2113 1478.28 17.3031 1452.89 11.0651C1436.58 7.02172 1418.69 2.78969 1400.28 0.387564C1379.93 -2.25981 1360.26 -11.9689 1350.26 -27.3752C1341.13 -41.4421 1338.7 -59.4455 1333.15 -77.2288C1328.31 -92.742 1322.37 -107.167 1313.93 -119.159C1303.67 -133.827 1289.32 -145.148 1272.66 -151.707" stroke="#A5A5A5" stroke-miterlimit="10"/>
<path d="M1227.98 471.934C1210.19 445.259 1197.85 410.384 1208.64 379.609C1216.73 356.55 1237.13 338.811 1259.53 329.787C1278.11 322.304 1297.47 318.845 1311.49 308.564C1329.14 295.616 1336.36 273.677 1341.41 248.486C1346.64 222.37 1344.66 196.438 1355.17 173.932C1362.72 157.739 1376.77 144.565 1392.72 134.844C1418.51 119.123 1445.41 122.003 1466.53 105.653C1486.09 90.5176 1495.53 72.0489 1495.46 55.3472C1495.34 37.696 1480.64 15.731 1457.16 8.65036C1441.14 3.82724 1423.53 -0.782078 1405.32 -3.29739C1385.83 -5.96992 1366.75 -14.5723 1356.36 -28.8341C1346.52 -42.3351 1343.26 -60.0052 1337.87 -77.6061C1333.07 -93.2514 1327.7 -108.079 1319.63 -120.631C1309.73 -136.15 1295.42 -148.36 1278.53 -155.694" stroke="#A5A5A5" stroke-miterlimit="10"/>
<path d="M1229.42 471.858C1211.65 444.158 1198.6 408.824 1209.34 377.232C1217.29 353.896 1237.74 335.729 1260.56 327.064C1279.25 319.965 1298.84 317.474 1313.71 307.948C1332.41 295.962 1341.66 274.236 1346.83 249.184C1352.28 222.773 1348.9 196.117 1358.97 172.762C1366.29 155.784 1380.57 141.987 1396.82 131.806C1421.17 116.557 1446.88 117.343 1467.4 101.566C1486.07 87.2225 1496.22 69.5586 1496.56 52.7249C1496.91 35.1806 1482.99 14.0771 1461.38 6.24187C1445.66 0.544682 1428.32 -4.39791 1410.31 -6.96353C1391.61 -9.68008 1373.18 -17.1443 1362.45 -30.2994C1351.9 -43.1715 1347.83 -60.5712 1342.58 -77.9835C1337.83 -93.7608 1333.03 -108.985 1325.33 -122.102C1315.79 -138.469 1301.52 -151.568 1284.4 -159.681" stroke="#A5A5A5" stroke-miterlimit="10"/>
<path d="M1230.85 471.783C1213.12 443.058 1199.34 407.278 1210.05 374.849C1217.85 351.236 1238.35 332.661 1261.58 324.348C1280.38 317.613 1300.2 316.097 1315.92 307.331C1335.64 296.27 1346.96 274.796 1352.24 249.882C1357.9 223.144 1353.13 195.802 1362.77 171.592C1369.83 153.853 1384.38 139.428 1400.92 128.769C1423.86 113.985 1448.33 112.608 1468.27 97.4724C1486.03 83.8897 1496.9 67.0811 1497.69 50.1027C1498.49 32.659 1485.41 12.373 1465.62 3.83346C1449.54 -3.12781 1432.63 -8.00715 1415.31 -10.6862C1397.45 -13.409 1379.61 -19.6973 1368.51 -31.7583C1357.25 -43.989 1352.39 -61.1435 1347.3 -78.3608C1342.59 -94.2702 1338.37 -109.89 1331.04 -123.574C1321.85 -140.783 1307.63 -154.773 1290.27 -163.668" stroke="#A5A5A5" stroke-miterlimit="10"/>
<path d="M1232.28 471.707C1214.59 441.957 1200.09 405.718 1210.76 372.472C1218.42 348.576 1238.97 329.573 1262.61 321.625C1281.52 315.261 1301.59 314.707 1318.14 306.715C1338.93 296.622 1352.27 275.349 1357.67 250.579C1363.57 223.54 1357.36 195.475 1366.58 170.423C1373.38 151.91 1388.23 136.881 1405.02 125.732C1426.57 111.426 1449.82 107.93 1469.16 93.3785C1486.03 80.5944 1497.59 64.5719 1498.83 47.474C1500.08 30.1372 1487.9 10.6121 1469.9 1.43115C1454.32 -6.37865 1437.61 -11.7163 1420.39 -14.3902C1403.32 -17.113 1386.08 -22.2254 1374.63 -33.2551C1362.62 -44.8129 1357.02 -61.7536 1352.05 -78.776C1347.4 -94.8174 1343.76 -110.846 1336.78 -125.083C1327.96 -143.131 1313.78 -158.013 1296.17 -167.692" stroke="#A5A5A5" stroke-miterlimit="10"/>
<path d="M1233.71 471.632C1216.05 440.863 1200.84 404.165 1211.46 370.088C1219 345.922 1239.59 326.479 1263.65 318.902C1282.67 312.909 1302.96 313.337 1320.38 306.099C1342.23 296.968 1357.64 275.915 1363.11 251.284C1369.29 223.93 1361.6 195.161 1370.39 169.253C1376.95 149.967 1392.09 134.384 1409.15 122.72C1429.32 108.885 1451.33 103.27 1470.05 89.31C1486.01 77.2994 1498.28 62.0502 1499.95 44.8895C1501.61 27.7288 1490.44 8.85761 1474.11 -0.939544C1459.64 -9.63625 1442.73 -15.1385 1425.37 -18.0563C1409.12 -20.7791 1392.46 -24.6778 1380.69 -34.6825C1367.92 -45.5172 1361.57 -62.2944 1356.74 -79.1155C1352.16 -95.3016 1349.08 -111.695 1342.45 -126.523C1334 -145.407 1319.87 -161.182 1302.02 -171.648" stroke="#A5A5A5" stroke-miterlimit="10"/>
<path d="M1235.14 471.556C1217.53 439.763 1201.65 402.624 1212.16 367.712C1219.59 343.275 1240.2 323.385 1264.64 316.185C1283.78 310.526 1304.31 311.966 1322.58 305.495C1345.48 297.32 1362.9 276.494 1368.48 252.001C1374.87 224.332 1365.77 194.865 1374.14 168.102C1380.43 148.043 1395.92 131.926 1413.2 119.683C1432.01 106.351 1452.76 98.5979 1470.87 85.2165C1485.97 74.0296 1498.89 59.5917 1501.06 42.2989C1503.2 25.1633 1493.08 7.08447 1478.33 -3.31636C1464.4 -13.145 1447.52 -18.6849 1430.37 -21.7222C1414.93 -24.4513 1398.87 -27.105 1386.74 -36.1224C1373.2 -46.1836 1366.09 -62.8413 1361.43 -79.4738C1356.89 -95.7856 1354.41 -112.575 1348.12 -127.975C1340.05 -147.692 1325.97 -164.362 1307.88 -175.615" stroke="#A5A5A5" stroke-miterlimit="10"/>
<path d="M1236.57 471.481C1218.97 438.662 1202.37 401.052 1212.86 365.328C1220.12 340.603 1240.82 320.279 1265.68 313.463C1284.92 308.18 1305.7 310.601 1324.79 304.86C1348.75 297.666 1368.18 277.034 1373.91 252.667C1380.51 224.684 1369.98 194.526 1377.96 166.901C1383.98 146.075 1399.85 129.448 1417.32 116.595C1434.79 103.742 1454.26 93.9006 1471.77 81.1039C1485.99 70.7157 1499.57 57.0701 1502.2 39.6641C1504.78 22.6229 1495.85 5.28604 1482.6 -5.73104C1469.34 -16.7481 1452.37 -22.2629 1435.4 -25.4322C1420.78 -28.1614 1405.31 -29.5259 1392.84 -37.6001C1378.52 -46.8564 1370.65 -63.4324 1366.16 -79.87C1361.66 -96.3076 1359.78 -113.487 1353.84 -129.466C1346.13 -150.016 1332.09 -167.581 1313.74 -179.621" stroke="#A5A5A5" stroke-miterlimit="10"/>
</g>
</g>
<g opacity="0.2">
<g style="mix-blend-mode:multiply">
<path d="M341.346 3.63379C337.546 19.8972 332.777 35.919 327.066 51.6134C324.55 58.5871 321.708 65.6489 316.809 71.2203C304.277 85.4633 282.35 85.9035 263.636 82.8096C246.377 79.9563 229.519 75.0589 213.417 68.2208C197.483 61.4546 182.07 52.7202 164.998 49.8527C147.925 46.9853 128.066 51.6134 118.867 66.2589C113.396 74.987 112.522 86.0292 114.66 96.1094C116.798 106.189 121.703 115.458 127.142 124.205C133.374 134.216 140.605 144.359 141.542 156.112C142.511 168.286 135.788 180.737 125.073 186.598C109.837 194.936 91.1857 189.704 74.0941 186.598C52.3869 182.643 29.1014 182.674 9.26811 192.352C-10.5652 202.029 -25.896 223.051 -23.8586 245.022" stroke="#A5A5A5" stroke-miterlimit="10"/>
<path d="M337.498 0.344971C333.8 16.2433 329.114 31.8958 323.469 47.2116C320.954 54.0155 318.181 60.8949 313.408 66.3531C301.202 80.3006 279.986 81.0677 261.787 78.4141C257.465 77.7853 253.168 77.0223 248.896 76.1251C236.581 73.5504 224.517 69.8932 212.846 65.1961C197.276 58.9078 182.184 50.733 165.495 48.1108C148.806 45.4886 129.991 50.2803 120.269 63.9196C116.651 68.8487 114.188 74.529 113.063 80.5395C112.347 84.6608 112.203 88.8612 112.635 93.0218C112.821 94.955 113.117 96.8761 113.522 98.7756C115.195 106.472 118.754 114.012 122.646 121.168C123.03 121.879 123.42 122.583 123.81 123.294C129.897 134.279 136.323 145.516 136.676 157.81C137.015 169.645 130.771 181.706 120.326 187.459C105.479 195.678 87.3753 190.974 70.8434 188.346C69.5417 188.138 68.2338 187.944 66.9195 187.774C47.0737 185.12 26.3223 186.202 8.61451 195.357C-10.2504 205.117 -24.682 225.686 -22.3993 247.035" stroke="#A5A5A5" stroke-miterlimit="10"/>
<path d="M333.643 -2.94385C330.045 12.5894 325.443 27.8727 319.866 42.8097C317.394 49.4439 314.646 56.1535 309.993 61.4922C298.14 75.1378 277.602 76.2257 259.926 74.0122C255.733 73.484 251.554 72.8279 247.387 72.044C235.406 69.7901 223.647 66.4822 212.248 62.1588C197.043 56.3924 182.272 48.7648 165.979 46.3689C149.686 43.9731 131.795 48.9534 121.678 61.574C117.59 66.6675 114.257 71.6918 112.478 77.4834C111.242 81.5187 110.606 85.7139 110.591 89.9342C110.58 91.9418 110.702 93.948 110.956 95.9395C112.012 104.077 115.546 112.289 119.363 120.08C119.747 120.854 120.124 121.621 120.508 122.388C126.45 134.336 132.091 146.642 131.827 159.489C131.607 170.965 125.771 182.617 115.616 188.314C101.153 196.414 83.6145 192.226 67.636 190.094C66.3783 189.924 65.1207 189.767 63.863 189.629C44.6963 187.554 24.8379 189.126 8.02931 198.363C-9.89861 208.211 -23.4121 228.321 -20.8968 249.047" stroke="#A5A5A5" stroke-miterlimit="10"/>
<path d="M329.795 -6.23877C326.291 8.92969 321.773 23.8456 316.269 38.4081C313.823 44.8724 311.113 51.3997 306.585 56.6441C294.996 69.9753 275.225 71.3902 258.065 69.6106C253.99 69.1913 249.93 68.6443 245.884 67.9693C234.24 66.0453 222.789 63.0973 211.663 59.1594C196.823 53.8961 182.372 46.8218 166.463 44.6586C150.554 42.4955 133.5 47.6204 123.074 59.2663C118.534 64.3347 114.383 68.8371 111.887 74.4526C110.116 78.3739 108.976 82.5506 108.51 86.8279C108.285 88.916 108.225 91.0185 108.328 93.1162C108.768 101.693 112.277 110.616 116.025 119.011C116.396 119.841 116.767 120.671 117.144 121.527C122.942 134.474 127.834 147.768 126.947 161.262C126.231 172.355 120.735 183.642 110.862 189.252C96.8076 197.238 79.8041 193.572 64.3789 191.924C63.159 191.798 61.9391 191.679 60.7191 191.578C42.2379 190.075 23.2661 192.138 7.35044 201.457C-9.62794 211.393 -22.2045 231.012 -19.4377 251.135" stroke="#A5A5A5" stroke-miterlimit="10"/>
<path d="M325.947 -9.51514C322.538 5.28326 318.1 19.8257 312.666 34.0061C310.257 40.2944 307.572 46.633 303.17 51.7517C291.933 64.8187 272.848 66.5543 256.209 65.2149C252.252 64.9005 248.311 64.4624 244.387 63.9006C233.071 62.2822 221.919 59.673 211.06 56.1032C196.597 51.3366 182.454 44.7842 166.941 42.8977C151.428 41.0113 135.103 46.1865 124.482 56.8955C119.452 61.9261 114.528 65.9192 111.277 71.3585C108.967 75.1846 107.326 79.3758 106.422 83.7528C105.991 85.8944 105.756 88.0707 105.718 90.2549C105.536 99.2723 109.026 108.893 112.698 117.923L113.792 120.596C119.471 134.499 123.596 148.767 122.068 162.916C120.917 173.606 115.704 184.554 106.108 190.081C92.4499 197.948 75.9997 194.804 61.1279 193.647C59.952 193.553 58.7761 193.477 57.6002 193.414C39.8106 192.471 21.7318 195.037 6.70905 204.419C-9.30722 214.436 -20.9594 233.634 -17.9599 253.115" stroke="#A5A5A5" stroke-miterlimit="10"/>
<path d="M322.098 -12.804C318.785 1.62888 314.428 15.8022 309.062 29.6043C306.685 35.7291 304.032 41.8979 299.768 46.8971C288.846 59.656 270.471 61.7186 254.348 60.8193C250.516 60.6055 246.695 60.2743 242.884 59.8258C231.908 58.5291 221.067 56.2692 210.487 53.0722C196.376 48.8087 182.567 42.8348 167.438 41.1244C152.308 39.414 136.625 44.7213 125.885 54.5373C120.363 59.568 114.666 63.0139 110.717 68.2898C107.892 71.9976 105.762 76.186 104.429 80.6526C103.786 82.852 103.364 85.1103 103.171 87.3936C102.373 96.8261 105.837 107.164 109.459 116.791C109.812 117.747 110.17 118.678 110.522 119.653C116.043 134.55 119.452 149.773 117.263 164.595C115.741 174.901 110.755 185.491 101.436 190.937C88.1108 198.703 72.2203 196.08 57.927 195.408C56.8014 195.357 55.6695 195.32 54.5376 195.294C37.4209 194.942 20.2287 197.979 6.11776 207.462C-8.9427 217.568 -19.7208 236.307 -16.432 255.165" stroke="#A5A5A5" stroke-miterlimit="10"/>
<path d="M318.262 -16.0928C315.043 -2.02506 310.765 11.7793 305.465 25.2024C303.113 31.1637 300.51 37.1502 296.36 42.0362C285.758 54.5121 268.094 56.8954 252.493 56.4363C248.783 56.3274 245.079 56.1052 241.381 55.7698C230.739 54.7919 220.204 52.8813 209.896 50.06C196.15 46.287 182.661 40.8791 167.928 39.4202C153.194 37.9614 138.071 43.2435 127.287 52.2421C121.231 57.2727 114.798 60.1464 110.12 65.2462C106.765 68.824 104.129 73.0123 102.354 77.5839C101.495 79.8389 100.887 82.1819 100.543 84.5702C99.1277 94.4679 102.574 105.479 106.095 115.754C106.447 116.768 106.795 117.783 107.139 118.797C112.515 134.669 115.245 150.83 112.346 166.349C110.497 176.253 105.686 186.472 96.625 191.855C83.7591 199.489 68.4031 197.382 54.6381 197.206C53.5565 197.206 52.4686 197.206 51.3807 197.206C34.9431 197.432 18.6439 200.979 5.41333 210.518C-8.69759 220.712 -18.5639 238.992 -15.0299 257.228" stroke="#A5A5A5" stroke-miterlimit="10"/>
<path d="M314.394 -19.3816C311.28 -5.67892 307.089 7.75679 301.862 20.8006C299.548 26.5921 296.976 32.3962 292.945 37.1501C282.67 49.3305 265.717 52.0345 250.631 52.0156C247.047 52.0156 243.465 51.9004 239.884 51.6698C229.576 51.0175 219.345 49.4562 209.311 47.0039C195.929 43.7465 182.762 38.8794 168.437 37.6532C154.112 36.427 137.838 39.917 128.689 49.8713C121.3 53.638 114.936 57.2727 109.547 62.1901C105.672 65.6307 102.528 69.8158 100.303 74.4963C99.2313 76.8062 98.4396 79.2361 97.9452 81.7341C95.9141 92.0658 99.3349 103.743 102.787 114.628C103.131 115.706 103.471 116.783 103.806 117.86C109.038 134.707 111.125 151.817 107.478 168.016C105.34 177.524 100.687 187.44 91.8833 192.697C79.4073 200.212 64.6047 198.627 51.393 198.942C50.3491 198.942 49.3116 199.004 48.2488 199.055C32.4967 199.853 17.0778 203.865 4.74647 213.518C-8.40234 223.799 -17.3632 241.62 -13.5776 259.234" stroke="#A5A5A5" stroke-miterlimit="10"/>
<path d="M310.546 -22.6702C307.526 -9.33291 303.417 3.73399 298.259 16.399C295.976 22.0144 293.442 27.6487 289.537 32.3083C279.583 44.1743 263.34 47.2116 248.776 47.6266C245.314 47.7272 241.849 47.7272 238.382 47.6266C228.408 47.292 218.482 46.0821 208.72 44.0108C195.703 41.2251 182.856 36.9114 168.903 35.8927C154.949 34.874 139.234 38.2508 130.098 47.5323C122.111 51.0915 115.068 54.374 108.963 59.1593C104.58 62.4635 100.938 66.6492 98.2725 71.4467C96.9899 73.8051 96.0136 76.3177 95.3673 78.9234C92.7199 89.6953 96.1219 102.096 99.4987 113.572C99.8341 114.704 100.165 115.842 100.492 116.986C105.579 134.807 107.064 152.83 102.63 169.745C100.228 178.825 95.6566 188.377 87.1674 193.572C75.0876 200.967 60.8383 199.904 48.18 200.702C47.1801 200.765 46.1866 200.847 45.1868 200.935C30.0949 202.312 15.5878 206.808 4.14938 216.543C-8.04361 226.899 -16.0926 244.268 -12.0618 261.259" stroke="#A5A5A5" stroke-miterlimit="10"/>
<path d="M306.698 -25.959C303.775 -12.9869 299.749 -0.288596 294.662 11.9971C292.411 17.4428 289.902 22.8947 286.129 27.4412C276.495 39.0368 260.963 42.3696 246.915 43.2248C243.561 43.4344 240.207 43.535 236.854 43.5266C227.213 43.5145 217.593 42.6538 208.104 40.9547C195.452 38.6972 182.95 34.9305 169.355 34.1759C155.76 33.4213 140.63 36.5843 131.5 45.193C122.922 48.551 115.207 51.4813 108.378 56.0717C103.482 59.232 99.3271 63.4126 96.1972 68.3276C94.7055 70.7344 93.5463 73.332 92.7513 76.0496C89.4876 87.2617 92.8645 100.354 96.1721 112.446C96.4991 113.641 96.8219 114.84 97.1405 116.043C102.083 134.845 103.014 153.773 97.7693 171.418C95.1471 180.133 90.6258 189.327 82.451 194.439C70.7422 201.721 57.0464 201.18 44.9414 202.469C43.9856 202.57 43.0549 202.683 42.0802 202.815C27.6926 204.765 14.0533 209.732 3.50787 219.567C-7.7293 230.012 -14.8665 246.921 -10.5842 263.29" stroke="#A5A5A5" stroke-miterlimit="10"/>
<path d="M302.85 -29.2478C300.024 -16.6403 296.078 -4.31027 291.059 7.59528C288.839 12.8774 286.368 18.1533 282.721 22.5803C273.408 33.8992 258.586 37.559 245.054 38.8544C241.843 39.1646 238.619 39.3742 235.383 39.4832C226.076 39.7874 216.761 39.274 207.544 37.9488C195.263 36.1693 183.064 32.9559 169.859 32.434C156.653 31.9121 142.001 34.9493 132.883 42.8474C123.715 45.9916 115.327 48.6012 107.768 53.0093C102.618 56.0151 97.7131 60.0333 94.1476 65.24C92.4484 67.6947 91.1041 70.3769 90.1545 73.2073C86.2747 84.8595 89.6263 98.6497 92.8585 111.358C93.1792 112.616 93.4873 113.874 93.808 115.131C98.6123 134.908 99.021 154.792 92.8837 173.109C90.0917 181.448 85.5955 190.289 77.6912 195.313C66.3722 202.469 53.2549 202.45 41.7033 204.236C40.7915 204.375 39.8797 204.526 38.9742 204.695C25.2657 207.211 12.5193 212.694 2.87309 222.592C-7.41455 233.125 -13.64 249.575 -9.07466 265.352" stroke="#A5A5A5" stroke-miterlimit="10"/>
<path d="M298.995 -32.5366C296.267 -20.2932 292.402 -8.33127 287.45 3.19344C285.261 8.30582 282.828 13.3993 279.306 17.7194C270.314 28.7239 256.203 32.7232 243.193 34.4588C240.099 34.878 236.992 35.1945 233.873 35.4083C224.904 36.0216 215.899 35.8511 206.959 34.899C195.012 33.6413 183.152 30.9814 170.368 30.6921C157.584 30.4029 143.448 33.2515 134.305 40.5082C124.545 43.4574 115.477 45.7149 107.202 49.9406C101.543 52.8269 96.1032 56.8577 92.1101 62.1399C90.2049 64.6416 88.6753 67.4084 87.57 70.3524C83.0801 82.4636 86.3941 96.9393 89.5508 110.264C89.8652 111.585 90.1712 112.907 90.4689 114.232C95.1348 134.983 95.0845 155.829 88.0165 174.82C85.0547 182.768 80.6026 191.245 72.9246 196.2C62.027 203.243 49.4252 203.746 38.427 206.016C37.5655 206.198 36.6977 206.387 35.8362 206.594C22.8132 209.695 10.9535 215.656 2.20018 225.635C-7.13164 236.256 -12.4452 252.247 -7.66614 267.371" stroke="#A5A5A5" stroke-miterlimit="10"/>
<path d="M295.146 -35.7937C292.508 -23.9243 288.717 -12.3408 283.827 -1.20811C281.677 3.73448 279.274 8.64564 275.872 12.8525C267.207 23.5426 253.807 27.8878 241.287 30.0573C238.319 30.5813 235.334 31.0005 232.332 31.3149C223.694 32.2587 214.989 32.446 206.318 31.8746C194.766 31.1137 183.196 29.0134 170.801 28.9568C158.407 28.9002 144.812 31.579 135.707 38.1692C125.362 40.9234 115.615 42.8099 106.617 46.891C100.461 49.6641 94.4994 53.6383 90.0472 59.0651C87.9381 61.613 86.2252 64.4643 84.9663 67.5229C79.8539 80.0617 83.1616 95.2354 86.224 109.177C86.53 110.552 86.8276 111.935 87.1169 113.327C91.6382 135.053 91.1854 156.886 83.1301 176.518C80.0174 184.095 75.5842 192.201 68.1954 197.055C57.694 203.972 45.6456 205.004 35.2008 207.745C34.377 207.966 33.5595 208.192 32.7421 208.437C20.3982 212.11 9.43138 218.568 1.57102 228.623C-6.80498 239.313 -11.2068 254.864 -6.17615 269.364" stroke="#A5A5A5" stroke-miterlimit="10"/>
<path d="M291.298 -39.1143C288.764 -27.6003 285.064 -16.3744 280.256 -5.61026C278.13 -0.843733 275.766 3.89763 272.49 7.98502C264.145 18.3984 251.455 23.0769 239.482 25.6614C236.632 26.2818 233.764 26.8143 230.88 27.2586C222.577 28.524 214.18 29.0605 205.783 28.8621C194.59 28.6043 183.347 27.0511 171.343 27.2335C159.338 27.4158 147.095 31.6353 137.115 35.8547C126.777 40.2565 115.735 39.9673 106.032 43.8597C99.3793 46.5134 92.8898 50.4624 87.9975 56.0024C85.6724 58.5933 83.7633 61.5292 82.3381 64.7054C76.6094 77.6844 79.8982 93.5498 82.9103 108.095C83.2038 109.537 83.493 110.983 83.7781 112.434C88.1799 135.141 87.3561 157.986 78.257 178.228C75.0374 185.441 70.5664 193.156 63.4795 197.929C53.3679 204.733 41.8729 206.305 31.9815 209.531C31.2017 209.783 30.4282 210.053 29.6548 210.336C17.9963 214.587 7.91617 221.529 0.948751 231.666C-6.47143 242.456 -9.96772 257.536 -4.71071 271.414" stroke="#A5A5A5" stroke-miterlimit="10"/>
<path d="M287.449 -42.3962C285.008 -31.2492 281.389 -20.3933 276.652 -10.0116C274.558 -5.40853 272.25 -0.849516 269.106 3.12468C261.082 13.2488 249.103 18.2166 237.665 21.2664C234.944 21.9958 232.198 22.6372 229.427 23.1906C221.442 24.778 213.332 25.6618 205.192 25.8317C194.37 26.0769 183.441 25.0771 171.826 25.4984C160.212 25.9197 148.327 29.7996 138.499 33.5097C127.494 37.6725 115.861 37.0814 105.422 40.8041C98.2975 43.3131 91.2547 47.2433 85.941 52.8713C83.425 55.5095 81.3429 58.5297 79.7722 61.8196C73.4211 75.2576 76.6847 91.821 79.6276 106.995C79.9169 108.491 80.1977 109.998 80.4702 111.516C84.7023 135.198 83.6144 159.099 73.4148 179.92C70.0505 186.793 65.5481 194.113 58.7379 198.785C49.0225 205.488 38.0809 207.563 28.7428 211.292C28.007 211.588 27.2776 211.921 26.5482 212.217C15.5688 217.04 6.38161 224.472 0.313415 234.691C-6.15723 245.57 -8.74172 260.19 -3.20803 273.446" stroke="#A5A5A5" stroke-miterlimit="10"/>
<path d="M283.601 -45.6853C281.257 -34.9015 277.718 -24.4128 273.049 -14.4136C270.993 -10.0118 268.698 -5.61004 265.673 -1.73645C257.97 8.08585 246.701 13.3554 235.766 16.8706C233.163 17.709 230.534 18.4573 227.881 19.1155C220.247 21.023 212.462 22.2602 204.614 22.813C194.156 23.555 183.554 23.1086 172.33 23.7626C161.105 24.4165 149.579 27.9757 139.933 31.1764C128.236 35.0186 116.024 34.1697 104.856 37.7163C97.2162 40.1373 89.6703 44.0674 83.8913 49.8024C81.1709 52.484 78.9028 55.5888 77.1754 58.9958C70.208 72.8301 73.4528 90.1103 76.3139 105.906C76.599 107.466 76.8736 109.032 77.1377 110.604C81.2314 135.248 79.936 160.275 68.5479 181.617C65.0705 188.151 60.5366 195.068 54.0031 199.671C44.6838 206.242 34.2893 208.821 25.5046 213.059C24.8128 213.392 24.1211 213.738 23.442 214.096C13.1418 219.498 4.84123 227.415 -0.32774 237.715C-5.84257 248.682 -7.51526 262.868 -1.73003 275.476" stroke="#A5A5A5" stroke-miterlimit="10"/>
<path d="M279.753 -48.9993C277.506 -38.5714 274.049 -28.4416 269.452 -18.8155C267.506 -14.5127 265.107 -10.4296 262.296 -6.63506C254.914 2.89798 244.356 8.51342 233.936 12.4436C231.459 13.3827 228.943 14.24 226.39 15.0155C219.087 17.2369 211.606 18.8212 204.029 19.7506C193.968 21.0083 183.649 21.1026 172.814 21.9892C161.979 22.8759 150.805 26.0955 141.335 28.8057C128.985 32.3335 116.157 31.2896 104.272 34.635C96.1409 36.9616 88.0667 40.8415 81.8224 46.7148C78.9004 49.4392 76.4467 52.6259 74.5595 56.1472C66.9947 70.4782 70.2143 88.3998 73.0188 104.812C73.2955 106.435 73.5617 108.063 73.8175 109.698C77.7665 135.336 76.3328 161.501 63.6996 183.315C60.109 189.528 55.5248 196.024 49.2743 200.545C40.3197 206.997 30.4911 210.078 22.2661 214.82C21.6372 215.197 20.9707 215.58 20.3356 215.97C10.7208 221.951 3.30686 230.358 -0.969174 240.74C-5.52818 251.795 -6.28906 265.497 -0.258594 277.508" stroke="#A5A5A5" stroke-miterlimit="10"/>
<path d="M275.898 -52.2629C273.742 -42.2169 270.363 -32.4729 265.837 -23.2488C263.901 -19.1101 261.556 -15.175 258.838 -11.5023C251.795 -2.26476 241.948 3.67767 232.05 8.04175C229.692 9.0856 227.296 10.054 224.881 10.9406C217.91 13.4839 210.731 15.4175 203.426 16.7196C193.698 18.4677 183.737 19.128 173.292 20.2473C162.847 21.3666 152.082 24.2215 142.725 26.4601C129.677 29.6043 116.314 28.3969 103.687 31.5914C95.0597 33.7797 86.4573 37.6407 79.7918 43.6272C76.6678 46.3982 74.0281 49.6711 71.9817 53.3111C63.8069 68.0509 66.9511 86.6957 69.6991 103.724C69.9715 105.401 70.2273 107.091 70.4662 108.793C74.2769 135.405 72.73 162.797 58.8203 185.019C55.1228 190.918 50.5009 196.967 44.527 201.413C35.9938 207.751 26.6997 211.38 19.028 216.587C18.3992 217.002 17.8207 217.423 17.2296 217.844C8.36016 224.267 1.76421 233.345 -1.60386 243.765C-5.21334 254.895 -5.06242 268.144 1.21958 279.532" stroke="#A5A5A5" stroke-miterlimit="10"/>
<path d="M272.049 -55.5518C269.996 -45.8701 266.701 -36.4943 262.246 -27.6569C260.33 -23.6833 258.052 -19.8943 255.442 -16.338C248.707 -7.38975 239.57 -1.12662 230.188 3.67764C227.956 4.82839 225.68 5.8974 223.378 6.89724C216.742 9.75886 209.87 12.0416 202.841 13.72C193.477 15.9712 183.837 17.1786 173.776 18.5369C163.715 19.8951 153.364 22.3601 144.133 24.1523C130.406 26.8185 116.427 25.5483 103.102 28.5541C93.9777 30.6104 84.8471 34.4462 77.7413 40.5459C74.417 43.3596 71.5916 46.7144 69.3842 50.4688C60.5806 65.6487 63.7247 84.9852 66.391 102.63C66.6488 104.372 66.9003 106.126 67.133 107.887C70.7991 135.474 69.2333 164.167 53.9276 186.717C50.1546 192.32 45.4572 197.929 39.7601 202.287C31.6482 208.506 22.9074 212.65 15.7954 218.354C15.2378 218.798 14.6845 219.257 14.1353 219.731C5.96016 226.786 0.23543 236.253 -2.21428 246.77C-4.86793 257.989 -3.80521 270.779 2.72203 281.545" stroke="#A5A5A5" stroke-miterlimit="10"/>
<path d="M268.201 -58.8403C266.242 -49.5223 263.029 -40.513 258.649 -32.0585C256.74 -28.2765 254.528 -24.6552 252.034 -21.2301C245.62 -12.5837 237.194 -5.99356 228.333 -0.749126C226.221 0.508531 224.064 1.68444 221.882 2.79118C215.576 5.9758 209.008 8.60991 202.25 10.6641C193.257 13.4121 183.932 15.1728 174.267 16.7638C164.602 18.3547 154.672 20.4235 145.536 21.7944C131.142 23.945 116.565 22.6307 102.511 25.4793C92.8962 27.4287 83.2374 31.2457 75.6852 37.4271C72.16 40.2954 69.1507 43.7449 66.7873 47.6267C57.3548 63.2468 60.499 83.2813 63.0772 101.542C63.335 103.341 63.574 105.158 63.8003 106.982C67.3218 135.543 65.8063 165.614 49.0857 188.415C45.0919 193.94 40.3708 198.9 35.0503 203.161C27.3094 209.261 19.1158 213.933 12.5445 220.14C12.0289 220.63 11.5195 221.127 11.0164 221.636C3.51203 229.33 -1.35625 239.207 -2.88697 249.845C-4.5848 261.164 -2.61028 273.483 4.16849 283.626" stroke="#A5A5A5" stroke-miterlimit="10"/>
<path d="M264.353 -62.1294C262.488 -53.1739 259.354 -44.5304 255.046 -36.4606C253.155 -32.8579 251.01 -29.3947 248.626 -26.0975C242.532 -17.7404 234.792 -10.8358 226.472 -5.1512C224.485 -3.79293 222.448 -2.50383 220.379 -1.28391C214.41 2.22255 208.148 5.20593 201.665 7.63288C192.914 10.8379 183.912 13.3094 174.751 15.0216C165.526 16.8326 156.012 18.5053 146.938 19.4234C131.896 20.9766 116.704 19.7253 101.926 22.4041C91.8147 24.234 81.634 28.0258 73.629 34.3518C69.9146 37.2646 66.7302 40.7958 64.2154 44.7904C54.1541 60.8444 57.2983 81.5706 59.8136 100.448C60.0588 102.335 60.2978 104.221 60.5116 106.107C63.8884 135.662 62.4861 167.179 44.2627 190.15C40.1413 195.275 35.4776 199.939 30.353 204.06C23.0082 210.04 15.368 215.234 9.35008 221.913C8.87846 222.441 8.41313 222.975 7.95408 223.522C1.13083 231.839 -2.88819 242.1 -3.52834 252.838C-4.27035 264.233 -1.38403 276.105 5.64628 285.626" stroke="#A5A5A5" stroke-miterlimit="10"/>
<path d="M260.498 -65.4177C255.555 -40.9311 239.526 -19.4063 218.907 -5.35828C198.288 8.68976 173.279 15.6446 148.34 17.1035C132.669 18.0153 116.835 16.8583 101.341 19.361C85.8466 21.8637 70.1196 28.7934 61.5927 41.9485C50.9026 58.4427 54.0467 79.8669 56.4614 99.3606C60.4545 131.431 60.3979 167.274 39.351 191.798C28.8684 204.01 14.0406 212.179 4.80315 225.353C-7.9998 243.62 -7.00625 270.377 7.11724 287.645" stroke="#A5A5A5" stroke-miterlimit="10"/>
</g>
<g style="mix-blend-mode:multiply">
<path d="M-93.1367 -1.93704C-81.0757 -13.4861 -68.3337 -24.3025 -54.9794 -34.328C-49.0432 -38.7801 -42.8304 -43.1316 -35.6806 -45.1502C-17.4069 -50.2563 1.20648 -38.6292 15.1665 -25.82C28.0708 -14.0028 39.5245 -0.693521 49.2867 13.8277C58.9392 28.2027 67.0826 43.936 79.8227 55.6637C92.5627 67.3913 111.711 74.3776 127.431 67.1147C136.782 62.7946 143.542 54.0161 147.252 44.4076C150.962 34.7991 151.924 24.3543 152.144 14.0541C152.396 2.26354 151.874 -10.181 157.508 -20.5315C163.344 -31.2216 175.782 -38.0067 187.95 -37.0697C205.274 -35.7303 218.039 -21.1603 230.654 -9.21888C246.676 5.94219 266.201 18.632 288.078 21.3611C309.955 24.0902 334.303 14.8464 344.597 -4.67245" stroke="#A5A5A5" stroke-miterlimit="10"/>
<path d="M-91.7344 2.91749C-79.8886 -8.43908 -67.3328 -19.0311 -54.143 -28.7943C-48.2886 -33.1333 -42.1512 -37.3779 -35.1272 -39.3398C-21.01 -43.2763 -6.68527 -37.3338 5.55174 -28.6497C8.84514 -26.3029 12.0126 -23.7841 15.0408 -21.1038C27.8719 -9.82764 39.3134 2.93747 49.1233 16.9215C58.8073 30.7683 66.982 46.0363 79.6341 57.3992C86.7273 63.7755 95.5749 68.8691 104.787 71.1831C112.811 73.1954 121.168 73.0696 128.752 69.6865C130.101 69.0838 131.408 68.3905 132.663 67.6114C140.379 62.8197 145.963 54.9216 149.359 46.401C150.432 43.6698 151.326 40.8719 152.037 38.025C153.924 30.6174 154.716 22.9331 155.213 15.3431C156.018 3.32623 156.427 -9.05541 162.514 -19.3053C168.601 -29.5552 180.505 -36.0825 192.396 -35.221C209.324 -34.001 221.913 -20.1668 234.332 -8.93593C235.307 -8.05557 236.301 -7.17521 237.307 -6.31372C252.48 6.74706 270.471 17.173 290.285 19.1727C311.433 21.3107 334.744 11.9538 344.49 -7.17521" stroke="#A5A5A5" stroke-miterlimit="10"/>
<path d="M-90.2817 7.7784C-78.6544 -3.39149 -66.2843 -13.7615 -53.2563 -23.2606C-47.4773 -27.48 -41.428 -31.6052 -34.5235 -33.5294C-20.6578 -37.403 -6.57203 -31.8315 5.52035 -23.6127C8.7854 -21.3866 11.9337 -18.9939 14.9528 -16.4441C27.6925 -5.68187 39.1026 6.56203 48.941 20.028C58.669 33.334 66.8941 48.1303 79.4455 59.16C86.8531 65.6244 95.9082 70.9065 105.378 73.4218C113.61 75.6039 122.244 75.6102 130.085 72.2522C131.484 71.6544 132.84 70.9588 134.141 70.1708C142.152 65.31 147.894 57.1666 151.459 48.3945C152.59 45.5912 153.546 42.7203 154.32 39.7984C156.37 32.2084 157.464 24.3355 158.288 16.6323C159.646 4.3953 160.967 -7.89201 167.519 -18.0728C173.745 -27.719 185.227 -34.1393 196.842 -33.3659C213.373 -32.2591 225.768 -19.1669 238.005 -8.64661C238.973 -7.80817 239.95 -6.99069 240.935 -6.19418C255.851 6.01768 273.345 15.5444 292.499 16.9907C312.892 18.5314 335.19 9.06121 344.39 -9.68418" stroke="#A5A5A5" stroke-miterlimit="10"/>
<path d="M-88.8481 12.6265C-77.4319 1.64599 -65.2434 -8.50206 -52.3761 -17.7397C-46.6726 -21.8396 -40.705 -25.8327 -33.9262 -27.7318C-20.3121 -31.5425 -6.46527 -26.3358 5.48877 -18.5572C8.7158 -16.4549 11.8326 -14.1881 14.8269 -11.7658C27.4933 -1.54063 38.8929 10.1609 48.7836 23.0902C58.5556 35.8931 66.8185 50.2179 79.2567 60.8828C86.941 67.4666 96.2351 72.9437 105.963 75.6603C114.402 78.0121 123.319 78.1756 131.412 74.8239C132.861 74.2267 134.265 73.5247 135.612 72.7237C143.919 67.8062 149.811 59.4176 153.565 50.3876C154.747 47.5135 155.763 44.5741 156.609 41.584C158.829 33.8117 160.181 25.7627 161.357 17.9338C163.275 5.4704 165.482 -6.75404 172.525 -16.8279C178.895 -25.9522 189.981 -32.2027 201.3 -31.5047C217.436 -30.5175 229.673 -18.161 241.696 -8.35756C242.643 -7.58619 243.603 -6.82321 244.576 -6.06862C259.234 5.28174 276.25 13.9219 294.675 14.8085C314.313 15.7517 335.605 6.1684 344.251 -12.1934" stroke="#A5A5A5" stroke-miterlimit="10"/>
<path d="M-87.4209 17.4936C-76.2272 6.70192 -64.2303 -3.22438 -51.5336 -12.1997C-45.9056 -16.1864 -40.0261 -20.0474 -33.3668 -21.9151C-20.0041 -25.688 -6.39629 -20.8335 5.41941 -13.4951C8.65159 -11.4954 11.7517 -9.31334 14.6821 -7.06842C27.2654 2.62281 38.6405 13.7889 48.5634 26.1903C58.392 38.4651 66.7302 52.293 79.0741 62.6184C87.054 69.3154 96.5619 74.9812 106.548 77.8989C115.188 80.4143 124.388 80.7287 132.738 77.3959C134.237 76.8 135.689 76.0938 137.084 75.283C145.692 70.2964 151.729 61.6626 155.666 52.3874C156.905 49.4334 157.984 46.4149 158.898 43.3448C161.294 35.3901 162.91 27.165 164.431 19.2103C166.896 6.52057 169.978 -5.60954 177.53 -15.6079C184.019 -24.1977 194.678 -30.2596 205.733 -29.6497C221.454 -28.7819 233.533 -17.1611 245.349 -8.06826C246.28 -7.35139 247.236 -6.64082 248.179 -5.9491C262.579 4.55234 279.117 12.2869 296.838 12.6202C315.702 12.9724 336.001 3.27582 344.1 -14.6961" stroke="#A5A5A5" stroke-miterlimit="10"/>
<path d="M-85.9932 22.3484C-75.0141 11.7463 -63.2024 2.04173 -50.6718 -6.67204C-45.1256 -10.5393 -39.3529 -14.2683 -32.788 -16.1045C-19.6769 -19.7894 -6.31426 -15.3247 5.36938 -8.43276C8.57012 -6.54627 11.6577 -4.49629 14.5503 -2.37714C27.0547 6.78361 38.4131 17.4136 48.3813 29.2844C58.2539 41.0309 66.6865 54.3621 78.8858 64.3605C87.1737 71.1581 96.9143 77.0188 107.133 80.1378C115.98 82.8292 125.463 83.2819 134.066 79.9617C135.615 79.3682 137.118 78.6599 138.562 77.8426C147.46 72.8119 153.654 63.9077 157.766 54.381C159.061 51.3526 160.202 48.2612 161.187 45.1183C163.759 36.9813 165.626 28.5801 167.475 20.4997C170.487 7.59609 174.449 -4.44599 182.536 -14.3752C189.113 -22.4494 199.401 -28.3226 210.204 -27.7944C225.548 -27.0398 237.432 -16.1548 249.066 -7.77249C249.984 -7.11432 250.91 -6.46452 251.845 -5.82312C265.994 3.81683 282.029 10.6648 299.064 10.4384C317.199 10.1994 336.46 0.377129 344.013 -17.2301" stroke="#A5A5A5" stroke-miterlimit="10"/>
<path d="M-84.5659 27.2029C-73.8011 16.7922 -62.1745 7.31122 -49.8105 -1.13843C-44.3397 -4.9114 -38.6174 -8.48944 -32.2033 -10.3005C-19.3438 -13.9288 -6.22012 -9.83513 5.32518 -3.38335C8.46932 -1.62892 11.538 0.301589 14.4306 2.27611C26.8563 10.9132 38.1943 21.0181 48.1987 32.3719C58.1154 43.5965 66.6297 56.4183 78.6781 66.0771C87.293 72.9942 97.2222 79.0561 107.717 82.3826C116.773 85.2312 126.532 85.8412 135.386 82.5335C136.982 81.9383 138.531 81.2236 140.02 80.3955C149.22 75.2831 155.552 66.1525 159.86 56.3743C161.231 53.2301 162.375 50.086 163.457 46.8852C166.205 38.5721 168.343 29.9949 170.563 21.7887C174.109 8.64615 178.888 -3.28903 187.541 -13.1428C194.181 -20.6887 204.123 -26.3482 214.625 -25.9332C229.572 -25.3043 241.281 -15.1487 252.719 -7.48332C253.618 -6.85449 254.53 -6.28225 255.448 -5.70373C269.339 3.0873 284.934 9.03602 301.227 8.22483C318.608 7.39478 336.856 -2.52814 343.861 -19.7392" stroke="#A5A5A5" stroke-miterlimit="10"/>
<path d="M-83.1387 32.0637C-72.5899 21.8399 -61.1479 12.5802 -48.9492 4.39521C-43.5539 0.760583 -37.9196 -2.71684 -31.625 -4.49014C-19.0484 -8.0556 -6.13857 -4.33293 5.26209 1.67867C8.40624 3.31363 11.4183 5.11837 14.2984 6.99228C26.6465 15.0842 37.9683 24.6429 48.0162 35.4594C57.9768 46.1495 66.5792 58.4745 78.5081 67.8378C87.4186 74.8303 97.5427 81.0872 108.302 84.6212C117.565 87.6396 127.607 88.3942 136.725 85.1054C138.371 84.513 139.969 83.794 141.504 82.9548C150.999 77.7795 157.476 68.3974 161.973 58.3676C163.4 55.1731 164.639 51.9095 165.746 48.6585C168.682 40.163 171.116 31.4097 173.631 23.0777C177.731 9.70882 183.321 -2.13203 192.534 -11.904C199.224 -18.9972 208.845 -24.4429 219.07 -24.0782C233.621 -23.5562 245.154 -14.1489 256.397 -7.1941C257.278 -6.64702 258.177 -6.10623 259.076 -5.5843C272.709 2.35152 287.814 7.41359 303.415 6.0679C320.041 4.64046 337.284 -5.39565 343.736 -22.2294" stroke="#A5A5A5" stroke-miterlimit="10"/>
<path d="M-81.6729 36.9181C-71.3514 26.8834 -60.1063 17.8448 -48.0871 9.92245C-42.7672 6.4073 -37.2147 3.06192 -31.0458 1.31378C-18.6894 -2.1888 -6.06247 1.1943 5.21243 6.73429C8.30627 8.25605 11.3058 9.92874 14.167 11.6769C26.4468 19.2355 37.7627 28.2583 47.8659 38.5467C57.8706 48.7338 66.5673 60.5558 78.3578 69.5794C87.545 76.6663 97.8767 83.1244 108.862 86.8597C118.326 90.0478 128.652 90.9533 138.027 87.6709C139.723 87.0835 141.37 86.3623 142.951 85.514C152.748 80.2695 159.37 70.6485 164.048 60.3608C165.539 57.0909 166.834 53.7518 168.023 50.4316C171.123 41.7538 173.795 32.8244 176.688 24.3666C181.373 10.7714 187.743 -0.987732 197.527 -10.6403C204.224 -17.2555 213.55 -22.4685 223.492 -22.1856C237.672 -21.8145 249.028 -13.1556 260.07 -6.86728C260.945 -6.3768 261.819 -5.89889 262.705 -5.42726C276.08 1.65335 290.707 5.8162 305.604 3.91084C321.482 1.8923 337.706 -8.25699 343.61 -24.6946" stroke="#A5A5A5" stroke-miterlimit="10"/>
<path d="M-80.2769 41.7794C-70.1608 31.9298 -59.0891 23.1121 -47.2256 15.4566C-41.9812 12.061 -36.5355 8.84135 -30.4673 7.12465C-18.3624 3.68495 -5.97444 6.69704 5.16212 11.7906C8.22452 13.1928 11.1926 14.7398 14.0412 16.3621C26.2305 23.3913 37.5174 31.8802 47.6521 41.6411C57.7134 51.2999 66.517 62.5622 78.1377 71.3218C87.677 78.4904 98.2036 85.156 109.472 89.0988C119.144 92.4567 129.752 93.5006 139.379 90.2433C141.124 89.6616 142.819 88.9403 144.448 88.0864C154.509 82.7728 161.313 72.9064 166.18 62.3673C167.721 59.0219 169.079 55.6074 170.337 52.218C173.613 43.3578 176.549 34.2523 179.769 25.6688C184.976 11.8346 192.113 0.157225 202.533 -9.42613C209.23 -15.5824 218.253 -20.5501 227.944 -20.3489C241.709 -20.0596 252.883 -12.1301 263.73 -6.5964C264.585 -6.16251 265.447 -5.7349 266.315 -5.33874C279.432 0.886666 293.581 4.15658 307.773 1.69785C322.865 -0.918073 338.108 -11.1806 343.459 -27.2283" stroke="#A5A5A5" stroke-miterlimit="10"/>
<path d="M-78.8496 46.6338C-68.944 36.9759 -58.0565 28.3792 -46.3643 20.9839C-41.2016 17.7077 -35.8126 14.6202 -29.889 12.9286C-18.0356 9.5518 -5.89289 12.1929 5.11162 16.8525C8.13628 18.1102 11.0855 19.5502 13.9152 21.0468C26.0225 27.5481 37.2925 35.5006 47.4758 44.7285C57.5371 53.8654 66.4602 64.5995 77.9489 73.0572C87.8089 80.3202 98.5367 87.1996 110.057 91.3373C119.936 94.865 130.808 96.0661 140.706 92.815C142.501 92.2262 144.247 91.4944 145.925 90.6267C156.314 85.2565 163.231 75.1387 168.28 64.348C169.877 60.9271 171.305 57.4308 172.619 53.9786C176.071 44.936 179.285 35.6608 182.856 26.9389C188.623 12.8972 196.496 1.25755 207.557 -8.21261C214.235 -13.9224 223.02 -18.6323 232.408 -18.5065C245.777 -18.3368 256.782 -11.143 267.428 -6.32612C268.27 -5.94883 269.113 -5.57782 269.943 -5.21938C282.809 0.150815 296.473 2.5215 309.962 -0.49688C324.33 -3.69762 338.529 -14.0796 343.334 -29.75" stroke="#A5A5A5" stroke-miterlimit="10"/>
<path d="M-77.4224 51.4882C-67.7313 42.0184 -57.027 33.6443 -45.503 26.5174C-40.4158 23.3733 -35.1147 20.3989 -29.3107 18.7388C-17.7088 15.4186 -5.80504 17.6949 5.05484 21.8829C8.04806 23.04 10.9721 24.3354 13.783 25.7125C25.8179 31.6872 37.0724 39.1192 47.2933 47.841C57.4237 56.4308 66.4348 66.6304 77.76 74.7989C87.9471 82.1373 98.8635 89.2619 110.641 93.5757C120.703 97.2732 131.896 98.6063 142.033 95.3804C143.877 94.7943 145.67 94.0604 147.397 93.1858C158.087 87.7465 165.148 77.3834 170.38 66.3411C172.04 62.8448 173.524 59.2794 174.908 55.7517C178.536 46.5205 182.014 37.0754 185.931 28.2341C192.251 13.966 200.841 2.3578 212.562 -6.9803C219.203 -12.2625 227.748 -16.6894 236.847 -16.6517C249.826 -16.6014 260.655 -10.137 271.106 -6.03706C271.93 -5.71007 272.76 -5.40823 273.59 -5.10011C286.192 -0.578829 299.397 0.905208 312.169 -2.67283C325.789 -6.4458 338.976 -16.9661 343.226 -32.2278" stroke="#A5A5A5" stroke-miterlimit="10"/>
<path d="M-76.0142 56.3491C-66.5348 47.0601 -56.0066 38.9059 -44.6419 32.0512C-39.6113 29.0076 -34.4108 26.1716 -28.7325 24.543C-17.3759 21.2919 -5.71737 23.1973 5.00416 26.9639C7.96594 28.0078 10.8586 29.1711 13.6569 30.4225C25.6086 35.8491 36.8448 42.7302 47.1105 50.9097C57.2976 58.9965 66.403 68.6553 77.5773 76.5408C88.1102 83.9547 99.1902 91.2743 111.232 95.8144C121.514 99.6817 132.965 101.178 143.359 97.9524C145.253 97.3692 147.095 96.6309 148.868 95.7452C159.853 90.243 167.06 79.6346 172.486 68.3409C174.197 64.7628 175.744 61.1156 177.196 57.5187C181.001 48.0863 184.742 38.4967 189 29.5233C195.917 15.0602 205.16 3.42687 217.567 -5.74145C224.157 -10.6086 232.47 -14.7463 241.293 -14.7903C253.87 -14.8532 264.528 -9.13084 274.784 -5.73516C275.589 -5.47105 276.407 -5.21323 277.218 -4.97428C289.568 -1.30821 302.283 -0.723396 314.357 -4.86109C327.222 -9.26289 339.397 -19.8587 343.1 -34.7556" stroke="#A5A5A5" stroke-miterlimit="10"/>
<path d="M-74.561 61.2037C-65.3 52.1056 -54.9632 44.1719 -43.7799 37.5786C-38.8436 34.6545 -33.7186 31.9506 -28.1535 30.3533C-17.0483 27.1589 -5.62881 28.6995 4.95438 32.0197C7.87843 32.9441 10.7648 34.0068 13.5316 35.1073C25.4022 40.0014 36.6202 46.3486 46.9287 54.0036C57.1535 61.5621 66.3847 70.6801 77.4206 78.2764C88.2302 85.7657 99.5177 93.3117 111.818 98.0531C122.306 102.09 134.04 103.713 144.693 100.524C146.638 99.9402 148.531 99.1956 150.352 98.2983C161.633 92.7332 168.991 81.8796 174.6 70.3343C176.373 66.6808 177.977 62.9581 179.498 59.292C183.479 49.7024 187.51 39.9178 192.075 30.8124C199.527 16.1103 209.475 4.45186 222.573 -4.50266C229.107 -8.97364 237.193 -12.8032 245.739 -12.929C257.926 -13.1113 268.377 -8.12472 278.438 -5.4459C279.237 -5.2321 280.029 -5.03717 280.828 -4.84852C292.92 -2.04394 305.157 -2.3332 316.527 -7.04313C328.638 -12.0297 339.793 -22.7639 342.937 -37.2646" stroke="#A5A5A5" stroke-miterlimit="10"/>
<path d="M-73.1338 66.0772C-64.0947 57.1698 -53.9507 49.4582 -42.95 43.1312C-38.0954 40.3203 -33.0397 37.7484 -27.6066 36.2141C-16.753 33.0699 -5.59757 34.2458 4.87243 37.1322C7.76504 37.9308 10.6074 38.8426 13.3679 39.8487C25.1527 44.2056 36.3483 50.0146 46.6958 57.1415C57.0149 64.1278 66.3593 72.6924 77.2003 80.0183C88.3746 87.5642 99.8382 95.3491 112.415 100.292C123.105 104.499 135.122 106.297 146.032 103.096C148.023 102.511 149.962 101.762 151.83 100.858C163.406 95.1982 170.908 84.1245 176.706 72.3277C178.53 68.5988 180.196 64.7818 181.781 61.0654C185.925 51.2934 190.226 41.3327 195.143 32.1204C203.186 17.1731 213.744 5.45804 227.578 -3.2701C234.049 -7.35749 241.916 -10.8664 250.216 -11.0739C262.007 -11.3694 272.307 -7.11853 282.167 -5.15659C282.947 -4.99938 283.727 -4.85475 284.506 -4.72898C296.341 -2.77333 308.1 -3.98068 318.765 -9.22511C330.122 -14.8091 340.271 -25.6438 342.881 -39.7673" stroke="#A5A5A5" stroke-miterlimit="10"/>
<path d="M-71.7061 70.919C-62.8689 62.1941 -52.896 54.7001 -42.0568 48.6396C-37.2997 45.8422 -32.2356 43.6034 -26.9649 41.9677C-16.3628 38.899 -5.42121 39.6977 4.87901 42.1375C7.74018 42.8167 10.5385 43.6027 13.3053 44.483C25.0146 48.3136 36.1983 53.5949 46.5955 60.2038C56.8769 66.7059 66.347 74.7046 77.012 81.7537C88.5258 89.3437 100.178 97.3864 112.987 102.549C123.885 106.951 136.185 108.837 147.346 105.693C149.388 105.115 151.376 104.364 153.289 103.448C165.161 97.7511 172.783 86.4008 178.794 74.3524C180.681 70.5794 182.404 66.6744 184.058 62.87C188.39 52.8716 192.962 42.7475 198.212 33.3779C206.783 18.2294 218.008 6.39488 232.584 -2.0503C238.992 -5.76039 246.645 -8.93597 254.631 -9.22524C266.025 -9.64026 276.149 -6.1314 285.815 -4.87374C286.575 -4.77942 287.343 -4.69138 288.11 -4.61592C299.687 -3.52176 310.961 -5.61576 320.922 -11.4261C331.53 -17.5949 340.667 -28.5491 342.724 -42.2891" stroke="#A5A5A5" stroke-miterlimit="10"/>
<path d="M-70.2725 75.7737C-61.6513 67.2337 -51.8612 59.961 -41.1954 54.1734C-36.5173 51.5096 -31.5621 49.3651 -26.4179 47.7782C-16.0674 44.7724 -5.36475 45.1937 4.79713 47.1934C7.62686 47.7552 10.4105 48.4133 13.148 49.1679C24.7745 52.4544 35.9404 57.1933 46.3816 63.2726C56.7384 69.259 66.328 76.7106 76.8295 83.4957C88.6829 91.1548 100.505 99.4051 113.572 104.775C124.677 109.309 137.254 111.409 148.673 108.234C150.763 107.656 152.8 106.898 154.76 105.97C166.934 100.216 174.732 88.6206 180.894 76.3145C182.837 72.4346 184.623 68.4855 186.346 64.612C190.855 54.4752 195.691 44.1624 201.287 34.6797C210.405 19.3048 222.259 7.31307 237.59 -0.805107C243.928 -4.16305 251.367 -6.98649 259.077 -7.3575C270.075 -7.88572 280.023 -5.11258 289.493 -4.57179C290.241 -4.52777 290.99 -4.50262 291.738 -4.48375C303.057 -4.23851 313.854 -7.23174 323.11 -13.5955C332.964 -20.3617 341.089 -31.4291 342.604 -44.7854" stroke="#A5A5A5" stroke-miterlimit="10"/>
<path d="M-68.8452 80.6348C-60.4351 72.2782 -50.8257 65.2226 -40.3341 59.7011C-35.7325 57.1774 -30.8867 55.1274 -25.871 53.5826C-15.7721 50.6396 -5.30834 50.6899 4.71519 52.2494C7.50719 52.6896 10.2636 53.2262 12.9843 53.8592C24.5411 56.6012 35.7022 60.802 46.199 66.3604C56.5999 71.8249 66.3216 78.7168 76.6406 85.2252C88.8399 92.9284 100.832 101.443 114.157 107.002C125.475 111.705 138.329 113.956 150 110.775C152.139 110.196 154.224 109.435 156.232 108.498C168.701 102.675 176.65 90.8344 183.001 78.2767C185 74.3213 186.843 70.2968 188.66 66.3289C193.339 56.0161 198.445 45.5335 204.381 35.9187C214.059 20.3238 226.516 8.11822 242.62 0.377341C248.908 -2.63475 256.115 -5.09347 263.547 -5.54623C274.156 -6.17506 283.921 -4.16281 293.197 -4.33259C293.926 -4.33259 294.656 -4.37032 295.391 -4.41434C306.327 -4.95095 316.809 -8.95002 325.324 -15.8339C334.423 -23.1912 341.535 -34.3717 342.497 -47.3445" stroke="#A5A5A5" stroke-miterlimit="10"/>
<path d="M-67.418 85.4889C-59.2177 77.3196 -49.7883 70.4852 -39.4728 65.2343C-34.932 62.8399 -30.1733 60.8837 -25.2613 59.3925C-15.4075 56.5062 -5.18906 56.1666 4.69613 57.3111C7.45669 57.6192 10.1921 58.0405 12.8709 58.5687C24.3398 60.771 35.4806 64.4289 46.0228 69.4538C56.4613 74.3901 66.3025 80.7161 76.4518 86.9729C89.0284 94.7138 101.165 103.492 114.741 109.252C126.255 114.126 139.398 116.522 151.326 113.371C153.516 112.798 155.652 112.034 157.709 111.089C170.474 105.196 178.561 93.1103 185.101 80.2759C187.157 76.2451 189.062 72.1389 190.924 68.1269C195.778 57.6318 201.155 46.9731 207.431 37.2326C217.655 21.4112 230.697 8.93527 247.6 1.63456C254.049 -1.23187 260.926 -3.01444 267.955 -3.64131C278.168 -4.40848 287.757 -3.10681 296.831 -3.99346C297.548 -4.06054 298.265 -4.14228 298.982 -4.2387C309.693 -5.68163 319.67 -10.4883 327.474 -17.966C335.819 -25.9207 341.937 -37.2145 342.327 -49.7974" stroke="#A5A5A5" stroke-miterlimit="10"/>
<path d="M-65.9902 90.3437C-57.9991 82.3612 -48.7492 75.7478 -38.611 70.7682C-34.1396 68.5101 -29.4789 66.648 -24.6825 65.2031C-15.0802 62.3797 -5.10073 61.6691 4.63983 62.3671C7.36894 62.5557 10.0792 62.8513 12.7643 63.2286C24.1419 64.9091 35.2577 68.0389 45.8407 72.5415C56.3233 76.9622 66.2902 82.7097 76.2634 88.715C89.1733 96.4811 101.492 105.53 115.326 111.491C127.048 116.522 140.479 119.081 152.66 115.943C154.892 115.368 157.069 114.6 159.168 113.648C172.229 107.693 180.467 95.3555 187.189 82.2947C189.308 78.1884 191.27 74.0067 193.194 69.9256C198.225 59.2355 203.884 48.4134 210.487 38.547C221.271 22.4993 234.93 9.69009 252.618 2.89873C258.974 0.433424 265.64 -1.14304 272.427 -1.78604C282.243 -2.6664 291.656 -2.10045 300.535 -3.67253C301.24 -3.79829 301.938 -3.94292 302.636 -4.09384C313.118 -6.44443 322.585 -12.0585 329.675 -20.129C337.271 -28.6748 342.352 -40.0817 342.214 -52.281" stroke="#A5A5A5" stroke-miterlimit="10"/>
<path d="M-64.5562 95.2045C-56.7779 87.4027 -47.7085 81.0054 -37.7492 76.2956C-33.3472 74.1758 -28.7844 72.4075 -24.1036 71.0072C-14.785 68.3213 -5.1031 67.1119 4.58988 67.4229C7.28755 67.492 9.96637 67.6618 12.6326 67.9133C23.9263 69.0602 35.0259 71.6533 45.6587 75.6291C56.1853 79.5278 66.278 84.7031 76.0814 90.4569C89.3686 98.2418 101.819 107.58 115.911 113.73C127.859 118.943 141.543 121.634 153.987 118.515C156.273 117.943 158.504 117.169 160.653 116.201C174.009 110.183 182.398 97.6066 189.308 84.288C191.478 80.1063 193.503 75.8492 195.496 71.7115C200.709 60.8516 206.62 49.8408 213.575 39.8487C224.894 23.5809 239.162 10.3755 257.593 4.14381C263.846 2.077 270.307 0.704186 276.86 0.0501345C286.293 -0.949703 295.518 -1.12578 304.202 -3.43358C304.887 -3.61594 305.573 -3.81088 306.252 -4.01839C316.508 -7.269 325.473 -13.6808 331.864 -22.3362C338.706 -31.4731 342.78 -42.9995 342.089 -54.8152" stroke="#A5A5A5" stroke-miterlimit="10"/>
<path d="M-63.1289 100.034C-45.616 82.2506 -20.4314 72.9943 4.53937 72.4849C29.5102 71.9756 54.2169 79.7919 75.8926 92.1924C89.5193 99.9899 102.146 109.605 116.496 115.968C130.846 122.332 147.787 125.149 162.124 118.76C180.071 110.768 189.164 91.1234 197.785 73.4848C211.952 44.4329 231.597 14.4063 262.611 5.36373C278.061 0.861319 294.945 2.11898 309.88 -3.87376C330.587 -12.1869 344.365 -35.1391 341.95 -57.3242" stroke="#A5A5A5" stroke-miterlimit="10"/>
</g>
</g>
</g>
</svg>
