<svg width="96" height="11" viewBox="0 0 96 11" fill="none" xmlns="http://www.w3.org/2000/svg">
<path d="M94.5 10.401H1.5C1.10218 10.401 0.720644 10.2429 0.43934 9.96163C0.158035 9.68033 0 9.2988 0 8.90097V2.38647C0 1.98865 0.158035 1.60712 0.43934 1.32581C0.720644 1.04451 1.10218 0.886475 1.5 0.886475H94.5C94.8978 0.886475 95.2794 1.04451 95.5607 1.32581C95.842 1.60712 96 1.98865 96 2.38647V8.90097C96 9.2988 95.842 9.68033 95.5607 9.96163C95.2794 10.2429 94.8978 10.401 94.5 10.401ZM3 7.40097H93V3.88647H3V7.40097Z" fill="#575757"/>
</svg>
