<svg width="8" height="3" viewBox="0 0 8 3" fill="none" xmlns="http://www.w3.org/2000/svg">
<path d="M7.31107 1.42418C7.31265 1.2588 7.28124 1.09476 7.21868 0.941655C7.15612 0.788552 7.06366 0.649458 6.94671 0.532508C6.82976 0.415559 6.69067 0.3231 6.53756 0.260539C6.38446 0.197978 6.22042 0.166573 6.05504 0.168156H1.76558C1.59119 0.151157 1.41517 0.170835 1.24883 0.225924C1.0825 0.281013 0.929532 0.370294 0.799762 0.48803C0.669993 0.605765 0.566291 0.749348 0.495325 0.909553C0.424359 1.06976 0.387695 1.24304 0.387695 1.41826C0.387695 1.59348 0.424359 1.76676 0.495325 1.92697C0.566291 2.08717 0.669993 2.23076 0.799762 2.34849C0.929532 2.46623 1.0825 2.55551 1.24883 2.6106C1.41517 2.66569 1.59119 2.68536 1.76558 2.66837H6.05504C6.21942 2.66993 6.38248 2.63891 6.5348 2.57709C6.68712 2.51526 6.82569 2.42386 6.94248 2.30817C7.05927 2.19248 7.15197 2.05479 7.21524 1.90307C7.2785 1.75134 7.31108 1.58857 7.31107 1.42418Z" fill="#4D4D4D"/>
</svg>
