<svg width="90" height="56" viewBox="0 0 90 56" fill="none" xmlns="http://www.w3.org/2000/svg">
<path d="M89.7927 35.2053C88.4924 26.5564 81.0917 20.3928 72.6906 19.9952C74.7908 12.2408 79.8913 9.15915 86.0923 7.36972C86.6923 7.17103 86.5923 6.57428 86.5923 6.57428L85.5922 0.410848C85.5922 0.410848 85.4923 -0.0862176 84.692 0.013129C63.2894 2.39912 48.7876 18.6033 51.4879 38.2871C53.9879 51.9067 64.6887 57.1756 74.5908 55.7838C84.492 54.1932 91.2928 45.0472 89.7927 35.2053L89.7927 35.2053ZM21.4843 19.9952C23.4846 12.2408 28.7854 9.15915 34.886 7.36972C35.486 7.17103 35.386 6.57428 35.386 6.57428L34.4858 0.410848C34.4858 0.410848 34.3859 -0.0862176 33.5856 0.013129C12.183 2.29946 -2.21876 18.5039 0.281544 38.1877C2.88178 51.9067 13.6832 57.1756 23.4844 55.7838C33.3856 54.1932 40.1865 45.0472 38.5863 35.2053C37.2863 26.457 29.9852 20.2934 21.4842 19.9951L21.4843 19.9952Z" fill="#E0E0E0"/>
</svg>
