<svg width="16" height="16" viewBox="0 0 16 16" fill="none" xmlns="http://www.w3.org/2000/svg">
<path d="M12.0008 14.7992C11.8294 14.7992 11.6589 14.7466 11.5121 14.6418L8.06086 12.1668L4.60965 14.6418C4.46666 14.7447 4.29482 14.7998 4.11868 14.7992C3.94253 14.7986 3.77108 14.7423 3.6288 14.6385C3.4864 14.5352 3.38018 14.3897 3.32526 14.2226C3.27034 14.0554 3.26953 13.8753 3.32292 13.7077L4.61007 9.55349L1.18984 7.14338C1.04809 7.03877 0.942819 6.89224 0.888917 6.72452C0.835016 6.5568 0.83521 6.37638 0.889473 6.20877C0.944164 6.04157 1.05002 5.89579 1.19207 5.79203C1.33413 5.68827 1.5052 5.63177 1.68111 5.63053L5.91716 5.62417L7.26583 1.57308C7.32148 1.4062 7.42823 1.26105 7.57096 1.1582C7.71368 1.05535 7.88515 1 8.06107 1C8.23699 1 8.40845 1.05535 8.55118 1.1582C8.6939 1.26105 8.80065 1.4062 8.85631 1.57308L10.1821 5.62417L14.4398 5.63053C14.6159 5.63152 14.7872 5.68799 14.9294 5.79191C15.0716 5.89583 15.1774 6.04191 15.2319 6.20941C15.2863 6.37691 15.2866 6.5573 15.2327 6.72496C15.1787 6.89262 15.0733 7.03903 14.9315 7.14338L11.5112 9.55349L12.7984 13.7077C12.8519 13.8752 12.8512 14.0554 12.7963 14.2225C12.7415 14.3896 12.6353 14.5352 12.4929 14.6385C12.3502 14.7431 12.1778 14.7995 12.0008 14.7992Z" fill="#FFAC33" stroke="#FFAC33"/>
</svg>
