<svg width="9" height="9" viewBox="0 0 9 9" fill="none" xmlns="http://www.w3.org/2000/svg">
<path d="M4.5778 8.93641H4.59077C5.70578 8.93641 6.74297 8.50846 7.53392 7.71776C8.35066 6.9011 8.75265 5.83785 8.75265 4.77461C8.75265 3.71136 8.35066 2.64811 7.53392 1.84443C5.91326 0.210791 3.26829 0.210791 1.64763 1.84443C0.0269633 3.46509 0.0269633 6.09709 1.64763 7.71776C2.4256 8.50846 3.47578 8.93641 4.5778 8.93641ZM2.5682 2.75194C3.1257 2.19452 3.85175 1.9223 4.59078 1.9223C5.32982 1.9223 6.05586 2.19452 6.61337 2.75194C7.71539 3.85412 7.71539 5.70807 6.61337 6.81025C6.06885 7.34171 5.3557 7.63988 4.59078 7.63988C4.59078 7.63988 4.59078 7.63988 4.57781 7.63988C3.81281 7.63988 3.09975 7.34171 2.5682 6.81025C1.42724 5.66913 1.42724 3.89305 2.5682 2.75194Z" fill="#4D4D4D"/>
</svg>
