<svg width="26" height="24" viewBox="0 0 26 24" fill="none" xmlns="http://www.w3.org/2000/svg">
<path d="M13.7744 23.6262C13.6717 23.6264 13.57 23.6063 13.4751 23.5672C13.3801 23.528 13.2938 23.4705 13.2211 23.398L0.87391 11.0508C0.73156 10.9034 0.65279 10.706 0.654571 10.5011C0.656351 10.2962 0.73854 10.1002 0.883431 9.95532C1.02832 9.81043 1.22433 9.72824 1.42922 9.72646C1.63412 9.72468 1.83152 9.80345 1.97891 9.9458L13.293 21.2599L14.7497 13.8828C14.7803 13.7294 14.8562 13.5887 14.9677 13.4789C15.0791 13.3691 15.221 13.2953 15.3749 13.267L22.8566 11.8073L12.9898 1.93887C12.8475 1.79148 12.7687 1.59408 12.7705 1.38918C12.7723 1.18428 12.8544 0.988282 12.9993 0.843392C13.1442 0.698501 13.3402 0.616312 13.5451 0.614531C13.75 0.612751 13.9474 0.69152 14.0948 0.833871L25.001 11.7416C25.1011 11.8419 25.1721 11.9675 25.2063 12.105C25.2405 12.2425 25.2367 12.3867 25.1953 12.5222C25.1539 12.6577 25.0764 12.7794 24.9711 12.8743C24.8659 12.9691 24.7368 13.0336 24.5978 13.0607L16.1891 14.7018L14.5496 22.9995C14.5223 23.1385 14.4577 23.2675 14.3627 23.3727C14.2678 23.4779 14.146 23.5552 14.0104 23.5965C13.9337 23.6182 13.8541 23.6282 13.7744 23.6262Z" fill="white"/>
</svg>
