<svg width="17" height="4" viewBox="0 0 17 4" fill="none" xmlns="http://www.w3.org/2000/svg">
<path d="M1.88765 3.35275H15.4788C15.7894 3.32248 16.0775 3.1777 16.2872 2.94662C16.4969 2.71553 16.613 2.41467 16.613 2.10265C16.613 1.79062 16.4969 1.48977 16.2872 1.25868C16.0775 1.02759 15.7894 0.882814 15.4788 0.852543H1.88765C1.71325 0.835545 1.53723 0.855222 1.3709 0.910311C1.20456 0.9654 1.0516 1.05468 0.921828 1.17242C0.792058 1.29015 0.688356 1.43374 0.617391 1.59394C0.546425 1.75415 0.509766 1.92743 0.509766 2.10265C0.509766 2.27787 0.546425 2.45115 0.617391 2.61135C0.688356 2.77156 0.792058 2.91514 0.921828 3.03288C1.0516 3.15061 1.20456 3.2399 1.3709 3.29498C1.53723 3.35007 1.71325 3.36975 1.88765 3.35275Z" fill="#4D4D4D"/>
</svg>
