<svg width="70" height="77" viewBox="0 0 70 77" fill="none" xmlns="http://www.w3.org/2000/svg">
<path d="M60.0711 41.6676V9.12157C60.0711 4.50424 51.931 0.887207 41.5402 0.887207C31.1494 0.887207 23.0201 4.50424 23.0201 9.12157V29.4683C21.5417 29.3135 20.0561 29.2367 18.5695 29.2381C8.17871 29.2381 0.0385742 32.8624 0.0385742 37.4743V67.6301C0.0385742 72.2493 8.17871 75.8663 18.5695 75.8663C27.5577 75.8663 34.8588 73.159 36.6674 69.4404C38.3964 71.4975 40.5542 73.1517 42.9898 74.2871C45.4253 75.4226 48.0796 76.0118 50.7668 76.0136C53.454 76.0154 56.1091 75.4297 58.5462 74.2976C60.9832 73.1654 63.1433 71.5141 64.8751 69.4594C66.607 67.4047 67.8686 64.9962 68.5718 62.4026C69.275 59.8091 69.4026 57.0931 68.9458 54.4451C68.489 51.797 67.4589 49.2807 65.9274 47.0726C64.396 44.8645 62.4003 43.0179 60.0802 41.6622L60.0711 41.6676ZM58.558 40.8721C54.9858 39.2028 50.9721 38.7244 47.1076 39.5074C43.2432 40.2903 39.7322 42.2932 37.0914 45.2212V37.4743C37.0914 37.3928 37.0914 37.3112 37.0914 37.2315C38.5722 37.3876 40.0602 37.4656 41.5493 37.4652C49.2708 37.4652 55.7474 35.4719 58.5671 32.5471L58.558 40.8721ZM41.5402 2.3931C51.7208 2.3931 58.558 5.86878 58.558 9.11432C58.558 12.3599 51.7208 15.8374 41.5402 15.8374C31.3596 15.8374 24.5242 12.3617 24.5242 9.11432C24.5242 5.86697 31.356 2.3931 41.5402 2.3931ZM41.5402 17.3505C49.2617 17.3505 55.7383 15.3571 58.558 12.4305V19.1681C58.558 22.4154 51.7208 25.8911 41.5402 25.8911C31.3596 25.8911 24.5242 22.4154 24.5242 19.1681V12.4378C27.3421 15.359 33.8205 17.3577 41.5402 17.3577V17.3505ZM24.5242 22.4843C27.3421 25.4055 33.8205 27.4042 41.5402 27.4042C49.2599 27.4042 55.7383 25.4109 58.558 22.4843V29.2218C58.558 32.4692 51.7208 35.9449 41.5402 35.9449C39.9078 35.9461 38.2769 35.8481 36.6565 35.6513C35.2666 32.8026 30.651 30.5483 24.5242 29.6513V22.4843ZM18.5605 30.744C20.2377 30.7408 21.9135 30.8413 23.5783 31.0448C23.6374 31.0608 23.6982 31.0699 23.7595 31.072H23.7704C31.0008 32.0089 35.571 34.8141 35.571 37.4689C35.571 40.7144 28.732 44.1901 18.5532 44.1901C8.37442 44.1901 1.54265 40.7198 1.54265 37.4743C1.54265 34.2288 8.38166 30.7513 18.5605 30.7513V30.744ZM18.5605 45.7014C26.282 45.7014 32.7586 43.7081 35.5783 40.7833V47.0442C35.5783 47.0696 35.5783 47.0931 35.5783 47.1167C34.8516 48.1677 34.2358 49.2912 33.7407 50.4692C30.8123 52.7706 24.9011 54.2511 18.5605 54.2511C16.0923 54.2625 13.6286 54.038 11.2032 53.5806V48.1551C11.1937 47.9608 11.1098 47.7776 10.969 47.6435C10.8281 47.5094 10.6411 47.4346 10.4466 47.4346C10.2521 47.4346 10.0651 47.5094 9.92424 47.6435C9.7834 47.7776 9.69954 47.9608 9.69003 48.1551V53.2453C8.84557 53.0333 8.0591 52.7959 7.33425 52.535V47.0515C7.33926 46.949 7.32341 46.8466 7.28766 46.7504C7.2519 46.6543 7.19698 46.5664 7.12623 46.4921C7.05549 46.4178 6.97038 46.3586 6.87609 46.3182C6.78179 46.2778 6.68027 46.2569 6.57768 46.2569C6.47509 46.2569 6.37357 46.2778 6.27927 46.3182C6.18498 46.3586 6.09987 46.4178 6.02913 46.4921C5.95838 46.5664 5.90346 46.6543 5.8677 46.7504C5.83195 46.8466 5.81609 46.949 5.82111 47.0515V51.9189C3.1029 50.6703 1.5499 49.0738 1.5499 47.5281V40.7905C4.35509 43.7099 10.8389 45.7032 18.5605 45.7032V45.7014ZM6.2524 53.7328C6.27415 53.7437 6.2977 53.7509 6.31945 53.76C9.56137 55.0122 13.8271 55.7642 18.5605 55.7642C24.2633 55.7642 29.5112 54.6516 32.9597 52.7814C32.2156 55.5446 32.1231 58.4428 32.6897 61.2478C29.4732 63.1686 24.2578 64.3048 18.555 64.3048C16.0868 64.3162 13.6232 64.0917 11.1977 63.6343V58.1164C11.2027 58.0139 11.1869 57.9115 11.1511 57.8153C11.1154 57.7192 11.0605 57.6313 10.9897 57.557C10.919 57.4827 10.8339 57.4235 10.7396 57.3831C10.6453 57.3427 10.5438 57.3219 10.4412 57.3219C10.3386 57.3219 10.237 57.3427 10.1428 57.3831C10.0485 57.4235 9.96335 57.4827 9.89261 57.557C9.82186 57.6313 9.76694 57.7192 9.73118 57.8153C9.69543 57.9115 9.67958 58.0139 9.68459 58.1164V63.2991C8.84014 63.0871 8.05367 62.8497 7.32881 62.5887V57.011C7.3193 56.8167 7.23544 56.6336 7.0946 56.4995C6.95376 56.3653 6.76673 56.2905 6.57224 56.2905C6.37776 56.2905 6.19073 56.3653 6.04989 56.4995C5.90905 56.6336 5.82518 56.8167 5.81567 57.011V61.9726C3.09747 60.7241 1.54446 59.1276 1.54446 57.5818V50.8443C2.62268 51.9624 4.2373 52.9518 6.2524 53.7328ZM18.5605 74.3586C16.0922 74.3708 13.6285 74.1463 11.2032 73.6881V68.2517C11.1937 68.0574 11.1098 67.8743 10.969 67.7402C10.8281 67.606 10.6411 67.5312 10.4466 67.5312C10.2521 67.5312 10.0651 67.606 9.92424 67.7402C9.7834 67.8743 9.69954 68.0574 9.69003 68.2517V73.3456C8.84557 73.1354 8.0591 72.8962 7.33425 72.6352V67.1553C7.33926 67.0529 7.32341 66.9504 7.28766 66.8543C7.2519 66.7581 7.19698 66.6702 7.12623 66.5959C7.05549 66.5216 6.97038 66.4625 6.87609 66.4221C6.78179 66.3817 6.68027 66.3608 6.57768 66.3608C6.47509 66.3608 6.37357 66.3817 6.27927 66.4221C6.18498 66.4625 6.09987 66.5216 6.02913 66.5959C5.95838 66.6702 5.90346 66.7581 5.8677 66.8543C5.83195 66.9504 5.81609 67.0529 5.82111 67.1553V72.0282C3.1029 70.7778 1.5499 69.1813 1.5499 67.6356V60.898C4.35509 63.8246 10.8389 65.818 18.5605 65.818C24.2904 65.818 29.6 64.6908 33.0703 62.7736C33.6158 64.6332 34.4525 66.3947 35.5493 67.9925C35.0781 71.1294 28.3714 74.3586 18.5605 74.3586ZM50.764 74.5162C48.0946 74.5157 45.4633 73.8835 43.0851 72.6712C40.7068 71.4589 38.6493 69.7011 37.0805 67.5413C37.0649 67.4228 37.021 67.3097 36.9526 67.2116C36.8842 67.1135 36.7932 67.0333 36.6873 66.9777C35.6123 65.3731 34.8215 63.5954 34.3496 61.7225C34.3704 61.6243 34.3713 61.5228 34.3523 61.4242C34.3334 61.3255 34.2949 61.2317 34.2391 61.1481C34.2391 61.1354 34.2173 61.1245 34.2083 61.11C33.5169 57.8652 33.7948 54.4887 35.0074 51.4006C35.0808 51.3304 35.1391 51.246 35.1787 51.1525C35.2182 51.0591 35.2383 50.9585 35.2376 50.857C36.4521 48.0551 38.402 45.6339 40.8806 43.8501C43.3592 42.0662 46.2742 40.9861 49.3167 40.7242C52.3593 40.4623 55.416 41.0284 58.163 42.3624C60.91 43.6964 63.2449 45.7487 64.9204 48.3018C66.5959 50.8549 67.5495 53.8138 67.6802 56.8648C67.8108 59.9157 67.1137 62.9453 65.6626 65.6323C64.2116 68.3193 62.0607 70.5637 59.4378 72.1277C56.8149 73.6917 53.8178 74.5171 50.764 74.5162Z" fill="white"/>
</svg>
