<svg width="19" height="26" viewBox="0 0 19 26" fill="none" xmlns="http://www.w3.org/2000/svg">
<path d="M1.74687 9.98534H5.41167V14.2487C5.41167 14.6182 5.7116 14.9182 6.08116 14.9182C6.45072 14.9182 6.75066 14.6182 6.75066 14.2487V9.31585C6.75066 8.94629 6.45072 8.64636 6.08116 8.64636H3.36303L9.45808 2.5513L15.5531 8.64636H12.835C12.4654 8.64636 12.1655 8.94629 12.1655 9.31585V24.6338C12.1655 25.0034 12.4654 25.3033 12.835 25.3033C13.2046 25.3033 13.5045 25.0034 13.5045 24.6338V9.98534H17.1693C17.4398 9.98534 17.6848 9.82199 17.7879 9.5716C17.891 9.32121 17.8334 9.03332 17.6433 8.84185L9.93208 1.13064C9.67098 0.869539 9.24652 0.869539 8.98542 1.13064L1.27421 8.84185C1.08274 9.03332 1.02516 9.32121 1.1296 9.5716C1.23404 9.82199 1.4764 9.98534 1.74687 9.98534Z" fill="#4D4D4D" stroke="#4D4D4D"/>
</svg>
