<svg width="16" height="25" viewBox="0 0 16 25" fill="none" xmlns="http://www.w3.org/2000/svg">
<path d="M14.38 24.8862H2.47754C2.07971 24.8862 1.69818 24.7282 1.41688 24.4469C1.13557 24.1656 0.977539 23.784 0.977539 23.3862V2.31421C0.977539 1.91638 1.13557 1.53485 1.41688 1.25355C1.69818 0.972243 2.07971 0.814209 2.47754 0.814209H14.38C14.7779 0.814209 15.1594 0.972243 15.4407 1.25355C15.722 1.53485 15.88 1.91638 15.88 2.31421V23.3862C15.88 23.784 15.722 24.1656 15.4407 24.4469C15.1594 24.7282 14.7779 24.8862 14.38 24.8862ZM3.97754 21.8862H12.88V3.81421H3.97754V21.8862Z" fill="#575757"/>
</svg>
