<svg width="16" height="16" viewBox="0 0 16 16" fill="none" xmlns="http://www.w3.org/2000/svg">
<path d="M11.8494 14.7992C11.678 14.7992 11.5075 14.7466 11.3607 14.6418L7.90949 12.1668L4.45828 14.6418C4.31529 14.7447 4.14346 14.7998 3.96731 14.7992C3.79116 14.7986 3.61971 14.7423 3.47743 14.6385C3.33503 14.5352 3.22881 14.3897 3.17389 14.2226C3.11898 14.0554 3.11816 13.8753 3.17156 13.7077L4.45871 9.55349L1.03847 7.14338C0.896722 7.03877 0.791452 6.89224 0.73755 6.72452C0.683648 6.5568 0.683843 6.37638 0.738106 6.20877C0.792797 6.04157 0.89865 5.89579 1.0407 5.79203C1.18276 5.68827 1.35383 5.63177 1.52974 5.63053L5.76579 5.62417L7.11446 1.57308C7.17012 1.4062 7.27687 1.26105 7.41959 1.1582C7.56231 1.05535 7.73378 1 7.9097 1C8.08562 1 8.25709 1.05535 8.39981 1.1582C8.54254 1.26105 8.64928 1.4062 8.70494 1.57308L10.0307 5.62417L14.2884 5.63053C14.4645 5.63152 14.6358 5.68799 14.778 5.79191C14.9202 5.89583 15.0261 6.04191 15.0805 6.20941C15.1349 6.37691 15.1352 6.5573 15.0813 6.72496C15.0274 6.89262 14.922 7.03903 14.7801 7.14338L11.3598 9.55349L12.647 13.7077C12.7005 13.8752 12.6998 14.0554 12.6449 14.2225C12.5901 14.3896 12.4839 14.5352 12.3415 14.6385C12.1988 14.7431 12.0264 14.7995 11.8494 14.7992Z" stroke="#FFAC33"/>
</svg>
