<svg width="16" height="36" viewBox="0 0 16 36" fill="none" xmlns="http://www.w3.org/2000/svg">
<path d="M14.2496 35.8864H2.3501C1.95228 35.8864 1.57074 35.7284 1.28944 35.4471C1.00813 35.1658 0.850098 34.7843 0.850098 34.3864V1.83643C0.850098 1.4386 1.00813 1.05707 1.28944 0.775764C1.57074 0.49446 1.95228 0.336426 2.3501 0.336426H14.2526C14.6504 0.336426 15.032 0.49446 15.3133 0.775764C15.5946 1.05707 15.7526 1.4386 15.7526 1.83643V34.3864C15.7526 34.5837 15.7137 34.779 15.6381 34.9611C15.5626 35.1433 15.4518 35.3088 15.3122 35.4481C15.1726 35.5875 15.0069 35.6979 14.8245 35.7731C14.6422 35.8483 14.4468 35.8868 14.2496 35.8864ZM3.8471 32.8864H12.7496V3.33643H3.8501L3.8471 32.8864Z" fill="#575757"/>
</svg>
