<svg width="16" height="16" viewBox="0 0 16 16" fill="none" xmlns="http://www.w3.org/2000/svg">
<path d="M11.8492 14.7992C11.6778 14.7992 11.5072 14.7466 11.3605 14.6418L7.90925 12.1668L4.45804 14.6418C4.31505 14.7447 4.14321 14.7998 3.96706 14.7992C3.79092 14.7986 3.61946 14.7423 3.47719 14.6385C3.33478 14.5352 3.22857 14.3897 3.17365 14.2226C3.11873 14.0554 3.11792 13.8753 3.17131 13.7077L4.45846 9.55349L1.03822 7.14338C0.896478 7.03877 0.791208 6.89224 0.737306 6.72452C0.683404 6.5568 0.683598 6.37638 0.737862 6.20877C0.792553 6.04157 0.898406 5.89579 1.04046 5.79203C1.18251 5.68827 1.35359 5.63177 1.5295 5.63053L5.76555 5.62417L7.11422 1.57308C7.16987 1.4062 7.27662 1.26105 7.41935 1.1582C7.56207 1.05535 7.73353 1 7.90946 1C8.08538 1 8.25684 1.05535 8.39957 1.1582C8.54229 1.26105 8.64904 1.4062 8.7047 1.57308L10.0305 5.62417L14.2881 5.63053C14.4643 5.63152 14.6356 5.68799 14.7778 5.79191C14.92 5.89583 15.0258 6.04191 15.0803 6.20941C15.1347 6.37691 15.135 6.5573 15.081 6.72496C15.0271 6.89262 14.9217 7.03903 14.7798 7.14338L11.3596 9.55349L12.6468 13.7077C12.7003 13.8752 12.6995 14.0554 12.6447 14.2225C12.5899 14.3896 12.4837 14.5352 12.3413 14.6385C12.1986 14.7431 12.0262 14.7995 11.8492 14.7992Z" stroke="#FFAC33"/>
</svg>
