<svg width="41" height="37" viewBox="0 0 41 37" fill="none" xmlns="http://www.w3.org/2000/svg">
<path d="M39.3306 1.18677H26.8151C26.4455 1.18677 26.1456 1.4867 26.1456 1.85626V9.17917H14.2996C13.93 9.17917 13.6301 9.4791 13.6301 9.84866V17.9241H1.78546C1.4159 17.9241 1.11597 18.224 1.11597 18.5936V35.3309C1.11597 35.7004 1.4159 36.0004 1.78546 36.0004H14.3009H26.8164H39.3306C39.7001 36.0004 40.0001 35.7004 40.0001 35.3309V1.85626C40.0001 1.4867 39.7001 1.18677 39.3306 1.18677ZM13.6314 34.6614H2.45495V19.2631H13.6314V34.6614ZM26.1456 34.6614H14.9691V18.5936V10.5181H26.1456V34.6614ZM38.6611 34.6614H27.4846V9.84866V2.52575H38.6611V34.6614Z" fill="#4D4D4D" stroke="#4D4D4D"/>
</svg>
