<svg width="16" height="16" viewBox="0 0 16 16" fill="none" xmlns="http://www.w3.org/2000/svg">
<path d="M12.1522 14.7992C11.9808 14.7992 11.8102 14.7466 11.6634 14.6418L8.21222 12.1668L4.76102 14.6418C4.61803 14.7447 4.44619 14.7998 4.27004 14.7992C4.09389 14.7986 3.92244 14.7423 3.78017 14.6385C3.63776 14.5352 3.53154 14.3897 3.47663 14.2226C3.42171 14.0554 3.42089 13.8753 3.47429 13.7077L4.76144 9.55349L1.3412 7.14338C1.19946 7.03877 1.09419 6.89224 1.04028 6.72452C0.986383 6.5568 0.986577 6.37638 1.04084 6.20877C1.09553 6.04157 1.20138 5.89579 1.34344 5.79203C1.48549 5.68827 1.65656 5.63177 1.83248 5.63053L6.06853 5.62417L7.41719 1.57308C7.47285 1.4062 7.5796 1.26105 7.72232 1.1582C7.86505 1.05535 8.03651 1 8.21244 1C8.38836 1 8.55982 1.05535 8.70255 1.1582C8.84527 1.26105 8.95202 1.4062 9.00768 1.57308L10.3334 5.62417L14.5911 5.63053C14.7672 5.63152 14.9386 5.68799 15.0808 5.79191C15.223 5.89583 15.3288 6.04191 15.3832 6.20941C15.4377 6.37691 15.438 6.5573 15.384 6.72496C15.3301 6.89262 15.2247 7.03903 15.0828 7.14338L11.6626 9.55349L12.9497 13.7077C13.0032 13.8752 13.0025 14.0554 12.9477 14.2225C12.8928 14.3896 12.7867 14.5352 12.6443 14.6385C12.5016 14.7431 12.3291 14.7995 12.1522 14.7992Z" fill="#FFAC33" stroke="#FFAC33"/>
</svg>
