<svg width="89" height="102" viewBox="0 0 89 102" fill="none" xmlns="http://www.w3.org/2000/svg">
<path d="M57.9925 86.4369H59.0352C59.3683 86.4369 59.6878 86.3046 59.9234 86.069C60.1589 85.8335 60.2913 85.514 60.2913 85.1809C60.2913 84.8478 60.1589 84.5283 59.9234 84.2927C59.6878 84.0572 59.3683 83.9249 59.0352 83.9249H17.6929V2.86359H67.1165V21.3722C67.1165 21.7054 67.2488 22.0248 67.4844 22.2604C67.7199 22.4959 68.0394 22.6283 68.3725 22.6283H85.9925V71.4712C86.0227 71.7818 86.1675 72.0699 86.3986 72.2796C86.6297 72.4893 86.9305 72.6054 87.2426 72.6054C87.5546 72.6054 87.8554 72.4893 88.0865 72.2796C88.3176 72.0699 88.4624 71.7818 88.4927 71.4712V21.3722C88.4927 21.3722 88.4927 21.3722 88.4927 21.2893C88.4983 21.1867 88.4983 21.0838 88.4927 20.9812V20.8627C88.4361 20.7335 88.3602 20.6136 88.2675 20.5072L69.2849 0.754409C69.1664 0.626143 69.0211 0.525641 68.8593 0.460091C68.6974 0.394541 68.5231 0.365564 68.3488 0.375231H16.4487C16.2834 0.373648 16.1193 0.405055 15.9662 0.467616C15.8131 0.530177 15.674 0.622636 15.5571 0.739586C15.4401 0.856536 15.3477 0.995629 15.2851 1.14873C15.2225 1.30184 15.1911 1.46588 15.1927 1.63126V83.9249H1.87406C1.543 83.928 1.22656 84.0617 0.993566 84.2969C0.760571 84.5321 0.629868 84.8498 0.629883 85.1809C0.629883 93.9849 6.89818 101.142 14.6002 101.142H59.0352C59.3683 101.142 59.6878 101.01 59.9234 100.774C60.1589 100.538 60.2913 100.219 60.2913 99.8859C60.2913 99.5528 60.1589 99.2333 59.9234 98.9978C59.6878 98.7622 59.3683 98.6299 59.0352 98.6299H14.6002C8.67558 98.6299 3.72256 93.2621 3.17749 86.4369H57.9925ZM69.6167 4.80688L84.3099 20.1162H69.6167V4.80688Z" fill="#4D4D4D"/>
</svg>
