<svg width="16" height="10" viewBox="0 0 16 10" fill="none" xmlns="http://www.w3.org/2000/svg">
<path fill-rule="evenodd" clip-rule="evenodd" d="M10.5218 7.66487C10.4404 7.74437 10.3758 7.83945 10.332 7.94444C10.2881 8.04943 10.2658 8.16217 10.2665 8.27595C10.2672 8.38973 10.2908 8.50221 10.3358 8.60667C10.3809 8.71114 10.4466 8.80546 10.5289 8.88401C10.6112 8.96255 10.7085 9.02371 10.815 9.06383C10.9214 9.10396 11.0349 9.12222 11.1486 9.11755C11.2623 9.11287 11.3738 9.08534 11.4767 9.0366C11.5795 8.98787 11.6714 8.91892 11.747 8.83388L15.3324 5.07721L15.9169 4.46458L15.3043 3.88008L11.5476 0.295834C11.3843 0.145215 11.1684 0.0647616 10.9463 0.0718021C10.7243 0.0788426 10.5139 0.172814 10.3605 0.333476C10.207 0.494139 10.1228 0.708637 10.126 0.930772C10.1292 1.15291 10.2195 1.36491 10.3775 1.52111L12.6546 3.69371L0.932868 3.96901C0.708223 3.97428 0.494875 4.06858 0.339757 4.23116C0.18464 4.39374 0.10046 4.61128 0.105736 4.83593C0.111012 5.06057 0.205312 5.27392 0.367891 5.42904C0.53047 5.58416 0.74801 5.66834 0.972655 5.66306L12.6944 5.38776L10.5218 7.66487Z" fill="#676767"/>
</svg>
