<svg width="29" height="24" viewBox="0 0 29 24" fill="none" xmlns="http://www.w3.org/2000/svg">
<path fill-rule="evenodd" clip-rule="evenodd" d="M21.7041 4.26509C22.0822 4.26509 22.3898 4.57149 22.3898 4.94872C22.3898 5.32534 22.0822 5.63235 21.7041 5.63235C21.3257 5.63235 21.0172 5.32534 21.0172 4.94872C21.0175 4.57149 21.3257 4.26509 21.7041 4.26509ZM21.7041 6.50814C22.567 6.50814 23.2691 5.80881 23.2691 4.94872C23.2691 4.08894 22.567 3.3896 21.7041 3.3896C20.841 3.3896 20.1383 4.08894 20.1383 4.94872C20.1386 5.80881 20.841 6.50814 21.7041 6.50814ZM24.3433 16.2241C24.4083 16.7528 24.2661 17.235 23.9325 17.6187C23.5402 18.0699 22.8888 18.3735 22.1472 18.4582V19.0149C22.1472 19.2567 21.9505 19.4528 21.7075 19.4528C21.4646 19.4528 21.2679 19.257 21.2679 19.0149V18.4517C20.1701 18.3018 19.3163 17.6101 19.0696 16.6225C19.0111 16.3879 19.1543 16.1505 19.3895 16.0916C19.6254 16.0338 19.8638 16.1757 19.9225 16.4107C20.15 17.3203 21.0695 17.6237 21.7876 17.6061C22.4041 17.5913 22.9849 17.3718 23.2678 17.0463C23.4391 16.8489 23.5059 16.6142 23.4709 16.3297C23.389 15.6565 22.8254 15.2701 21.6429 15.077C19.7608 14.7687 19.3231 13.8187 19.2869 13.0753C19.2368 12.0453 19.9605 11.1821 21.088 10.9274C21.1474 10.9142 21.207 10.9028 21.2679 10.8933V10.3239C21.2679 10.0821 21.4646 9.88597 21.7075 9.88597C21.9502 9.88597 22.1472 10.0818 22.1472 10.3239V10.8893C22.9522 11.0081 23.7461 11.4728 24.143 12.4136C24.2367 12.6365 24.1313 12.893 23.9081 12.9867C23.6836 13.0806 23.4261 12.9756 23.3321 12.7523C22.9509 11.8482 22.0281 11.6135 21.2825 11.7817C20.7186 11.9089 20.13 12.3049 20.1649 13.0328C20.1763 13.261 20.2097 13.9551 21.7851 14.2126C22.3694 14.308 24.1458 14.5987 24.3433 16.2241ZM27.0283 22.1492C27.4534 22.1492 27.799 21.8046 27.799 21.3809L27.7928 6.65041C27.7928 6.42069 27.7094 6.23346 27.5375 6.07949L23.2616 2.25052C22.6761 1.72609 22.2244 1.51269 21.7041 1.51269C21.7032 1.51269 21.7032 1.51269 21.7029 1.51269C21.182 1.51269 20.7309 1.72671 20.1451 2.25175L15.8717 6.08349C15.6998 6.23808 15.6161 6.42469 15.6161 6.65503L15.6185 11.5732H16.1401C17.1145 11.5732 17.9072 12.3631 17.9072 13.3331C17.9072 13.718 17.7823 14.0743 17.5714 14.3644C18.1959 14.6363 18.6337 15.2574 18.6337 15.9783C18.6337 16.6225 18.2843 17.1873 17.7647 17.4937C18.0216 17.7998 18.1771 18.194 18.1771 18.6236C18.1771 19.5492 17.4561 20.3102 16.5441 20.3788C16.6987 20.64 16.7868 20.9442 16.7868 21.2688C16.7868 21.5909 16.699 21.893 16.5466 22.1529L27.0283 22.1492ZM9.18421 22.1532C7.66289 22.1532 6.65537 21.7784 5.68093 21.416C5.38693 21.3064 5.08551 21.1943 4.77327 21.0942V13.8005L4.81562 13.7999C5.58386 13.7932 6.18639 13.4824 6.60745 12.8761C6.68876 12.7585 6.76203 12.6525 6.82788 12.5561C7.41866 11.6973 7.41866 11.6973 8.32818 11.106C10.0841 9.96265 10.2134 9.39419 10.7584 7.00393C10.7667 6.96821 10.7751 6.9328 10.7831 6.89615C11.1451 7.08769 11.3922 7.39964 11.5334 7.84092C11.9483 9.13798 11.2938 11.1359 10.7822 11.7241C10.6697 11.8537 10.6434 12.0366 10.7148 12.1925C10.7859 12.3486 10.9427 12.449 11.1149 12.449H16.1404C16.6301 12.449 17.0283 12.8459 17.0283 13.3334C17.0283 13.8212 16.6301 14.2187 16.1404 14.2187H12.6748C12.4321 14.2187 12.2355 14.4146 12.2355 14.6563C12.2355 14.8977 12.4321 15.0942 12.6748 15.0942H16.8656C17.3553 15.0942 17.7541 15.4912 17.7541 15.9786C17.7541 16.4664 17.3553 16.863 16.8656 16.863H12.6748C12.4321 16.863 12.2355 17.0595 12.2355 17.3009C12.2355 17.5427 12.4321 17.7388 12.6748 17.7388H16.4096C16.8993 17.7388 17.2975 18.1361 17.2975 18.6239C17.2975 19.1116 16.899 19.5083 16.4096 19.5083H12.6748C12.4321 19.5083 12.2355 19.7047 12.2355 19.9462C12.2355 20.1879 12.4321 20.3841 12.6748 20.3841H15.0194C15.5091 20.3841 15.9073 20.781 15.9073 21.2691C15.9073 21.7569 15.5088 22.1532 15.0194 22.1532H9.18421ZM3.89405 22.467C3.89405 22.5289 3.8418 22.5803 3.78028 22.5803H1.53864C1.47681 22.5803 1.42487 22.5289 1.42487 22.467V12.8197C1.42487 12.7585 1.47681 12.7064 1.53864 12.7064H3.78028C3.8418 12.7064 3.89405 12.7585 3.89405 12.8197V22.467ZM28.6724 6.65041C28.6724 6.17095 28.4825 5.74845 28.1249 5.42819L23.849 1.59984C23.3173 1.12376 22.6467 0.637207 21.7038 0.637207C21.7029 0.637207 21.7026 0.637207 21.7026 0.637207C20.7591 0.637207 20.0882 1.12437 19.5571 1.60107L15.2834 5.4325C14.9257 5.75338 14.7375 6.17587 14.7375 6.65534L14.7396 11.5732H11.9016C12.4148 10.5102 12.7731 8.83219 12.3709 7.57517C12.0884 6.69075 11.4654 6.10782 10.5704 5.88856C10.4561 5.86085 10.3352 5.87994 10.2353 5.94091C10.1355 6.0025 10.0641 6.10135 10.0378 6.21591C9.98893 6.42654 9.94379 6.62424 9.90144 6.81024C9.37341 9.12566 9.30571 9.42375 7.84745 10.3734C6.81737 11.0438 6.74379 11.1304 6.10292 12.0619C6.03738 12.1564 5.96566 12.2618 5.88466 12.3782C5.6256 12.752 5.29357 12.9204 4.81099 12.9244L4.77389 12.9251V12.8201C4.77389 12.2747 4.3281 11.8309 3.7809 11.8309H1.53864C0.991138 11.8309 0.545654 12.2747 0.545654 12.8201V22.467C0.545654 23.0127 0.991138 23.4561 1.53864 23.4561H3.78028C4.32748 23.4561 4.77327 23.0127 4.77327 22.467V22.0183C4.97144 22.0873 5.16929 22.1606 5.37302 22.2367C6.37219 22.6083 7.50399 23.029 9.18421 23.029H15.0197C15.2683 23.029 15.5051 22.9776 15.7196 22.8846C15.9308 22.9794 16.1592 23.029 16.3939 23.029C16.3939 23.029 16.3939 23.029 16.3945 23.029L27.0289 23.0253C27.9391 23.0253 28.6789 22.2875 28.6785 21.3809L28.6724 6.65041Z" fill="white" stroke="white" stroke-width="0.2"/>
</svg>
