<svg width="3" height="3" viewBox="0 0 3 3" fill="none" xmlns="http://www.w3.org/2000/svg">
<path d="M2.97012 1.5876C2.97011 1.36446 2.90378 1.14635 2.77956 0.960986C2.65533 0.77562 2.47882 0.631356 2.27244 0.546515C2.06605 0.461673 1.83911 0.440085 1.62043 0.484489C1.40175 0.528893 1.2012 0.637286 1.04426 0.795903C0.887308 0.954521 0.781042 1.15621 0.738955 1.37534C0.696867 1.59448 0.720858 1.82118 0.807878 2.02665C0.894899 2.23213 1.04102 2.4071 1.22769 2.52936C1.41436 2.65162 1.63316 2.71563 1.85629 2.71329C2.15278 2.71016 2.43607 2.59019 2.64462 2.37942C2.85317 2.16865 2.97014 1.88411 2.97012 1.5876Z" fill="#4D4D4D"/>
</svg>
