<svg width="26" height="24" viewBox="0 0 26 24" fill="none" xmlns="http://www.w3.org/2000/svg">
<path d="M12.1985 23.6263C12.1218 23.6262 12.0454 23.6152 11.9719 23.5934C11.8363 23.5522 11.7145 23.4748 11.6195 23.3696C11.5245 23.2645 11.4599 23.1355 11.4326 22.9964L9.79469 14.6988L1.38608 13.0577C1.24701 13.0305 1.11795 12.9661 1.01269 12.8712C0.907437 12.7763 0.829954 12.6547 0.788532 12.5191C0.74711 12.3836 0.743309 12.2394 0.777536 12.1019C0.811762 11.9644 0.882728 11.8388 0.98284 11.7386L11.8859 0.827684C11.958 0.753045 12.0442 0.69351 12.1396 0.652554C12.2349 0.611598 12.3374 0.590043 12.4412 0.589141C12.545 0.588239 12.6479 0.60801 12.7439 0.647303C12.84 0.686596 12.9272 0.744622 13.0006 0.817996C13.074 0.891371 13.132 0.978624 13.1713 1.07466C13.2106 1.1707 13.2303 1.27361 13.2294 1.37737C13.2285 1.48113 13.207 1.58368 13.166 1.67902C13.1251 1.77436 13.0655 1.86059 12.9909 1.93268L3.13344 11.8042L10.6168 13.264C10.7707 13.2923 10.9125 13.3661 11.024 13.4758C11.1354 13.5856 11.2114 13.7264 11.242 13.8798L12.6986 21.2568L24.0127 9.94274C24.1601 9.80039 24.3575 9.72162 24.5624 9.7234C24.7673 9.72518 24.9633 9.80737 25.1082 9.95226C25.2531 10.0972 25.3353 10.2932 25.3371 10.498C25.3389 10.7029 25.2601 10.9004 25.1177 11.0477L12.7705 23.395C12.6959 23.4703 12.6066 23.5297 12.5083 23.5695C12.41 23.6092 12.3045 23.6286 12.1985 23.6263Z" fill="white"/>
</svg>
