<svg width="51" height="51" viewBox="0 0 51 51" fill="none" xmlns="http://www.w3.org/2000/svg">
<path d="M25.1597 50.324C26.9199 50.324 28.7001 50.1283 30.4499 49.7433C30.734 49.6813 30.9128 49.4004 30.8508 49.1164C30.7876 48.8334 30.513 48.6545 30.2237 48.7156C28.5476 49.0848 26.8431 49.272 25.1597 49.272C12.2392 49.272 1.72818 38.7631 1.72818 25.8451C1.72818 12.9271 12.2392 2.41816 25.1597 2.41816C38.0738 2.41816 48.5816 12.9271 48.5816 25.8451C48.5816 26.2964 48.5701 26.7466 48.5406 27.1874C48.5206 27.4777 48.7395 27.7281 49.0299 27.7481C49.3118 27.7639 49.5707 27.5493 49.5907 27.2589C49.6222 26.795 49.6338 26.3195 49.6338 25.8451C49.6338 12.3475 38.6546 1.36621 25.1597 1.36621C11.6584 1.36621 0.676025 12.3475 0.676025 25.8451C0.676025 39.3427 11.6584 50.324 25.1597 50.324Z" fill="#4D4D4D" stroke="#4D4D4D"/>
</svg>
