<svg width="27" height="27" viewBox="0 0 27 27" fill="none" xmlns="http://www.w3.org/2000/svg">
<path d="M13.764 0.393311C11.1555 0.393311 8.60555 1.16682 6.43667 2.61602C4.26779 4.06522 2.57736 6.12502 1.57914 8.53495C0.58091 10.9449 0.319728 13.5967 0.828619 16.1551C1.33751 18.7134 2.59362 21.0634 4.4381 22.9079C6.28258 24.7524 8.63259 26.0085 11.191 26.5174C13.7493 27.0263 16.4011 26.7651 18.8111 25.7669C21.221 24.7687 23.2808 23.0782 24.73 20.9093C26.1792 18.7405 26.9527 16.1905 26.9527 13.5821C26.9489 10.0854 25.5581 6.73299 23.0856 4.26045C20.613 1.78791 17.2607 0.397148 13.764 0.393311ZM13.764 25.2577C11.4547 25.2577 9.19737 24.5729 7.27733 23.29C5.35728 22.007 3.86079 20.1836 2.97709 18.0501C2.09339 15.9167 1.86217 13.5691 2.31268 11.3043C2.76319 9.03941 3.87518 6.95902 5.50805 5.32616C7.14091 3.6933 9.22131 2.5813 11.4862 2.13079C13.751 1.68029 16.0986 1.9115 18.232 2.7952C20.3655 3.6789 22.1889 5.17539 23.4719 7.09544C24.7548 9.01548 25.4396 11.2728 25.4396 13.5821C25.4372 16.6782 24.2064 19.6469 22.0174 21.8366C19.8284 24.0263 16.8601 25.2579 13.764 25.2613V25.2577Z" fill="white"/>
</svg>
