<svg width="33" height="34" viewBox="0 0 33 34" fill="none" xmlns="http://www.w3.org/2000/svg">
<path d="M31.777 30.9977C31.7168 30.7304 31.5658 30.4922 31.3498 30.3237C31.1337 30.1552 30.866 30.0667 30.5921 30.0734C29.2465 30.0152 27.9395 29.6067 26.8003 28.8885C29.7539 26.4675 31.7579 23.0813 32.4589 19.327C33.1598 15.5728 32.5127 11.6916 30.6317 8.3679C28.7506 5.04417 25.7564 2.49133 22.177 1.15955C18.5976 -0.172239 14.663 -0.197439 11.0668 1.08838C7.47067 2.3742 4.44401 4.88846 2.52051 8.18783C0.597024 11.4872 -0.099756 15.3597 0.553042 19.1227C1.20584 22.8856 3.16629 26.2971 6.0887 28.7558C9.01111 31.2145 12.7078 32.5624 16.5269 32.5618C17.8024 32.5794 19.0754 32.4441 20.3187 32.1589C21.9872 33.291 23.9546 33.9015 25.9708 33.9126C26.8956 33.9138 27.8163 33.7902 28.708 33.5453L30.9831 32.9054C31.1456 32.8705 31.2989 32.8018 31.4331 32.7038C31.5673 32.6058 31.6794 32.4807 31.7621 32.3365C31.8448 32.1924 31.8962 32.0324 31.9131 31.8671C31.93 31.7018 31.9118 31.5347 31.8599 31.3769L31.777 30.9977ZM23.8735 29.8128C24.5408 30.4338 25.2904 30.9601 26.1012 31.3769C24.3585 31.4204 22.6545 30.8593 21.2785 29.789C21.0602 29.6232 20.7943 29.5318 20.5201 29.5284C20.4099 29.516 20.2986 29.516 20.1883 29.5284C18.9997 29.8586 17.7724 30.0299 16.5388 30.0379C13.2386 30.0446 10.0463 28.8626 7.54628 26.7083C5.04621 24.554 3.40549 21.5715 2.92439 18.3066C2.44328 15.0417 3.15397 11.7127 4.92639 8.92882C6.69881 6.14498 9.41442 4.09247 12.5763 3.14692C15.7381 2.20138 19.1347 2.42603 22.1444 3.77976C25.1542 5.13349 27.5758 7.52576 28.9662 10.5188C30.3565 13.5118 30.6226 16.9054 29.7157 20.0785C28.8088 23.2517 26.7895 25.9921 24.0275 27.7984C23.8695 27.9044 23.7374 28.0447 23.641 28.2088C23.5446 28.3729 23.4863 28.5566 23.4706 28.7463C23.4385 28.9473 23.4587 29.1532 23.5292 29.3442C23.5998 29.5351 23.7184 29.7046 23.8735 29.8364V29.8128Z" fill="#4D4D4D"/>
</svg>
