<svg width="17" height="16" viewBox="0 0 17 16" fill="none" xmlns="http://www.w3.org/2000/svg">
<path d="M12.4251 14.7992C12.2537 14.7992 12.0832 14.7466 11.9364 14.6418L8.48517 12.1668L5.03397 14.6418C4.89098 14.7447 4.71914 14.7998 4.54299 14.7992C4.36684 14.7986 4.19539 14.7423 4.05312 14.6385C3.91071 14.5352 3.80449 14.3897 3.74958 14.2226C3.69466 14.0554 3.69384 13.8753 3.74724 13.7077L5.03439 9.55349L1.61415 7.14338C1.47241 7.03877 1.36714 6.89224 1.31323 6.72452C1.25933 6.5568 1.25953 6.37638 1.31379 6.20877C1.36848 6.04157 1.47433 5.89579 1.61639 5.79203C1.75844 5.68827 1.92951 5.63177 2.10542 5.63053L6.34148 5.62417L7.69014 1.57308C7.7458 1.4062 7.85255 1.26105 7.99527 1.1582C8.138 1.05535 8.30946 1 8.48538 1C8.66131 1 8.83277 1.05535 8.9755 1.1582C9.11822 1.26105 9.22497 1.4062 9.28063 1.57308L10.6064 5.62417L14.8641 5.63053C15.0402 5.63152 15.2115 5.68799 15.3537 5.79191C15.4959 5.89583 15.6018 6.04191 15.6562 6.20941C15.7106 6.37691 15.7109 6.5573 15.657 6.72496C15.603 6.89262 15.4977 7.03903 15.3558 7.14338L11.9355 9.55349L13.2227 13.7077C13.2762 13.8752 13.2755 14.0554 13.2206 14.2225C13.1658 14.3896 13.0596 14.5352 12.9172 14.6385C12.7745 14.7431 12.6021 14.7995 12.4251 14.7992Z" fill="#FFAC33" stroke="#FFAC33"/>
</svg>
