<svg width="3" height="3" viewBox="0 0 3 3" fill="none" xmlns="http://www.w3.org/2000/svg">
<path d="M1.71715 2.11054C1.51802 2.11092 1.32625 2.03528 1.18101 1.89904C1.03578 1.76281 0.948024 1.57627 0.935679 1.37752C0.935679 1.29938 0.935679 1.22123 0.935679 1.14152C0.929254 0.934261 1.00543 0.732939 1.14744 0.581842C1.28945 0.430745 1.48566 0.34225 1.69292 0.335825C1.90018 0.3294 2.1015 0.40557 2.2526 0.547581C2.4037 0.689592 2.49219 0.885809 2.49862 1.09307L1.71715 1.12589L2.49862 1.10088C2.49862 1.17278 2.49862 1.24155 2.49862 1.31344C2.50288 1.51783 2.42689 1.71574 2.28694 1.86475C2.14699 2.01376 1.95422 2.102 1.74997 2.11054H1.71715Z" fill="white"/>
</svg>
