<svg width="104" height="82" viewBox="0 0 104 82" fill="none" xmlns="http://www.w3.org/2000/svg">
<path d="M79.9332 31.5536L79.5572 31.4631C74.9156 30.3609 68.5627 28.857 65.2824 25.1102C64.7379 24.4879 64.2063 23.8396 63.6877 23.1913C61.9633 21.0389 60.1741 18.8349 57.6199 17.4605C53.6301 15.3052 48.6837 16.0554 44.242 16.9929L34.0629 2.15502C33.0614 0.698952 31.0609 0.322906 29.6048 1.32569L1.83196 20.3786C0.373362 21.3789 0.00111407 23.3794 1.00136 24.838L38.6767 79.7556C39.1616 80.4621 39.8922 80.9382 40.7342 81.0939C40.9317 81.1307 41.1305 81.1497 41.328 81.1497C41.9687 81.1497 42.5954 80.9559 43.1348 80.5849L70.9089 61.5333C71.155 61.3643 71.3609 61.157 71.5449 60.9332C73.8267 60.3887 76.2771 59.7791 78.507 59.1957L78.4552 60.1681C78.3489 62.3709 80.0343 64.2859 82.2929 64.3948L98.0846 65.1469C98.1495 65.1469 98.2143 65.1599 98.2791 65.1599C99.2774 65.1599 100.237 64.7838 100.989 64.1096C101.78 63.3838 102.246 62.3981 102.298 61.3222L103.634 33.5503C103.738 31.3333 102.026 29.4404 99.796 29.3366L84.0043 28.5718C82.0137 28.499 80.3559 29.8332 79.9332 31.5536ZM41.6673 78.4477C41.4863 78.5718 41.3014 78.5604 41.209 78.5452C41.1153 78.5275 40.9406 78.4718 40.8152 78.2894L3.13988 23.3718C2.94743 23.0919 3.0196 22.7096 3.29815 22.5171L31.071 3.4642C31.1773 3.39077 31.2976 3.35658 31.4166 3.35658C31.6129 3.35658 31.8066 3.45028 31.9256 3.62247C33.921 6.53112 51.9999 32.9096 53.2745 34.7427C53.3141 34.8022 53.3537 34.8614 53.3932 34.9247C54.0285 35.8841 54.4694 36.5973 54.5601 36.8695C54.8705 38.305 54.4196 39.5721 53.8383 40.6204L34.2705 12.098C33.8666 11.5067 33.0601 11.3573 32.4688 11.7612C30.8887 12.8451 28.7198 12.4424 27.6372 10.8623C27.4422 10.5787 27.1434 10.3837 26.8054 10.3204C26.466 10.2659 26.1178 10.333 25.8342 10.5267L11.7737 20.1722C11.4901 20.3659 11.2951 20.666 11.2318 21.0041C11.1698 21.3421 11.2432 21.6903 11.4382 21.9739C11.9636 22.7399 12.1586 23.6642 11.989 24.5771C11.8193 25.49 11.304 26.2813 10.538 26.8055C10.2543 27.0005 10.0594 27.2993 9.99605 27.6374C9.93401 27.9754 10.0074 28.3249 10.2024 28.6085L38.4716 69.8139C38.6653 70.0975 38.9654 70.2925 39.3035 70.3558C39.6403 70.4178 39.991 70.3431 40.2746 70.1494C41.0393 69.6252 41.9661 69.4252 42.8752 69.5986C43.7881 69.7683 44.5795 70.2836 45.1049 71.0483C45.2986 71.332 45.5974 71.5269 45.9355 71.5903C46.0153 71.6042 46.095 71.6118 46.1735 71.6118C46.4331 71.6118 46.6901 71.5333 46.9066 71.3839L59.6459 62.6446C60.0854 62.6703 60.5123 62.6836 60.9391 62.6836C62.4268 62.6836 63.8625 62.5411 65.1568 62.3348L41.6673 78.4477ZM52.5649 42.4171C52.5644 42.4177 52.5639 42.4184 52.5634 42.4187L52.5562 42.426V42.4171H52.5649ZM35.7215 55.7211C39.8673 57.9701 42.8908 55.8385 46.2883 57.0046C51.3173 58.6155 50.2245 60.6074 55.9156 62.0594L46.3951 68.5908C45.5569 67.8007 44.5098 67.2651 43.35 67.0499C42.9753 66.979 42.6005 66.9448 42.227 66.9448C41.4458 66.9448 40.6759 67.0967 39.9542 67.3918L12.9955 28.097C13.7869 27.2601 14.3225 26.2117 14.5377 25.0519C14.7542 23.8922 14.6314 22.721 14.1958 21.6549L26.3457 13.3199C28.0664 14.9367 30.5987 15.409 32.7866 14.5189L52.1655 42.7653C51.7381 43.016 51.4033 43.4927 49.6852 43.7931C37.8748 45.911 33.8957 46.2649 33.2063 50.5609C32.8821 52.6615 33.8545 54.6708 35.7215 55.7211ZM78.6366 56.4602C74.4359 57.601 69.3017 58.8459 65.9436 59.5458C50.5548 62.7029 54.1814 53.3012 41.6207 54.1394C33.9596 54.7202 35.0322 49.4977 37.7182 48.9662C40.4338 48.4265 41.1796 48.2265 45.6011 47.3066C51.6135 46.024 53.6304 46.0408 55.7918 42.4316C56.6864 40.9278 57.6458 38.8792 57.0883 36.3121C57.0109 35.9895 56.7659 35.4732 56.2529 34.6259C56.2581 34.5904 56.2595 34.5543 56.2649 34.5186L55.1929 32.9562C54.9561 32.5985 55.798 33.7836 45.8345 19.3144C46.0939 19.2498 46.3531 19.2109 46.5865 19.172C55.0858 17.6415 57.3614 19.4834 61.6651 24.812C62.2096 25.4859 62.7672 26.1731 63.3246 26.8214C67.1494 31.1908 73.9822 32.8115 78.9608 33.9912L79.6998 34.1726L78.6366 56.4602ZM101.041 33.4338L99.7182 61.1924C99.6924 61.5814 99.5238 61.9315 99.2385 62.1908C98.9533 62.45 98.5903 62.5928 98.2013 62.5538L82.4096 61.8017C81.6271 61.7745 80.9932 61.0955 81.0482 60.2979C81.8923 42.7526 82.2183 35.975 82.3308 33.637C82.3312 33.6269 82.332 33.612 82.3331 33.5905C82.3354 33.5427 82.3377 33.4968 82.3397 33.4528C82.3394 33.4601 82.3389 33.468 82.3386 33.475C82.3404 33.437 82.3425 33.3936 82.345 33.3414C82.3487 33.2657 82.3521 33.1958 82.3551 33.1321C82.361 33.0103 82.368 32.8628 82.3764 32.6887C82.378 32.6558 82.3793 32.6298 82.3803 32.6086C82.3814 32.5849 82.3824 32.564 82.3836 32.5393C82.3836 31.8435 83.042 31.1304 83.8876 31.1649L99.6794 31.9296C100.47 31.9686 101.08 32.6428 101.041 33.4338ZM82.3666 32.8925C82.3641 32.9451 82.3614 33.0005 82.3587 33.0565C82.3616 32.9957 82.3643 32.9416 82.3666 32.8925Z" fill="#4D4D4D"/>
</svg>
