<svg width="70" height="70" viewBox="0 0 70 70" fill="none" xmlns="http://www.w3.org/2000/svg">
<path d="M27.4262 69.3005C26.3188 69.3 25.2305 69.0116 24.2682 68.4635C23.3059 67.9155 22.5026 67.1268 21.9371 66.1746C21.8737 66.1152 21.8209 66.0454 21.7808 65.9683C21.6902 65.7933 19.5568 61.7797 14.9117 61.7797C14.8179 61.7797 14.7242 61.7797 14.6288 61.7797C14.5293 61.7832 14.43 61.7673 14.3365 61.7328C13.4966 61.7325 12.665 61.5668 11.8891 61.245C11.1133 60.9231 10.4085 60.4516 9.81497 59.8572C9.21608 59.2648 8.74166 58.5587 8.41957 57.7803C8.09749 57.002 7.93425 56.1671 7.93944 55.3247C7.92944 55.2733 7.92524 55.2208 7.92694 55.1684C7.94569 54.6605 7.98789 50.1451 3.75702 47.943C3.66749 47.8942 3.58838 47.8283 3.52414 47.7492C2.79259 47.317 2.15456 46.7433 1.64737 46.0617C1.14017 45.38 0.773993 44.604 0.57025 43.7792C0.366508 42.9543 0.329292 42.0971 0.460779 41.2577C0.592266 40.4182 0.889817 39.6135 1.33603 38.8904C1.34384 38.8748 1.35166 38.8623 1.35947 38.8482C1.62204 38.4169 3.84923 34.5204 1.35947 30.5646C1.31569 30.4957 1.28299 30.4203 1.26257 30.3411C0.836435 29.6108 0.559044 28.8034 0.446381 27.9654C0.333719 27.1274 0.388013 26.2754 0.606135 25.4585C0.823816 24.6323 1.20665 23.8587 1.73154 23.1844C2.25643 22.5102 2.91249 21.9493 3.66012 21.5356L3.78046 21.4683C4.52598 21.0385 8.05979 18.7598 7.9582 14.3492C7.95743 14.3435 7.95743 14.3377 7.9582 14.332C7.9582 14.2788 7.9582 14.221 7.9582 14.1616C7.95744 14.1528 7.95744 14.1439 7.9582 14.135C7.9413 13.2503 8.10841 12.3717 8.44894 11.5549C8.78946 10.7382 9.29597 10.0011 9.93636 9.39039C10.5767 8.77969 11.337 8.3087 12.169 8.00729C13.001 7.70588 13.8865 7.58063 14.7695 7.63947C15.9464 7.62696 19.8084 7.28155 21.7933 3.46329C21.8055 3.43878 21.8196 3.41527 21.8355 3.39296C22.2521 2.63236 22.8191 1.96454 23.5022 1.4302C24.1852 0.89586 24.9699 0.506192 25.8084 0.284941C26.6469 0.0636902 27.5216 0.0154909 28.3794 0.14328C29.2371 0.27107 30.0598 0.572172 30.7974 1.02824L30.8099 1.03605L30.8302 1.05012L30.8896 1.08607L30.9021 1.09544C31.643 1.53307 35.233 3.41172 38.9747 1.16734C39.7062 0.672581 40.5322 0.334778 41.4007 0.175236C42.2693 0.015695 43.1614 0.0378786 44.0209 0.240388C44.8805 0.442897 45.6887 0.821337 46.3947 1.35183C47.1006 1.88233 47.689 2.55337 48.1226 3.32263C48.1569 3.36474 48.1868 3.41031 48.2117 3.45861C48.2992 3.63053 50.3998 7.65041 55.0808 7.65041H55.1683C56.0532 7.58235 56.9426 7.69944 57.7797 7.99421C58.6168 8.28898 59.3833 8.75495 60.0303 9.36241C60.6773 9.96988 61.1907 10.7055 61.5376 11.5224C61.8845 12.3393 62.0574 13.2195 62.0452 14.1069C62.0612 14.1729 62.0685 14.2407 62.0671 14.3085C62.0562 14.8087 62.0671 19.2599 66.1526 21.4433L66.1777 21.459L66.2495 21.4965L66.2761 21.5105C67.0383 21.9216 67.7079 22.4848 68.2434 23.1653C68.779 23.8457 69.169 24.6289 69.3895 25.4663C69.6076 26.2816 69.6621 27.1319 69.55 27.9683C69.4379 28.8047 69.1613 29.6106 68.7362 30.3396C68.7185 30.4232 68.6862 30.5031 68.6408 30.5756C68.3814 31.0038 66.1698 34.8768 68.6174 38.8091C68.6402 38.845 68.6601 38.8826 68.6768 38.9217C69.1174 39.6461 69.4094 40.4509 69.5359 41.2893C69.6624 42.1277 69.6208 42.9829 69.4135 43.805C69.2062 44.6272 68.8374 45.3999 68.3285 46.0781C67.8197 46.7563 67.181 47.3265 66.4496 47.7554C66.3863 47.8316 66.3088 47.8948 66.2214 47.9414C65.7729 48.1837 61.8452 50.4421 62.0687 55.1794C62.0728 55.2572 62.0649 55.3352 62.0452 55.4107C62.0333 57.0836 61.3589 58.6836 60.1697 59.8604C58.9809 61.0486 57.3727 61.7222 55.6919 61.7359C55.5995 61.7704 55.5014 61.7868 55.4028 61.7843C54.8964 61.7734 50.4092 61.7843 48.2367 65.9214C48.1938 66.0046 48.1355 66.0789 48.0648 66.1403C47.2143 67.5911 45.826 68.648 44.2012 69.0816C42.5763 69.5153 40.846 69.2906 39.3858 68.4565C39.2962 68.4391 39.2104 68.4058 39.1326 68.3581C38.7028 68.0971 34.8204 65.8808 30.8865 68.3424C30.8031 68.3953 30.7102 68.4314 30.613 68.4487C29.6432 69.0059 28.5446 69.2995 27.4262 69.3005ZM23.0499 65.029C23.1072 65.0843 23.1557 65.1481 23.1937 65.2181C23.5056 65.7932 23.9322 66.2983 24.447 66.702C24.9618 67.1058 25.5539 67.3997 26.1867 67.5657C26.834 67.7382 27.51 67.7746 28.172 67.6726C28.8341 67.5707 29.4678 67.3326 30.0331 66.9733C30.1176 66.9186 30.2122 66.8814 30.3113 66.8639C34.5141 64.4038 38.5949 66.2747 39.7046 66.8764C39.8039 66.8948 39.8989 66.932 39.9844 66.9858C40.546 67.3391 41.1745 67.5729 41.8305 67.6725C42.4865 67.7721 43.156 67.7354 43.7972 67.5646C44.4384 67.3939 45.0376 67.0929 45.5572 66.6803C46.0769 66.2677 46.5059 65.7524 46.8175 65.1665C46.8576 65.088 46.9104 65.0167 46.9738 64.9555C49.3683 60.6856 53.8414 60.2511 55.1324 60.2183C55.2316 60.1784 55.3382 60.1603 55.445 60.1651C56.1113 60.1913 56.776 60.08 57.3974 59.838C58.0189 59.5959 58.5838 59.2285 59.0569 58.7585C59.5194 58.299 59.8828 57.7496 60.1247 57.1443C60.3666 56.5389 60.482 55.8904 60.4636 55.2388C60.4632 55.1746 60.47 55.1107 60.4839 55.0481C60.3557 50.0373 64.0896 47.3897 65.2024 46.7207C65.2692 46.6382 65.3522 46.5701 65.4462 46.5207C66.0399 46.212 66.5629 45.7832 66.982 45.2616C67.4011 44.7399 67.7072 44.1368 67.8808 43.4906C68.0543 42.8443 68.0916 42.1691 67.9903 41.5076C67.8889 40.8462 67.6511 40.2131 67.292 39.6484C67.2673 39.6086 67.2459 39.5668 67.228 39.5234C64.6507 35.2613 66.5746 31.0992 67.1764 29.9989C67.1947 29.9014 67.2319 29.8085 67.2858 29.7253C67.6478 29.1597 67.888 28.5249 67.9911 27.8613C68.0941 27.1977 68.0578 26.5199 67.8844 25.8711C67.7181 25.2403 67.4242 24.6502 67.021 24.1373C66.6178 23.6244 66.1138 23.1996 65.54 22.8891L65.4243 22.8281L65.4071 22.8187C60.884 20.4024 60.5214 15.6917 60.5026 14.4945C60.4812 14.4156 60.4722 14.3339 60.4761 14.2523C60.5087 13.5671 60.3949 12.8828 60.1424 12.245C59.8898 11.6072 59.5042 11.0306 59.0113 10.5535C58.5184 10.0765 57.9295 9.7099 57.2838 9.47827C56.6382 9.24664 55.9505 9.15526 55.2668 9.21022H55.2152H55.0792C49.9137 9.21022 47.363 5.14658 46.8941 4.30416C46.864 4.26597 46.8373 4.22517 46.8144 4.18225C46.4955 3.58391 46.0541 3.05945 45.519 2.64303C44.9839 2.22662 44.3671 1.92758 43.7088 1.76539C43.0504 1.6032 42.3653 1.5815 41.698 1.70169C41.0307 1.82189 40.3963 2.0813 39.8359 2.46301L39.7984 2.48802C35.2518 5.24036 30.9021 2.91627 30.0785 2.42238L30.0425 2.4005L30.0097 2.38018L29.9581 2.34736C29.3961 2.00196 28.7692 1.77542 28.1162 1.68171C27.4631 1.588 26.7979 1.62912 26.1613 1.80253C25.5248 1.97593 24.9306 2.27795 24.4154 2.68993C23.9001 3.10191 23.4748 3.61512 23.1656 4.19788C23.1562 4.21748 23.1452 4.23629 23.1328 4.25414C20.6571 8.93202 15.7151 9.2024 14.7413 9.20866H14.6757C13.9862 9.16128 13.2946 9.26233 12.6476 9.50498C12.0005 9.74764 11.413 10.1263 10.9247 10.6153C10.4657 11.0722 10.1044 11.6175 9.86262 12.2183C9.62082 12.819 9.50358 13.4626 9.51801 14.11C9.51801 14.1851 9.51801 14.2523 9.51801 14.321V14.3367C9.64148 19.6506 5.39654 22.3561 4.54474 22.8453L4.51661 22.8609L4.43064 22.9078C3.85571 23.2283 3.35237 23.6629 2.95156 24.185C2.55075 24.7071 2.26093 25.3057 2.09992 25.9439C1.9389 26.5821 1.91009 27.2465 2.01524 27.8962C2.1204 28.546 2.35731 29.1674 2.71141 29.7222C2.7557 29.7922 2.78892 29.8687 2.80988 29.9488C5.5247 34.4814 3.15529 38.8982 2.73329 39.6141C2.72198 39.6366 2.70946 39.6585 2.69578 39.6797C2.34276 40.2413 2.10922 40.8696 2.00973 41.5255C1.91023 42.1813 1.94692 42.8507 2.1175 43.4917C2.28546 44.1338 2.5856 44.7337 2.99871 45.2531C3.41183 45.7725 3.92882 46.2 4.51661 46.5082C4.59856 46.5516 4.67212 46.6093 4.73385 46.6785C9.27888 49.2058 9.51019 53.9915 9.50238 55.0575C9.51243 55.1089 9.51662 55.1613 9.51488 55.2137C9.49346 55.8697 9.60729 56.5231 9.84929 57.1332C10.0913 57.7433 10.4563 58.2971 10.9215 58.7601C11.3987 59.2344 11.9692 59.6044 12.5969 59.8465C13.2246 60.0887 13.8958 60.1977 14.5679 60.1667C14.671 60.1613 14.7741 60.1767 14.8711 60.212H14.9195C19.8912 60.2089 22.4685 64.0397 23.0468 65.0212L23.0499 65.029Z" fill="white"/>
</svg>
