<svg width="17" height="16" viewBox="0 0 17 16" fill="none" xmlns="http://www.w3.org/2000/svg">
<path d="M12.5765 14.7992C12.4051 14.7992 12.2345 14.7466 12.0877 14.6418L8.63654 12.1668L5.18533 14.6418C5.04234 14.7447 4.87051 14.7998 4.69436 14.7992C4.51821 14.7986 4.34676 14.7423 4.20449 14.6385C4.06208 14.5352 3.95586 14.3897 3.90094 14.2226C3.84603 14.0554 3.84521 13.8753 3.89861 13.7077L5.18576 9.55349L1.76552 7.14338C1.62377 7.03877 1.5185 6.89224 1.4646 6.72452C1.4107 6.5568 1.41089 6.37638 1.46516 6.20877C1.51985 6.04157 1.6257 5.89579 1.76776 5.79203C1.90981 5.68827 2.08088 5.63177 2.25679 5.63053L6.49285 5.62417L7.84151 1.57308C7.89717 1.4062 8.00392 1.26105 8.14664 1.1582C8.28936 1.05535 8.46083 1 8.63675 1C8.81267 1 8.98414 1.05535 9.12686 1.1582C9.26959 1.26105 9.37634 1.4062 9.43199 1.57308L10.7577 5.62417L15.0154 5.63053C15.1916 5.63152 15.3629 5.68799 15.5051 5.79191C15.6473 5.89583 15.7531 6.04191 15.8076 6.20941C15.862 6.37691 15.8623 6.5573 15.8083 6.72496C15.7544 6.89262 15.649 7.03903 15.5071 7.14338L12.0869 9.55349L13.374 13.7077C13.4276 13.8752 13.4268 14.0554 13.372 14.2225C13.3171 14.3896 13.211 14.5352 13.0686 14.6385C12.9259 14.7431 12.7535 14.7995 12.5765 14.7992Z" fill="#FFAC33" stroke="#FFAC33"/>
</svg>
