<svg width="16" height="52" viewBox="0 0 16 52" fill="none" xmlns="http://www.w3.org/2000/svg">
<path d="M13.9869 51.8865H2.08594C1.68811 51.8865 1.30658 51.7284 1.02528 51.4471C0.743973 51.1658 0.585938 50.7843 0.585938 50.3865V1.63647C0.585938 1.23865 0.743973 0.857118 1.02528 0.575813C1.30658 0.294509 1.68811 0.136475 2.08594 0.136475H13.9869C14.3848 0.136475 14.7663 0.294509 15.0476 0.575813C15.3289 0.857118 15.4869 1.23865 15.4869 1.63647V50.3865C15.4869 50.5835 15.4481 50.7785 15.3728 50.9605C15.2974 51.1425 15.1869 51.3078 15.0476 51.4471C14.9083 51.5864 14.743 51.6969 14.561 51.7723C14.379 51.8477 14.1839 51.8865 13.9869 51.8865ZM3.58594 48.8865H12.4869V3.14397H3.58594V48.8865Z" fill="#575757"/>
</svg>
