<svg width="93" height="39" viewBox="0 0 93 39" fill="none" xmlns="http://www.w3.org/2000/svg">
<path d="M3.49905 36.1557H19.5631C21.3911 36.1557 22.8822 34.6775 22.8822 32.8495V31.3587L37.0273 36.7002C40.7743 38.1135 44.7027 38.8264 48.709 38.8264C53.8562 38.8264 59.0165 37.5947 63.6191 35.2742L88.6811 22.633C91.689 21.1029 92.9596 17.4985 91.5723 14.4129C90.1591 11.2624 86.464 9.84909 83.3264 11.2491L63.1912 20.2213C63.282 19.8064 63.321 19.3784 63.321 18.9378C63.321 15.4113 60.4686 12.533 56.955 12.533H45.1824C41.5392 12.533 37.9479 11.5733 34.7843 9.75825C31.2189 7.72293 27.1866 6.6467 23.0896 6.6467H22.8822V4.13151C22.8822 2.30319 21.3912 0.812317 19.5631 0.812317H3.49905C1.6709 0.812317 0.179932 2.30319 0.179932 4.13151V32.8495C0.179932 34.6775 1.67089 36.1557 3.49905 36.1557ZM22.8822 9.23977C23.0386 9.26004 28.1736 8.97388 33.4878 12.0012C37.0532 14.0499 41.0854 15.1261 45.1824 15.1261H56.955C59.0424 15.1261 60.7279 16.8373 60.7279 18.9378C60.7279 21.0234 59.0632 22.7495 56.955 22.7495H39.5296C38.8165 22.7495 38.2331 23.3329 38.2331 24.046C38.2331 24.7592 38.8165 25.3426 39.5296 25.3426H56.955C58.2224 25.3426 55.9397 26.3856 84.3896 13.6219C86.2177 12.8052 88.3828 13.6349 89.2126 15.4762C90.0294 17.2912 89.2775 19.4177 87.5142 20.3122L62.4522 32.966C54.9064 36.7651 45.8437 37.2576 37.9479 34.2626L22.8822 28.5839V9.23977ZM2.77299 4.13153C2.77299 3.74251 3.09712 3.40539 3.49905 3.40539H19.5631C19.965 3.40539 20.2891 3.74251 20.2891 4.13153C20.2891 14.7098 20.2891 22.2598 20.2891 32.8495C20.2891 33.2386 19.965 33.5627 19.5631 33.5627H3.49905C3.09712 33.5627 2.77299 33.2386 2.77299 32.8495V4.13153Z" fill="#4D4D4D"/>
</svg>
