<svg width="24" height="20" viewBox="0 0 24 20" fill="none" xmlns="http://www.w3.org/2000/svg">
<path d="M5.9082 0.105225C3.84167 0.105225 2.33114 0.874903 1.41602 1.99664C0.500888 3.11837 0.158203 4.5364 0.158203 5.85512C0.158203 8.23289 1.71007 10.5916 3.83181 12.8723C5.95355 15.1529 8.69479 17.3672 11.2589 19.3409C11.3722 19.4268 11.513 19.4736 11.6582 19.4736C11.8034 19.4736 11.9442 19.4268 12.0575 19.3409C14.6216 17.3672 17.3629 15.1529 19.4846 12.8723C21.6063 10.5916 23.1582 8.23289 23.1582 5.85512C23.1582 4.5364 22.8155 3.11837 21.9004 1.99664C20.9853 0.874903 19.4747 0.105225 17.4082 0.105225C14.877 0.105225 13.0566 1.35206 11.6582 2.61135C10.2598 1.35206 8.43938 0.105225 5.9082 0.105225ZM5.9082 1.31573C8.22122 1.31573 9.83794 2.54967 11.209 3.85968C11.3286 3.9717 11.49 4.03453 11.6582 4.03453C11.8264 4.03453 11.9878 3.9717 12.1074 3.85968C13.4785 2.54967 15.0952 1.31573 17.4082 1.31573C19.1551 1.31573 20.2051 1.90156 20.8921 2.74374C21.5792 3.58593 21.8804 4.74024 21.8804 5.85512C21.8804 7.7141 20.5573 9.89474 18.5263 12.0779C16.6014 14.1469 14.0845 16.1944 11.6582 18.0736C9.23195 16.1944 6.71505 14.1469 4.79015 12.0779C2.75911 9.89474 1.43598 7.7141 1.43598 5.85512C1.43598 4.74024 1.73719 3.58593 2.42426 2.74374C3.11133 1.90156 4.1613 1.31573 5.9082 1.31573Z" fill="white"/>
</svg>
