<svg width="17" height="16" viewBox="0 0 17 16" fill="none" xmlns="http://www.w3.org/2000/svg">
<path d="M12.4249 14.7992C12.2535 14.7992 12.0829 14.7466 11.9361 14.6418L8.48493 12.1668L5.03372 14.6418C4.89073 14.7447 4.7189 14.7998 4.54275 14.7992C4.3666 14.7986 4.19515 14.7423 4.05287 14.6385C3.91047 14.5352 3.80425 14.3897 3.74933 14.2226C3.69442 14.0554 3.6936 13.8753 3.747 13.7077L5.03415 9.55349L1.61391 7.14338C1.47216 7.03877 1.36689 6.89224 1.31299 6.72452C1.25909 6.5568 1.25928 6.37638 1.31355 6.20877C1.36824 6.04157 1.47409 5.89579 1.61614 5.79203C1.7582 5.68827 1.92927 5.63177 2.10518 5.63053L6.34123 5.62417L7.6899 1.57308C7.74556 1.4062 7.85231 1.26105 7.99503 1.1582C8.13775 1.05535 8.30922 1 8.48514 1C8.66106 1 8.83253 1.05535 8.97525 1.1582C9.11797 1.26105 9.22472 1.4062 9.28038 1.57308L10.6061 5.62417L14.8638 5.63053C15.0399 5.63152 15.2113 5.68799 15.3535 5.79191C15.4957 5.89583 15.6015 6.04191 15.6559 6.20941C15.7104 6.37691 15.7107 6.5573 15.6567 6.72496C15.6028 6.89262 15.4974 7.03903 15.3555 7.14338L11.9353 9.55349L13.2224 13.7077C13.2759 13.8752 13.2752 14.0554 13.2204 14.2225C13.1655 14.3896 13.0594 14.5352 12.917 14.6385C12.7743 14.7431 12.6018 14.7995 12.4249 14.7992Z" fill="#FFAC33" stroke="#FFAC33"/>
</svg>
