<svg width="64" height="64" viewBox="0 0 64 64" fill="none" xmlns="http://www.w3.org/2000/svg">
<path d="M32.1582 63.0002C34.3983 63.0002 36.6638 62.7511 38.8906 62.261C39.2521 62.182 39.4797 61.8245 39.4007 61.463C39.3204 61.1028 38.9709 60.8752 38.6027 60.9529C36.4697 61.4228 34.3005 61.6612 32.1582 61.6612C15.7154 61.6612 2.33898 48.2847 2.33898 31.842C2.33898 15.3993 15.7154 2.02282 32.1582 2.02282C48.5928 2.02282 61.9653 15.3993 61.9653 31.842C61.9653 32.4164 61.9506 32.9895 61.9131 33.5505C61.8876 33.9201 62.1661 34.2388 62.5357 34.2642C62.8945 34.2843 63.2239 34.0112 63.2494 33.6416C63.2895 33.0511 63.3043 32.4459 63.3043 31.842C63.3043 14.6615 49.332 0.683838 32.1582 0.683838C14.9763 0.683838 1 14.6615 1 31.842C1 49.0225 14.9763 63.0002 32.1582 63.0002Z" fill="#4D4D4D" stroke="#4D4D4D"/>
</svg>
