<svg width="25" height="22" viewBox="0 0 25 22" fill="none" xmlns="http://www.w3.org/2000/svg">
<path d="M6.25 0C4.00377 0 2.36189 0.874254 1.36719 2.1484C0.372484 3.42254 0 5.03324 0 6.53113C0 9.23197 1.68682 11.9112 3.99306 14.5017C6.29929 17.0922 9.27889 19.6074 12.066 21.8492C12.1891 21.9468 12.3422 22 12.5 22C12.6578 22 12.8109 21.9468 12.934 21.8492C15.7211 19.6074 18.7007 17.0922 21.0069 14.5017C23.3132 11.9112 25 9.23197 25 6.53113C25 5.03324 24.6275 3.42254 23.6328 2.1484C22.6381 0.874254 20.9962 0 18.75 0C15.9987 0 14.02 1.41624 12.5 2.84663C10.98 1.41624 9.00128 0 6.25 0ZM6.25 1.37497C8.76415 1.37497 10.5215 2.77657 12.0117 4.26457C12.1417 4.39181 12.3172 4.46318 12.5 4.46318C12.6828 4.46318 12.8583 4.39181 12.9883 4.26457C14.4785 2.77657 16.2359 1.37497 18.75 1.37497C20.6488 1.37497 21.7901 2.0404 22.5369 2.99701C23.2837 3.95363 23.6111 5.26477 23.6111 6.53113C23.6111 8.6427 22.1729 11.1196 19.9653 13.5994C17.873 15.9495 15.1372 18.2752 12.5 20.4098C9.86277 18.2752 7.12701 15.9495 5.03472 13.5994C2.82707 11.1196 1.38889 8.6427 1.38889 6.53113C1.38889 5.26477 1.71629 3.95363 2.46311 2.99701C3.20992 2.0404 4.35119 1.37497 6.25 1.37497Z" fill="#4D4D4D"/>
</svg>
