<svg width="16" height="45" viewBox="0 0 16 45" fill="none" xmlns="http://www.w3.org/2000/svg">
<path d="M14.1173 44.8864H2.21777C1.81995 44.8864 1.43842 44.7284 1.15711 44.4471C0.875808 44.1657 0.717773 43.7842 0.717773 43.3864V1.81689C0.717773 1.41907 0.875808 1.03754 1.15711 0.756236C1.43842 0.474932 1.81995 0.316895 2.21777 0.316895H14.1173C14.5151 0.316895 14.8966 0.474932 15.1779 0.756236C15.4592 1.03754 15.6173 1.41907 15.6173 1.81689V43.3864C15.6173 43.7842 15.4592 44.1657 15.1779 44.4471C14.8966 44.7284 14.5151 44.8864 14.1173 44.8864ZM3.71777 41.8864H12.6173V3.31689H3.71777V41.8864Z" fill="#575757"/>
</svg>
