<svg width="23" height="33" viewBox="0 0 23 33" fill="none" xmlns="http://www.w3.org/2000/svg">
<path d="M1.44683 12.2813H6.36759V13.955C6.36759 14.3246 6.66752 14.6245 7.03708 14.6245C7.40664 14.6245 7.70658 14.3246 7.70658 13.955V11.6118C7.70658 11.2422 7.40664 10.9423 7.03708 10.9423H3.06298L11.3888 2.61649L19.7146 10.9423H15.7405C15.3709 10.9423 15.071 11.2422 15.071 11.6118V31.3618C15.071 31.7314 15.3709 32.0313 15.7405 32.0313C16.11 32.0313 16.41 31.7314 16.41 31.3618V12.2813H21.3307C21.6012 12.2813 21.8462 12.1179 21.9493 11.8675C22.0525 11.6171 21.9949 11.3293 21.8047 11.1378L11.8628 1.19583C11.6017 0.934725 11.1772 0.934725 10.9161 1.19583L0.974166 11.1378C0.782691 11.3293 0.725112 11.6171 0.829553 11.8675C0.933994 12.1179 1.17635 12.2813 1.44683 12.2813Z" fill="#4D4D4D" stroke="#4D4D4D"/>
</svg>
