<svg width="3" height="3" viewBox="0 0 3 3" fill="none" xmlns="http://www.w3.org/2000/svg">
<path d="M0.741883 1.42413C0.753646 1.64127 0.828049 1.85035 0.956098 2.02611C1.08415 2.20186 1.26036 2.33677 1.46344 2.41452C1.66651 2.49226 1.88777 2.50952 2.10045 2.46422C2.31313 2.41891 2.50814 2.31298 2.6619 2.15922C2.81567 2.00545 2.9216 1.81045 2.9669 1.59777C3.01221 1.38509 2.99495 1.16384 2.9172 0.960759C2.83945 0.75768 2.70454 0.581465 2.52879 0.453417C2.35303 0.325368 2.14395 0.25096 1.92682 0.239197C1.76896 0.230645 1.61107 0.25544 1.46344 0.311963C1.3158 0.368486 1.18173 0.455477 1.06994 0.567261C0.958158 0.679046 0.871171 0.813123 0.814648 0.960759C0.758125 1.1084 0.733331 1.26627 0.741883 1.42413Z" fill="#4D4D4D"/>
</svg>
