<svg width="3" height="2" viewBox="0 0 3 2" fill="none" xmlns="http://www.w3.org/2000/svg">
<path d="M1.88504 1.97811C1.76472 1.97766 1.64607 1.94987 1.53807 1.89684L1.40834 1.82807L1.39115 1.81869C1.20752 1.72253 1.06961 1.55735 1.00777 1.3595C0.94592 1.16165 0.965204 0.94734 1.06137 0.763709C1.15754 0.580078 1.32271 0.442171 1.52056 0.380325C1.71841 0.318479 1.93272 0.337761 2.11636 0.433929L2.27265 0.5152C2.42339 0.599821 2.54182 0.732036 2.6094 0.891149C2.67697 1.05026 2.68989 1.22729 2.64611 1.39453C2.60234 1.56176 2.50435 1.70976 2.36749 1.81536C2.23062 1.92096 2.0626 1.9782 1.88973 1.97811H1.88504Z" fill="white"/>
</svg>
