<svg width="62" height="40" viewBox="0 0 62 40" fill="none" xmlns="http://www.w3.org/2000/svg">
<path d="M61.13 38.1797V1.64817C61.1316 1.48279 61.1002 1.31875 61.0376 1.16565C60.975 1.01254 60.8826 0.873449 60.7656 0.756499C60.6487 0.639549 60.5096 0.547091 60.3565 0.48453C60.2034 0.421969 60.0393 0.390564 59.874 0.392147H1.81224C1.64686 0.390564 1.48281 0.421969 1.32971 0.48453C1.17661 0.547091 1.03752 0.639549 0.920566 0.756499C0.803616 0.873449 0.711156 1.01254 0.648595 1.16565C0.586034 1.31875 0.554627 1.48279 0.556209 1.64817V38.1797C0.554627 38.345 0.586034 38.5091 0.648595 38.6622C0.711156 38.8153 0.803616 38.9544 0.920566 39.0713C1.03752 39.1883 1.17661 39.2807 1.32971 39.3433C1.48281 39.4059 1.64686 39.4373 1.81224 39.4357H59.874C60.0393 39.4373 60.2034 39.4059 60.3565 39.3433C60.5096 39.2807 60.6487 39.1883 60.7656 39.0713C60.8826 38.9544 60.975 38.8153 61.0376 38.6622C61.1002 38.5091 61.1316 38.345 61.13 38.1797ZM58.6298 7.71503H20.1432V2.89236H58.6298V7.71503ZM11.9434 7.71503V2.89236H17.6429V7.71503H11.9434ZM17.6429 10.2152V36.9947H11.9434V10.2152H17.6429ZM3.05642 2.89236H9.43136V7.71503H3.05642V2.89236ZM3.05642 10.2152H9.43136V36.9947H3.05642V10.2152ZM20.1432 36.9947V10.2152H58.6298V36.9947H20.1432Z" fill="#4D4D4D"/>
</svg>
